<?xml version="1.0" encoding="UTF-8"?>
<svg width="16px" height="16px" viewBox="0 0 16 16" version="1.1" xmlns="http://www.w3.org/2000/svg" xmlns:xlink="http://www.w3.org/1999/xlink">
    <title>编组_2_slice</title>
    <g id="医生端" stroke="none" stroke-width="1" fill="none" fill-rule="evenodd">
        <g id="画板" transform="translate(-343.000000, -157.000000)">
            <g id="编组-2" transform="translate(343.000000, 157.000000)">
                <rect id="矩形" fill="#06B48D" x="0" y="0" width="16" height="16" rx="3"></rect>
                <path d="M12.21875,7.12285156 L8.68554688,7.12285156 L8.68554688,3.78125 C8.68554688,3.34977754 8.33576934,3 7.90429688,3 C7.47282441,3 7.12304688,3.34977754 7.12304688,3.78125 L7.12304688,7.12285156 L3.78125,7.12285156 C3.34977754,7.12285156 3,7.4726291 3,7.90410156 C3,8.33557402 3.34977754,8.68535156 3.78125,8.68535156 L7.12285156,8.68535156 L7.12285156,12.21875 C7.12285156,12.6502225 7.4726291,13 7.90410156,13 C8.33557402,13 8.68535156,12.6502225 8.68535156,12.21875 L8.68535156,8.68554688 L12.21875,8.68554688 C12.6502225,8.68554688 13,8.33576934 13,7.90429688 C13,7.47282441 12.6502225,7.12304688 12.21875,7.12304688 L12.21875,7.12285156 Z" id="路径备份-12" fill="#FFFFFF" fill-rule="nonzero"></path>
            </g>
        </g>
    </g>
</svg>