<?xml version="1.0" encoding="UTF-8"?>
<svg width="14px" height="14px" viewBox="0 0 14 14" version="1.1" xmlns="http://www.w3.org/2000/svg" xmlns:xlink="http://www.w3.org/1999/xlink">
    <!-- Generator: Sketch 60.1 (88133) - https://sketch.com -->
    <title>add_slice</title>
    <desc>Created with Sketch.</desc>
    <g id="医生端/药师端" stroke="none" stroke-width="1" fill="none" fill-rule="evenodd">
        <g id="画板" transform="translate(-345.000000, -103.000000)" fill="#06B48D" fill-rule="nonzero" stroke="#06B48D" stroke-width="0.6">
            <g id="add" transform="translate(345.000000, 103.000000)">
                <path d="M14.0026094,7.00134375 C14.0026094,7.3450625 13.7239531,7.62367188 13.3802344,7.62367188 L0.622328125,7.62367188 C0.278609375,7.62367188 -7.86037901e-13,7.3450625 -7.86037901e-13,7.00134375 C-7.86037901e-13,6.657625 0.278609375,6.37901563 0.622328125,6.37901563 L13.3802344,6.37901563 C13.7239687,6.37903125 14.0026094,6.65764063 14.0026094,7.00134375 Z" id="路径"></path>
                <path d="M7.0013125,3.27737837e-13 C7.34498438,3.27737837e-13 7.62364063,0.27865625 7.62364063,0.622421875 L7.62364063,13.3802813 C7.62364063,13.7240469 7.34498438,14.0026563 7.0013125,14.0026563 C6.65759375,14.0026563 6.3789375,13.7240469 6.3789375,13.3802813 L6.3789375,0.622421875 C6.3789375,0.27865625 6.65759375,3.27737837e-13 7.0013125,3.27737837e-13 L7.0013125,3.27737837e-13 Z" id="路径"></path>
            </g>
        </g>
    </g>
</svg>