<?xml version="1.0" encoding="UTF-8"?>
<svg width="22px" height="22px" viewBox="0 0 22 22" version="1.1" xmlns="http://www.w3.org/2000/svg" xmlns:xlink="http://www.w3.org/1999/xlink">
    <title>编组_8_slice</title>
    <g id="医生端" stroke="none" stroke-width="1" fill="none" fill-rule="evenodd">
        <g id="画板" transform="translate(-336.000000, -14.000000)" fill="#000000" fill-rule="nonzero">
            <g id="编组-8" transform="translate(336.000000, 14.000000)">
                <path d="M11,22 C4.934875,22 0,17.065125 0,11 C0,4.934875 4.934875,0 11,0 C17.065125,0 22,4.934875 22,11 C22,17.065125 17.065125,22 11,22 Z M11,1.375 C5.6925,1.375 1.375,5.6925 1.375,11 C1.375,16.306125 5.6925,20.625 11,20.625 C16.306125,20.625 20.625,16.306125 20.625,11 C20.625,5.6925 16.306125,1.375 11,1.375 Z" id="形状"></path>
                <path d="M16.84375,11.6875 L5.15625,11.6875 C4.77655423,11.6875 4.46875,11.3796958 4.46875,11 C4.46875,10.6203042 4.77655423,10.3125 5.15625,10.3125 L16.84375,10.3125 C17.2234458,10.3125 17.53125,10.6203042 17.53125,11 C17.53125,11.3796958 17.2234458,11.6875 16.84375,11.6875 Z" id="路径"></path>
                <path d="M11,17.53125 C10.6203042,17.53125 10.3125,17.2234458 10.3125,16.84375 L10.3125,5.15625 C10.3125,4.77655423 10.6203042,4.46875 11,4.46875 C11.3796958,4.46875 11.6875,4.77655423 11.6875,5.15625 L11.6875,16.84375 C11.6875,17.2234458 11.3796958,17.53125 11,17.53125 Z" id="路径"></path>
            </g>
        </g>
    </g>
</svg>