<?xml version="1.0" encoding="UTF-8"?>
<svg width="16px" height="16px" viewBox="0 0 16 16" version="1.1" xmlns="http://www.w3.org/2000/svg" xmlns:xlink="http://www.w3.org/1999/xlink">
    <!-- Generator: Sketch 60.1 (88133) - https://sketch.com -->
    <title>编组_slice</title>
    <desc>Created with Sketch.</desc>
    <g id="医生端/药师端" stroke="none" stroke-width="1" fill="none" fill-rule="evenodd">
        <g id="画板" transform="translate(-342.000000, -55.000000)" fill="#666666" fill-rule="nonzero">
            <g id="编组" transform="translate(342.002131, 55.004415)">
                <path d="M15.310214,8.69505105 L0.685523786,8.69505105 C0.307046679,8.69505105 -8.41993142e-13,8.37936109 -8.41993142e-13,8.0006647 C-8.41993142e-13,7.6219683 0.307064946,7.30627834 0.685523786,7.30627834 L15.310214,7.30627834 C15.6886911,7.30627834 15.995756,7.6219683 15.995756,8.0006647 C15.995756,8.37936109 15.6886911,8.69505105 15.310214,8.69505105 Z" id="路径"></path>
                <path d="M8.00139562,15.995756 C7.62291852,15.995756 7.30700927,15.6889103 7.30700927,15.3102322 L7.30700927,0.685523786 C7.30700927,0.306827393 7.62291854,-8.4288132e-13 8.00139564,-8.4288132e-13 C8.37987275,-8.4288132e-13 8.695782,0.306845679 8.695782,0.685523786 L8.695782,15.310214 C8.695782,15.6889104 8.37987273,15.995756 8.00139562,15.995756 Z" id="路径"></path>
            </g>
        </g>
    </g>
</svg>