<?xml version="1.0" encoding="UTF-8"?>
<svg width="6px" height="10px" viewBox="0 0 6 10" version="1.1" xmlns="http://www.w3.org/2000/svg" xmlns:xlink="http://www.w3.org/1999/xlink">
    <title>rectangle_备份 2_slice</title>
    <g id="医生端" stroke="none" stroke-width="1" fill="none" fill-rule="evenodd">
        <g id="画板" transform="translate(-47.000000, -211.000000)" fill="#999999">
            <path d="M51.9909423,220.987498 L47.0126737,216.142546 C46.9959604,216.053971 46.9955915,215.946852 47.0126737,215.857549 L51.9909423,211.012597 C52.0293652,210.99631 52.1376258,210.9953 52.2837816,211.012597 L52.8694603,211.582591 C52.8861438,211.731441 52.8869393,211.838803 52.8694603,211.867588 L48.7697097,215.857549 C48.7109016,215.945791 48.7097328,216.05352 48.7697097,216.142546 L52.8694603,220.132506 C52.8857706,220.160508 52.8875085,220.267677 52.8694603,220.417503 L52.2837816,220.987498 C52.1389905,221.003819 52.0297341,221.004513 51.9909423,220.987498 Z" id="Rectangle-备份-2" transform="translate(49.941176, 216.000000) scale(-1, 1) translate(-49.941176, -216.000000) "></path>
        </g>
    </g>
</svg>