<?xml version="1.0" encoding="UTF-8"?>
<svg width="48px" height="48px" viewBox="0 0 48 48" version="1.1" xmlns="http://www.w3.org/2000/svg" xmlns:xlink="http://www.w3.org/1999/xlink">
    <title>under_review_slice</title>
    <g id="医生端/药师端" stroke="none" stroke-width="1" fill="none" fill-rule="evenodd">
        <g id="画板" transform="translate(-310.000000, -143.000000)">
            <g id="Under-review" transform="translate(310.000000, 143.000000)">
                <g id="编组-23备份-2" transform="translate(0.000000, 6.000000)" fill="#06B48D" fill-rule="nonzero">
                    <path d="M28.000037,3.58446632 L28.389441,4.25032663 L27.6289148,4.15784603 L27.1225068,4.7404738 L26.9762517,3.97843365 L26.2723994,3.67139807 L26.9415162,3.29407724 L27.0146437,2.52278904 L27.5758974,3.04992848 L28.3236262,2.88161378 L28.000037,3.58446632 L28.000037,3.58446632 Z M38.1117441,23.2106987 L37.4535965,23.6046661 L37.5450059,22.8352275 L36.9709549,22.322885 L37.7223401,22.1730664 L38.0258192,21.4628154 L38.3987696,22.1397734 L39.1611239,22.2119083 L38.6400904,22.7797391 L38.8064555,23.5362304 L38.1117441,23.2106987 L38.1117441,23.2106987 Z" id="形状"></path>
                    <path d="M38.1117441,23.2106987 L37.4535965,23.6046661 L37.5450059,22.8352275 L36.9709549,22.322885 L37.7223401,22.1730664 L38.0258192,21.4628154 L38.3987696,22.1397734 L39.1611239,22.2119083 L38.6400904,22.7797391 L38.8064555,23.5362304 L38.1117441,23.2106987 L38.1117441,23.2106987 Z M20.4240264,3.6140601 L19.8024425,3.16090517 L20.5355459,2.93710214 L20.7677257,2.19910697 L21.2046626,2.83537346 L21.9706734,2.82982465 L21.5081418,3.44759505 L21.7494626,4.18374058 L21.0255002,3.93034376 L20.4094009,4.38904751 L20.4240264,3.6140601 Z M35.406026,28.3415223 L34.6491562,28.4672959 L35.0111375,27.7847891 L34.6601254,27.0948838 L35.4133388,27.2317551 L35.9526542,26.6805708 L36.0568609,27.4481597 L36.7406032,27.7958868 L36.0513764,28.1343657 L35.9362005,28.9001051 L35.406026,28.3415223 L35.406026,28.3415223 Z M15.2849903,5.66527976 L14.542746,5.47292012 L15.146048,4.99387061 L15.0985151,4.22073281 L15.7328963,4.6516924 L16.4458896,4.36685217 L16.235648,5.11224579 L16.7237741,5.70967044 L15.9595916,5.73926423 L15.5482493,6.39217725 L15.2849903,5.66527976 L15.2849903,5.66527976 Z M30.5064825,32.3903229 L29.7660664,32.1979632 L30.3675402,31.7189137 L30.3200074,30.9457759 L30.9562167,31.3785851 L31.6673818,31.0918953 L31.4589684,31.8372889 L31.9470946,32.4347135 L31.1810839,32.4643073 L30.7697416,33.1172203 L30.5064825,32.3903229 L30.5064825,32.3903229 Z M20.0858116,33.3724668 L20.4752157,34.0383271 L19.7146895,33.9458465 L19.2082815,34.5266247 L19.0601982,33.7664342 L18.3581741,33.4593985 L19.0272909,33.0820777 L19.0985902,32.3107895 L19.6598439,32.8379289 L20.4075727,32.6696142 L20.0858116,33.3724668 L20.0858116,33.3724668 Z M8.67060657,15.201879 L8.01063071,15.5976959 L8.10204014,14.8282574 L7.52798914,14.3140652 L8.27937435,14.1660963 L8.58285353,13.4539957 L8.95580385,14.1309537 L9.71815821,14.2049382 L9.19712467,14.772769 L9.36531796,15.5292603 L8.67060657,15.201879 L8.67060657,15.201879 Z" id="形状"></path>
                    <path d="M8.67060657,15.201879 L8.01063071,15.5976959 L8.10204014,14.8282574 L7.52798914,14.3140652 L8.27937435,14.1660963 L8.58285353,13.4539957 L8.95580385,14.1309537 L9.71815821,14.2049382 L9.19712467,14.772769 L9.36531796,15.5292603 L8.67060657,15.201879 L8.67060657,15.201879 Z M25.0274035,34.1049131 L24.4058196,33.6536078 L25.1370947,33.4279552 L25.3711028,32.68996 L25.8080397,33.3262265 L26.5740504,33.3225273 L26.1115189,33.9402977 L26.3528397,34.6745936 L25.6288773,34.4211968 L25.0109498,34.8799005 L25.0274035,34.1049131 Z M10.8406656,10.0747547 L10.0837958,10.1986786 L10.445777,9.51617183 L10.0947649,8.82811618 L10.8479783,8.96498749 L11.3872937,8.41380312 L11.4915004,9.18139208 L12.1752427,9.52911912 L11.4860159,9.86574848 L11.37084,10.6333375 L10.8406656,10.0747547 L10.8406656,10.0747547 Z" id="形状"></path>
                    <path d="M14.5573715,3.2737315 C20.1731427,0.00931639134 27.1168434,0.17325375 32.5759912,3.69914226 L33.4699751,3.1775517 C27.6774849,-0.788005867 20.1563607,-1.06253029 14.0964757,2.47041024 C8.03659071,6.00335077 4.50006173,12.7245373 4.98680799,19.7833678 L5.88079185,19.2636268 C5.60156797,12.7142305 8.94578225,6.55124476 14.5573715,3.2737315 Z M31.8995617,33.7238931 C26.2848048,36.9899852 19.3411197,36.8281866 13.880942,33.3040311 L12.9887863,33.8237721 C18.7809557,37.7879522 26.3008449,38.0619931 32.35991,34.5296973 C38.418975,30.9974016 41.9555695,24.2776846 41.4701252,17.2198056 L40.5852823,17.7395466 C40.859333,24.2886433 37.511953,30.4488323 31.8995617,33.7238931 L31.8995617,33.7238931 Z" id="形状"></path>
                    <path d="M29.0676987,28.7558354 C26.2726773,30.3863315 22.9349574,30.7726954 19.8481472,29.8230614 L18.7841419,30.4445311 C22.3150934,31.7882229 26.2551324,31.4625624 29.5236941,29.5568628 C32.7922557,27.6511631 35.0462291,24.3654714 35.6674569,20.6008963 L34.6034516,21.2205163 C33.8667523,24.3983267 31.8629253,27.1259549 29.0676987,28.7558354 L29.0676987,28.7558354 Z M17.3874064,8.24178922 C20.1824277,6.61129312 23.5201476,6.22492921 26.6069578,7.17456309 L27.6709631,6.5530935 C24.1397966,5.20872566 20.1992309,5.53404331 16.9302028,7.43980858 C13.6611746,9.34557385 11.406926,12.6316848 10.7858199,16.3967283 L11.8516535,15.7771083 C12.5869316,12.5986304 14.5911382,9.87048543 17.3874064,8.24178922 Z M46.0095157,13.5390778 C45.8647769,13.7128012 45.6908695,13.859318 45.4957949,13.971887 L8.20076228,35.721474 C7.28182408,36.2557436 6.10882263,35.9362983 5.57914085,35.0075237 L0.257285958,25.6780811 C0.0025283715,25.2320316 -0.0664354891,24.7017912 0.0655971931,24.2042493 C0.197629875,23.7067074 0.519818662,23.2827143 0.96113828,23.0257375 L38.2653119,1.27615061 C39.18425,0.741881005 40.3572515,1.06132629 40.8869333,1.9901008 L46.2014754,11.3195435 C46.6028336,12.0271427 46.5262403,12.9127523 46.0095157,13.5390778 Z M1.14944164,24.0541218 C0.877646066,24.3813148 0.837449311,24.8456673 1.04889132,25.2156781 L6.36343346,34.5451208 C6.64190147,35.0304515 7.25623421,35.1959727 7.73640253,34.9150431 L45.0405761,13.1710051 C45.5202853,12.8892737 45.6838892,12.2677418 45.4062137,11.7819465 L40.0934997,2.45065418 C39.8157464,1.96555648 39.2019768,1.79996656 38.7223589,2.0807318 L1.41818524,23.8266195 C1.31568222,23.8852991 1.22461207,23.9623936 1.14944164,24.0541218 Z" id="形状"></path>
                    <path d="M17.0327379,18.1002209 L17.8206869,19.4837306 L17.2722305,19.8018639 L16.7749634,18.9325463 L11.3616991,22.0972323 L11.8827326,23.0053918 L11.3342763,23.3253747 L10.5225609,21.9030231 L13.4970225,20.1606886 C13.2794682,19.9868251 13.0893366,19.8444049 12.9302843,19.7334283 L13.4641152,19.2839726 C13.6067138,19.3986485 13.8102521,19.5786774 14.0747299,19.8240592 L17.0327379,18.1002209 Z M16.4239513,25.20643 L14.6908292,26.2181677 L14.9577446,26.68427 L14.4092883,27.0024032 L12.2154629,23.1737065 L14.4952131,21.8419859 L14.0454789,21.0522016 L14.6250145,20.7155722 L15.0765769,21.5053565 L17.3672963,20.1606886 L19.5391835,23.96719 L18.9907271,24.2871729 L18.7420936,23.8599125 L16.9870332,24.8845976 L17.9011271,26.4882111 L17.3398735,26.8155924 L16.4239513,25.20643 Z M14.8078332,22.3635765 L13.0747111,23.3753142 L13.5920883,24.2834737 L15.3252104,23.2717359 L14.8078332,22.3635765 Z M13.8754574,24.7847185 L14.3946628,25.692878 L16.1277849,24.6811402 L15.6085795,23.7729808 L13.8754574,24.7847185 Z M17.6378681,21.9122711 L17.1204909,21.0041117 L15.3562896,22.0343455 L15.8828077,22.9351065 L17.6378681,21.9122711 Z M16.6890386,24.3519093 L18.4459271,23.3272243 L17.9267217,22.4190648 L16.1716614,23.4437498 L16.6890386,24.3519093 Z M23.524633,23.1644584 L22.9761767,23.4788925 L20.7183646,19.5225725 C20.9232489,20.4240606 21.0135599,21.3483203 20.9871082,22.2729455 L20.4313391,21.8253394 C20.5145002,20.6469341 20.376164,19.4632591 20.0236532,18.3369713 L18.9687889,18.952892 L18.6579969,18.3980084 L19.7366277,17.7691404 L18.8572694,16.2284136 L19.3947566,15.9139796 L20.274115,17.4547063 L21.1882089,16.9164692 L21.4990009,17.4602552 L20.5849069,17.9984923 L20.8792452,18.5126844 C21.4667029,18.7161417 22.1272881,18.986185 22.8610008,19.3228144 L22.8244371,19.9868251 C22.1406948,19.5922412 21.6093015,19.3061679 21.2302572,19.1286052 L23.524633,23.1644584 Z M24.4917444,22.5263423 L23.9067243,22.2137579 C25.3698105,20.608554 26.1339576,18.4758591 26.0274222,16.2949996 L26.6490061,16.2691051 C26.6856401,17.1521335 26.5938603,18.035817 26.3766061,18.8918548 C27.1586381,19.0435576 27.9258274,19.2651464 28.6691537,19.5540159 L28.4973041,20.2013801 C27.7648616,19.8762416 27.0032868,19.6229182 26.2230384,19.4448888 C25.8596048,20.5795232 25.2725022,21.627802 24.497229,22.5263423 L24.4917444,22.5263423 Z M21.003562,16.1396322 L22.9542384,15.0002713 C22.696515,14.7923056 22.4219243,14.6066873 22.1333821,14.4453877 L22.658072,14.0144281 C22.9504752,14.2244041 23.231793,14.4497497 23.5008666,14.6895365 L25.2285041,13.6685507 L25.5210142,14.1808932 L23.3820344,15.4312309 C23.3930035,16.4577655 23.3253606,17.2235048 23.1845901,17.7265993 C23.8043458,17.308587 24.2815028,16.9867545 24.5996075,16.7629515 C24.6442141,16.3620014 24.6546122,15.95791 24.6306867,15.5551549 L25.2285041,15.5366587 C25.340633,17.5687657 24.8055833,19.3061679 23.6233552,20.7488652 L23.047476,20.4529273 C23.7793351,19.6021924 24.2829422,18.5755322 24.5100263,17.4713529 C23.855535,17.902929 23.2894062,18.2728514 22.8116397,18.58112 L22.4295485,18.1834534 L22.4862223,18.1261155 L22.5191297,18.0743264 C22.7129176,17.6945394 22.8128585,16.9269504 22.8189525,15.7715595 L21.296072,16.6464259 L21.003562,16.1396322 Z M28.7550785,10.411384 L29.3327859,10.0729051 L30.1445013,11.4952566 L32.9471134,9.85835004 L35.0659831,13.5705212 L34.5029012,13.8979025 L34.2195321,13.4003569 L31.980002,14.7098822 L33.5156798,17.4029172 L32.9379724,17.7395466 L31.4022946,15.0465116 L29.168249,16.350488 L29.4534463,16.8480336 L28.8848799,17.1772645 L26.7733229,13.4650933 L29.566794,11.8374348 L28.7550785,10.411384 Z M28.8538007,15.797454 L31.0860181,14.5027257 L29.8830705,12.3923184 L27.6508531,13.6870468 L28.8538007,15.797454 Z M31.6637255,14.1568482 L33.9032556,12.847323 L32.700308,10.7387653 L30.4607778,12.0482906 L31.6637255,14.1568482 Z" id="形状"></path>
                </g>
                <rect id="矩形" x="0" y="0" width="48" height="48"></rect>
            </g>
        </g>
    </g>
</svg>