<?xml version="1.0" encoding="UTF-8"?>
<svg width="145px" height="89px" viewBox="0 0 145 89" version="1.1" xmlns="http://www.w3.org/2000/svg" xmlns:xlink="http://www.w3.org/1999/xlink">
    <title>编组_35_slice</title>
    <defs>
        <polygon id="path-1" points="6.14749577 2.87031229 5.41852194 2.4201712 5.42470408 0.0129884929 0.740039357 0 0.733805259 2.40718271 0 2.73340407 0.177515934 9.56060863 0.71536272 9.56206377 0.712713229 10.6087423 5.39737795 10.6217308 5.4000794 9.57510616 5.93475718 9.5765613"></polygon>
        <rect id="path-3" x="0" y="0" width="145" height="89"></rect>
    </defs>
    <g id="医生端" stroke="none" stroke-width="1" fill="none" fill-rule="evenodd">
        <g id="画板" transform="translate(-24.000000, -328.000000)">
            <g id="编组-35" transform="translate(24.000000, 328.000000)">
                <rect id="矩形-copy-5" stroke="#CCCCCC" stroke-width="0.5" fill="#FFFFFF" fill-rule="nonzero" opacity="0.3" x="0" y="0" width="145" height="89"></rect>
                <rect id="矩形" stroke="#7FB1FD" fill="#FFFCF6" fill-rule="nonzero" x="7.5" y="4.5" width="132" height="80" rx="4"></rect>
                <ellipse id="椭圆形" fill="#CAE3FF" cx="111.96687" cy="32.5697674" rx="16.5662651" ry="16.5697674"></ellipse>
                <g id="分组" transform="translate(99.000000, 21.000000)">
                    <polygon id="Fill-1" fill="#7588C3" points="10.066579 16.9947692 16.2070343 17.0112573 16.1999938 19.6502019 10.0595385 19.6337703"></polygon>
                    <g id="路径-3" transform="translate(10.059539, 13.808250)">
                        <mask id="mask-2" fill="white">
                            <use xlink:href="#path-1"></use>
                        </mask>
                        <use id="Mask" fill="#F0C8B5" xlink:href="#path-1"></use>
                        <path d="M0.558863252,3.76991885e-14 C1.44558367,0.952168078 2.27931961,1.44976489 3.06007107,1.49279045 C3.84082253,1.53581601 4.67455847,1.13011003 5.56127889,0.275672509 L5.56127889,1.10960625 C4.72754295,1.9220057 3.89380701,2.32820542 3.06007107,2.32820542 C2.22633513,2.32820542 1.39259919,1.9220057 0.558863252,1.10960625 L0.558863252,3.76991885e-14 Z" fill="#E2BDAB" fill-rule="nonzero" mask="url(#mask-2)"></path>
                    </g>
                    <g>
                        <path d="M19.1644786,28.7250078 C19.2686221,25.2605915 19.0851311,18.3949479 16.0871746,17.3221911 L15.900708,17.9769839 C15.5787998,18.8406547 14.891692,19.1283123 12.9468527,19.1233676 C10.7526749,19.1178502 9.78461664,18.4396591 9.52717821,17.6593209 L9.4284347,17.3053788 C6.42447201,18.362989 6.31636109,25.2279039 6.45962734,28.6929448 L19.1644786,28.7250078 Z" id="Fill-3" fill="#8FA0D1"></path>
                        <polygon id="Fill-5" fill="#42404C" points="14.0192915 19.3965035 13.5399006 20.2581963 12.0883931 20.2545528 11.6275166 19.3904656 12.826049 18.4701121"></polygon>
                        <path d="M12.8263024,18.4701225 L11.2939046,19.9859836 L8.69009497,17.0889875 C8.69329107,17.0876289 9.57298084,16.7325028 10.0595385,16.5431704 C10.5460962,16.3538381 10.4249949,16.3940232 10.4249949,16.3940232 L10.9339757,16.8095616 L12.8263024,18.4701225 Z" id="Fill-7" fill="#7588C3"></path>
                        <polygon id="Fill-9" fill="#7588C3" points="15.5014219 16.2295549 12.8263024 18.4697738 14.3501594 19.9945875 16.9706645 17.0548383"></polygon>
                        <polygon id="Fill-11" fill="#42404C" points="13.7750722 28.7019286 13.5432564 20.4646866 12.0916386 20.4607969 11.8220225 28.6966497"></polygon>
                        <path d="M1.10204809e-05,28.7317795 L12.5030387,28.7317795 C11.6532494,25.5814867 9.41811402,17.1297974 9.41811402,17.1297974 L4.01818857,18.333669 C2.5179705,18.6681442 1.38517527,19.8330821 1.15931051,21.2735744 L1.10204809e-05,28.7317795 Z" id="Fill-13" fill="#FEFEFE"></path>
                        <g transform="translate(13.169475, 17.124551)" fill="#FEFEFE" id="Fill-15">
                            <path d="M3.19472721,0.0227563939 C3.19472721,0.0227563939 0.875907824,8.46125614 0.00826536069,11.6072287 L12.4275759,11.5741611 L11.3088318,4.19885656 C11.0917834,2.76174761 9.97171686,1.59358259 8.47926823,1.24755215 L3.19472721,0.0227563939 Z"></path>
                        </g>
                        <polygon id="Fill-17" fill="#E5E6E7" points="8.96122141 20.7291854 8.03511529 21.9182226 12.0667929 28.6976188 12.5030387 28.6987119 9.89793869 16.5976701 7.65209444 17.4874093 7.77817278 19.804772"></polygon>
                        <polygon id="Fill-19" fill="#E5E6E7" points="13.5303128 28.7013196 17.6002315 21.9423791 16.680903 20.7486574 17.8692414 19.8302298 17.9604946 17.5240531 15.9107182 16.4636827 13.0940671 28.7002266"></polygon>
                        <path d="M18.4457944,5.71021479 C18.4533986,3.10430855 15.7267112,0.985973862 12.8695964,0.978975703 C10.0104428,0.9720619 7.27350639,3.07708731 7.26590226,5.68299355 L7.42801353,7.67431254 C7.26805125,7.70911755 7.12351764,7.77561371 7.00267807,7.86943156 C6.77852149,8.04245217 6.63707362,8.29879387 6.63619198,8.58758007 L6.63332276,9.56885047 C6.63178378,10.0876612 7.08885823,10.5096406 7.65933343,10.5143616 C8.0084967,12.844885 10.8893262,15.315947 12.8275533,15.320679 C14.7657803,15.3253891 17.1818467,13.7984117 18.0239304,10.5397246 C18.5922015,10.5376654 19.053078,10.1182976 19.0546209,9.5994367 L19.0574898,8.61816629 C19.0587536,8.17494225 18.7233452,7.80499457 18.271781,7.70253825 L18.4457944,5.71021479 Z" id="Fill-21" fill="#F0C8B5"></path>
                        <path d="M9.54558241,4.55609864 C9.54558241,4.55609864 9.58856229,6.94817456 8.11374643,8.06475773 C8.11374643,8.06475773 6.63248359,7.18531575 6.64605501,4.96000901 C6.65694905,3.18649893 7.23260387,2.31892442 8.21518995,1.97877567 C8.21518995,1.97877567 8.88854134,0.457865724 11.0451944,0.163260991 C13.2016821,-0.131343743 16.0725724,-0.0385380467 17.7671367,1.81018473 C19.4617009,3.65901161 19.6685003,6.77495114 17.6380318,9.42654989 C17.6380318,9.42654989 17.5274963,8.27061669 17.1169283,7.49751349 C17.1169283,7.49751349 14.4433045,6.91168729 13.2071923,5.95947899 C13.2071923,5.95947899 13.7075221,6.80498417 13.6525299,7.20306491 C13.6525299,7.20306491 10.5422747,6.6228081 9.54558241,4.55609864" id="Fill-37" fill="#2B2E2B"></path>
                    </g>
                </g>
                <rect id="矩形" fill="#CAE3FF" fill-rule="nonzero" x="19" y="17.5833333" width="72.8915663" height="7.45098039"></rect>
                <rect id="矩形-copy" fill="#CAE3FF" fill-rule="nonzero" x="19" y="41.3333333" width="72.8915663" height="7.45098039"></rect>
                <rect id="矩形-copy-6" fill="#CAE3FF" fill-rule="nonzero" x="19" y="65.0833333" width="107.349398" height="7.45098039"></rect>
                <g id="编组" transform="translate(21.000000, 65.000000)"></g>
                <g id="编组-33">
                    <mask id="mask-4" fill="white">
                        <use xlink:href="#path-3"></use>
                    </mask>
                    <use id="Mask" fill-opacity="0.243826486" fill="#000000" fill-rule="nonzero" xlink:href="#path-3"></use>
                    <path d="M72.5,28 C63.3863281,28 56,35.3863281 56,44.5 C56,53.6136719 63.3863281,61 72.5,61 C81.6136719,61 89,53.6136719 89,44.5 C89,35.3863281 81.6136719,28 72.5,28 Z M82.5256836,54.5256836 C81.2237305,55.8276367 79.7058594,56.8524414 78.0171875,57.5646484 C76.2705078,58.3058594 74.4142578,58.6796875 72.5,58.6796875 C70.5857422,58.6796875 68.7294922,58.3058594 66.9828125,57.5678711 C65.2941406,56.8524414 63.7794922,55.8308594 62.4743164,54.5289063 C61.1723633,53.2269531 60.1475586,51.709082 59.4353516,50.0204102 C58.6941406,48.2705078 58.3203125,46.4142578 58.3203125,44.5 C58.3203125,42.5857422 58.6941406,40.7294922 59.4321289,38.9828125 C60.1475586,37.2941406 61.1691406,35.7794922 62.4710937,34.4743164 C63.7730469,33.1723633 65.290918,32.1475586 66.9795898,31.4353516 C68.7294922,30.6941406 70.5857422,30.3203125 72.5,30.3203125 C74.4142578,30.3203125 76.2705078,30.6941406 78.0171875,31.4321289 C79.7058594,32.1475586 81.2205078,33.1691406 82.5256836,34.4710938 C83.8276367,35.7730469 84.8524414,37.290918 85.5646484,38.9795898 C86.3058594,40.7294922 86.6796875,42.5857422 86.6796875,44.5 C86.6796875,46.4142578 86.3058594,48.2705078 85.5678711,50.0171875 C84.8524414,51.7058594 83.8308594,53.2237305 82.5256836,54.5256836 Z M79.5898437,43.355957 L73.6762695,43.355957 L73.6762695,37.4423828 C73.6762695,36.8010742 73.1574219,36.2822266 72.5161133,36.2822266 L72.5161133,36.2822266 C71.8748047,36.2822266 71.355957,36.8010742 71.355957,37.4423828 L71.355957,43.355957 L65.4101562,43.355957 C64.7688477,43.355957 64.25,43.8748047 64.25,44.5161133 L64.25,44.5161133 C64.25,45.1574219 64.7688477,45.6762695 65.4101562,45.6762695 L71.355957,45.6762695 L71.355957,51.5576172 C71.355957,52.1989258 71.8748047,52.7177734 72.5161133,52.7177734 L72.5161133,52.7177734 C73.1574219,52.7177734 73.6762695,52.1989258 73.6762695,51.5576172 L73.6762695,45.6762695 L79.5898437,45.6762695 C80.2311523,45.6762695 80.75,45.1574219 80.75,44.5161133 L80.75,44.5161133 C80.75,43.8748047 80.2311523,43.355957 79.5898437,43.355957 Z" id="Shape" fill="#FFFFFF" fill-rule="nonzero"></path>
                </g>
            </g>
        </g>
    </g>
</svg>