<?xml version="1.0" encoding="UTF-8"?>
<svg width="16px" height="16px" viewBox="0 0 16 16" version="1.1" xmlns="http://www.w3.org/2000/svg" xmlns:xlink="http://www.w3.org/1999/xlink">
    <!-- Generator: Sketch 60.1 (88133) - https://sketch.com -->
    <title>time_slice</title>
    <desc>Created with Sketch.</desc>
    <g id="医生端/药师端" stroke="none" stroke-width="1" fill="none" fill-rule="evenodd">
        <g id="画板" transform="translate(-225.000000, -146.000000)" fill="#999999" fill-rule="nonzero">
            <path d="M237.210526,147.263158 L238.685053,147.263158 C239.964211,147.263158 241,148.299789 241,149.580842 L241,159.682105 C241,160.962316 239.963789,162 238.685053,162 L227.314947,162 C226.035789,162 225,160.963368 225,159.682316 L225,149.581053 C225,148.300842 226.036211,147.263158 227.314947,147.263158 L228.789474,147.263158 L228.789474,146.631579 C228.789474,146.282768 229.072241,146 229.421053,146 C229.769864,146 230.052632,146.282768 230.052632,146.631579 L230.052632,147.263158 L235.947368,147.263158 L235.947368,146.631579 C235.947368,146.282768 236.230136,146 236.578947,146 C236.927759,146 237.210526,146.282768 237.210526,146.631579 L237.210526,147.263158 Z M237.210526,148.526316 L237.210526,149.157895 C237.210526,149.506706 236.927759,149.789474 236.578947,149.789474 C236.230136,149.789474 235.947368,149.506706 235.947368,149.157895 L235.947368,148.526316 L230.052632,148.526316 L230.052632,149.157895 C230.052632,149.506706 229.769864,149.789474 229.421053,149.789474 C229.072241,149.789474 228.789474,149.506706 228.789474,149.157895 L228.789474,148.526316 L227.314947,148.526316 C227.035624,148.526651 226.767877,148.637947 226.570622,148.835715 C226.373367,149.033483 226.262767,149.301519 226.263154,149.580842 L226.263154,159.682105 C226.262431,159.96155 226.372916,160.229802 226.570238,160.427677 C226.767559,160.625551 227.035501,160.736842 227.314947,160.736842 L238.685053,160.736842 C238.964376,160.736507 239.232123,160.625211 239.429378,160.427443 C239.626633,160.229675 239.737233,159.961639 239.736846,159.682316 L239.736846,149.581053 C239.737569,149.301607 239.627084,149.033355 239.429762,148.835481 C239.232441,148.637606 238.964499,148.526316 238.685053,148.526316 L237.210526,148.526316 Z M237,152.947368 C237.348811,152.947368 237.631579,153.230136 237.631579,153.578947 C237.631579,153.927759 237.348811,154.210526 237,154.210526 L229,154.210526 C228.651189,154.210526 228.368421,153.927759 228.368421,153.578947 C228.368421,153.230136 228.651189,152.947368 229,152.947368 L237,152.947368 L237,152.947368 Z M234.473684,156.105263 C234.822496,156.105263 235.105263,156.388031 235.105263,156.736842 C235.105263,157.085654 234.822496,157.368421 234.473684,157.368421 L229,157.368421 C228.651189,157.368421 228.368421,157.085654 228.368421,156.736842 C228.368421,156.388031 228.651189,156.105263 229,156.105263 L234.473684,156.105263 Z" id="time"></path>
        </g>
    </g>
</svg>