<?xml version="1.0" encoding="UTF-8"?>
<svg width="42px" height="42px" viewBox="0 0 42 42" version="1.1" xmlns="http://www.w3.org/2000/svg" xmlns:xlink="http://www.w3.org/1999/xlink">
    <title>编组_12_slice</title>
    <g id="医生端" stroke="none" stroke-width="1" fill="none" fill-rule="evenodd">
        <g id="画板" transform="translate(-94.000000, -66.000000)" fill="#06B48D">
            <g id="编组-12" transform="translate(94.000000, 66.000000)">
                <rect id="矩形备份-18" opacity="0.112002418" x="0" y="0" width="42" height="42" rx="8"></rect>
                <path d="M32.043335,27.9355141 C32.037201,27.9521137 32.0267353,27.9679285 32.0179268,27.9827839 L32.0179268,27.8462074 L32.0179268,15.0943295 C32.0179268,14.2796673 31.3516731,13.6169021 30.5330862,13.6169021 L26.0889721,13.6169021 L26.0338531,13.6169021 L26.0084448,13.5678881 L25.4271081,12.4122207 C25.3605932,12.2642483 24.7660872,11 23.9562217,11 L16.0625772,11 C15.2343388,11 14.6241343,12.341287 14.5987261,12.3986445 L14.0103832,13.5678881 L13.9849749,13.6169021 L13.9298559,13.6169021 L9.48486963,13.6169021 C8.66631187,13.6169021 8,14.2796673 8,15.0943295 L8,29.4825379 C8,30.2976653 8.66631187,30.9604305 9.48486963,30.9604305 L30.5331153,30.9604305 C31.3517021,30.9604305 32.0179558,30.2976653 32.0179558,29.4825379 L32.0179558,27.9985404 C32.0328984,27.977522 32.0503411,27.9582768 32.0634813,27.9355141 L32.043335,27.9355141 Z M19.9332039,26.7675787 C17.1297809,26.7675787 14.8482442,24.4982228 14.8482442,21.7097134 C14.8482442,18.921233 17.129781,16.6527783 19.9332039,16.6527783 C22.7365977,16.6527783 25.0173205,18.921233 25.0173205,21.7097134 C25.0173205,24.4982228 22.7365977,26.7675787 19.9332039,26.7675787 Z M27.7156801,18.0067403 C27.0633805,18.0067403 26.5319299,17.4753188 26.5319299,16.8226123 C26.5319299,16.1690336 27.0633805,15.6380191 27.7156801,15.6380191 C28.3687936,15.6380191 28.9002151,16.1690336 28.9002151,16.8226123 C28.9002151,17.4753188 28.3687936,18.0067403 27.7156801,18.0067403 Z" id="形状" fill-rule="nonzero"></path>
            </g>
        </g>
    </g>
</svg>