<?xml version="1.0" encoding="UTF-8"?>
<svg width="40px" height="40px" viewBox="0 0 40 40" version="1.1" xmlns="http://www.w3.org/2000/svg" xmlns:xlink="http://www.w3.org/1999/xlink">
    <title>cancel_slice</title>
    <g id="患者端" stroke="none" stroke-width="1" fill="none" fill-rule="evenodd">
        <g id="画板" transform="translate(-319.000000, -147.000000)" fill="#999999">
            <g id="cancel" transform="translate(319.000000, 147.000000)">
                <path d="M19.7772088,7.44605879 L20.7191152,7.346228 L21.4878687,7.93054836 L21.641281,7.01797079 L22.4128546,6.50584444 L21.5668309,6.04109543 L21.2746707,5.14036221 L20.5978517,5.76641975 L19.6452291,5.72129848 L20.0738811,6.57296234 L19.7772088,7.44605879 L19.7772088,7.44605879 Z M31.5645748,13.8927593 L31.7625444,14.8374857 L32.4765884,14.2486533 L33.3953701,14.3670966 L33.0603447,13.4612872 L33.428647,12.5898828 L32.5081732,12.6192116 L31.8178179,11.9610052 L31.5837514,12.8854271 L30.7884891,13.3507401 L31.5645748,13.8921953 L31.5645748,13.8927593 Z M25.8527869,8.90121952 L26.7574682,9.18153539 L27.2334976,10.0219189 L27.7349076,9.24357711 L28.6457931,9.07775648 L28.0513205,8.31633516 L28.1376149,7.37386474 L27.2695946,7.68181739 L26.4122906,7.26500973 L26.4698202,8.21706838 L25.8527869,8.90178353 L25.8527869,8.90121952 Z M14.5228377,8.13810618 L14.7100909,9.04053142 L15.4709482,8.47764365 L16.4297751,8.59101084 L16.0986978,7.72637462 L16.5047892,6.89388731 L15.5391941,6.92208809 L14.8307903,6.29490254 L14.5645748,7.17645925 L13.7213712,7.62146769 L14.5228377,8.13810618 L14.5228377,8.13810618 Z M19.8138698,33.1127255 L18.8787316,33.2142483 L18.1161823,32.6344401 L17.961642,33.5441975 L17.1928884,34.0557598 L18.0327079,34.5165608 L18.320356,35.4133459 L18.9943549,34.7878524 L19.9407733,34.8295895 L19.5171975,33.9835658 L19.8138698,33.1132895 L19.8138698,33.1127255 Z M14.036092,31.3005427 L13.1381789,31.024175 L12.6672257,30.1883036 L12.1675077,30.9649533 L11.2616984,31.132466 L11.8505308,31.8888112 L11.7625444,32.8278975 L12.6260525,32.5188168 L13.4771524,32.9322404 L13.4218788,31.9841299 L14.036092,31.3005427 L14.036092,31.3005427 Z M8.69599051,26.5870627 L8.50196909,25.6474124 L7.78961713,26.2351169 L6.87591155,26.1189296 L7.2064248,27.0190988 L6.83586642,27.8865551 L7.75295609,27.8544062 L8.43823527,28.5069725 L8.67399388,27.5876268 L9.46700011,27.1234418 L8.69599051,26.5870627 Z M30.7659285,3.20917217 C21.5521665,-2.77447139 9.18950431,-0.147285836 3.20755285,9.06478412 C-2.77439865,18.27629 -0.146085078,30.6383882 9.06654888,36.6214677 C18.2797469,42.6045472 30.641281,39.9773617 36.6237965,30.7652917 C42.606312,21.5537858 39.9779984,9.19168767 30.7648004,3.20860812 L30.7659285,3.20917217 Z M9.78679706,35.5126126 C1.18612023,29.9266002 -1.26734848,18.3845811 4.31753592,9.78503226 C9.90242028,1.18491947 21.4438755,-1.26798519 30.0451163,4.31802718 C38.6463571,9.90347559 41.1003899,21.4449307 35.5155055,30.0450436 C29.9300571,38.6451563 18.3886019,41.098061 9.78736107,35.5126126 L9.78679706,35.5126126 Z M29.0135314,5.90573165 C21.2882071,0.888811166 10.9221608,3.09129284 5.90524035,10.8166172 C0.88888391,18.5413775 3.09305761,28.9074237 10.8183819,33.9243442 C18.5442703,38.9412646 28.9103165,36.738783 33.927237,29.0140227 C38.9435934,21.2892624 36.7394197,10.9232161 29.0140954,5.90629566 L29.0135314,5.90573165 Z M26.4004463,32.7150943 L26.1539713,31.8324096 L25.4376713,32.4471868 L24.4799725,32.4043216 L24.8663233,33.239065 L24.5205816,34.096369 L25.4754603,33.9971022 L26.212629,34.5633741 C21.4827925,36.5870627 15.8595551,36.2971586 11.2301134,33.2903904 C3.85335091,28.5007683 1.749572,18.6034192 6.53919411,11.2283487 C11.3288162,3.85327817 21.2267294,1.74949926 28.6029279,6.53968541 C35.9791264,11.3298715 38.0834693,21.2272207 33.2938473,28.6028552 C31.5808825,31.2467286 29.1191911,33.3204243 26.2227813,34.559426 L26.4241349,33.6739212 L27.2289854,33.1713831 L26.3998822,32.7156583 L26.4010103,32.7156583 L26.4004463,32.7150943 Z M29.7873611,16.7726239 C29.0593954,14.4916076 27.5651249,12.5324574 25.5578067,11.2272207 C21.391986,8.52163691 15.8770396,9.15615468 12.4444395,12.7359629 L12.9215968,13.1939437 C16.1347948,9.84312593 21.2977954,9.2492173 25.1974006,11.7816482 C27.0764273,13.0035974 28.4752282,14.8375807 29.1567914,16.9728495 L29.7873611,16.7726239 L29.7873611,16.7726239 Z M14.6345128,28.0484276 C12.755454,26.826513 11.3566434,24.9925169 10.6751219,22.8572263 L10.0445523,23.0580159 C10.7726626,25.339117 12.2671411,27.2982787 14.2746707,28.6034192 C18.4404913,31.3090029 23.9560018,30.6733572 27.3880379,27.0941129 L26.9108805,26.6366961 C23.6971186,29.9869499 18.534682,30.5814226 14.6345128,28.0484276 L14.6345128,28.0484276 Z" id="形状" fill-rule="nonzero"></path>
                <text id="已取消" transform="translate(20.500000, 19.500000) rotate(13.000000) translate(-20.500000, -19.500000) " font-family="PingFangSC-Regular, PingFang SC" font-size="9" font-weight="normal">
                    <tspan x="7" y="23">已取消</tspan>
                </text>
            </g>
        </g>
    </g>
</svg>