<?xml version="1.0" encoding="UTF-8"?>
<svg width="42px" height="42px" viewBox="0 0 42 42" version="1.1" xmlns="http://www.w3.org/2000/svg" xmlns:xlink="http://www.w3.org/1999/xlink">
    <title>编组_14_slice</title>
    <g id="医生端" stroke="none" stroke-width="1" fill="none" fill-rule="evenodd">
        <g id="画板" transform="translate(-226.000000, -66.000000)" fill="#06B48D">
            <g id="编组-14" transform="translate(226.000000, 66.000000)">
                <rect id="矩形" opacity="0.112002418" x="0" y="0" width="42" height="42" rx="8"></rect>
                <path d="M23.1908571,15.9867456 L25.6682286,15.9867456 C25.9539625,15.990175 26.2194713,15.8397028 26.3633374,15.5928057 C26.5072035,15.3459086 26.5072035,15.0407254 26.3633374,14.7938283 C26.2194713,14.5469312 25.9539625,14.3964591 25.6682286,14.3998885 L23.1908571,14.3998885 C22.9051232,14.3964591 22.6396144,14.5469312 22.4957483,14.7938283 C22.3518823,15.0407254 22.3518823,15.3459086 22.4957483,15.5928057 C22.6396144,15.8397028 22.9051232,15.990175 23.1908571,15.9867456 Z M29.2572571,17.5400027 L29.2572571,12.9558885 C29.2534771,11.8737264 28.3745108,10.9987989 27.2923429,11.0000014 L13.8504,11.0000014 C12.7681874,10.9987359 11.8891516,11.8736817 11.8853714,12.9558885 L11.8853714,14.5867456 C11.3426755,14.867595 11.0013684,15.427115 11,16.0381742 L11,28.332917 C11.0031498,29.2393471 11.7392791,29.9722558 12.6457143,29.971432 L28.5542857,29.971432 C29.4607209,29.9722558 30.1968502,29.2393471 30.2,28.332917 L30.2,19.0186313 C30.198105,18.3849259 29.8309834,17.8091204 29.2572571,17.5400027 Z M27.0251429,13.221717 L27.0251429,17.3806885 L22.76,17.3806885 L20.0454857,14.3997742 L14.1174857,14.3997742 L14.1174857,13.221717 L27.0251429,13.221717 Z M22.1286857,23.764117 L20.0814857,23.764117 L20.0814857,25.8019456 C20.0814857,26.242227 19.7245671,26.5991456 19.2842857,26.5991456 C18.8440043,26.5991456 18.4870857,26.242227 18.4870857,25.8019456 L18.4870857,23.764117 L16.44,23.764117 C16.1542661,23.7675464 15.8887573,23.6170743 15.7448912,23.3701772 C15.6010251,23.1232801 15.6010251,22.8180969 15.7448912,22.5711998 C15.8887573,22.3243027 16.1542661,22.1738305 16.44,22.1772599 L18.4870857,22.1772599 L18.4870857,20.1396599 C18.4870857,19.6993785 18.8440043,19.3424599 19.2842857,19.3424599 C19.7245671,19.3424599 20.0814857,19.6993785 20.0814857,20.1396599 L20.0814857,22.1771456 L22.1286857,22.1771456 C22.4121709,22.1771456 22.674122,22.3283831 22.8158645,22.5738884 C22.9576071,22.8193938 22.9576071,23.1218688 22.8158645,23.3673742 C22.674122,23.6128795 22.4121709,23.764117 22.1286857,23.764117 L22.1286857,23.764117 Z" id="形状" fill-rule="nonzero"></path>
            </g>
        </g>
    </g>
</svg>