<?xml version="1.0" encoding="UTF-8"?>
<svg width="16px" height="16px" viewBox="0 0 16 16" version="1.1" xmlns="http://www.w3.org/2000/svg" xmlns:xlink="http://www.w3.org/1999/xlink">
    <!-- Generator: Sketch 60.1 (88133) - https://sketch.com -->
    <title>形状_2备份_slice</title>
    <desc>Created with Sketch.</desc>
    <g id="页面-1" stroke="none" stroke-width="1" fill="none" fill-rule="evenodd">
        <g id="画板" transform="translate(-16.000000, -294.000000)" fill="#06B48D" fill-rule="nonzero">
            <g id="形状-2备份" transform="translate(16.000000, 294.000000)">
                <path d="M7.98836364,0 C3.58436364,0 0,3.584 0,7.98836363 C0,12.3927273 3.584,15.9770909 7.98836364,15.9770909 C12.3927273,15.9770909 15.9770909,12.3930909 15.9770909,7.98836362 C15.9767273,3.584 12.3927273,0 7.98836364,0 Z M12.4585455,6.45672727 L7.26254545,11.7829091 C7.13800558,11.9099468 6.96771861,11.9817293 6.78981817,11.9821822 L6.78618181,11.9821822 C6.60979701,11.9823737 6.44055147,11.9125305 6.31563636,11.788 L3.52327272,8.99381817 C3.39827644,8.86905407 3.32803471,8.69969823 3.32803471,8.5230909 C3.32803471,8.34648357 3.39827644,8.17712772 3.52327272,8.05236363 C3.64803682,7.92736735 3.81739266,7.85712562 3.99399999,7.85712562 C4.17060732,7.85712562 4.33996317,7.92736735 4.46472727,8.05236363 L6.78290909,10.3687273 L11.5065455,5.524 C11.7637791,5.26164524 12.1847562,5.25676717 12.448,5.51309091 C12.7105064,5.77117643 12.7152187,6.19283974 12.4585455,6.45672727 L12.4585455,6.45672727 Z" id="形状"></path>
            </g>
        </g>
    </g>
</svg>