<?xml version="1.0" encoding="UTF-8"?>
<svg width="14px" height="14px" viewBox="0 0 14 14" version="1.1" xmlns="http://www.w3.org/2000/svg" xmlns:xlink="http://www.w3.org/1999/xlink">
    <title>路径_slice</title>
    <g id="医生端" stroke="none" stroke-width="1" fill="none" fill-rule="evenodd">
        <g id="画板" transform="translate(-345.000000, -209.000000)" fill="#999999" fill-rule="nonzero">
            <path d="M352.989297,215.970913 L358.7933,210.196958 C359.067744,209.92388 359.069131,209.481376 358.796053,209.206932 C358.522355,208.931869 358.08062,208.9311 357.806176,209.204179 L352.000679,214.978752 L346.245739,209.206291 C345.973322,208.933234 345.530199,208.931847 345.255755,209.204904 C344.981951,209.477961 344.98129,209.921105 345.254368,210.195549 L351.007921,215.966623 L345.206714,221.737057 C344.932248,222.010135 344.930882,222.452596 345.203918,222.727083 C345.340436,222.864348 345.52034,222.933557 345.700244,222.933557 C345.878782,222.933557 346.057384,222.865735 346.193923,222.729836 L351.996517,216.958015 L357.804042,222.783039 C357.940559,222.920325 358.119844,222.988915 358.299727,222.988915 C358.478969,222.988915 358.657507,222.920325 358.794025,222.784426 C359.067722,222.511369 359.068469,222.068994 358.795412,221.794549 L352.989297,215.970913 L352.989297,215.970913 Z" id="路径"></path>
        </g>
    </g>
</svg>