<?xml version="1.0" encoding="UTF-8"?>
<svg width="20px" height="20px" viewBox="0 0 20 20" version="1.1" xmlns="http://www.w3.org/2000/svg" xmlns:xlink="http://www.w3.org/1999/xlink">
    <title>编组_3_slice</title>
    <g id="医生端/药师端" stroke="none" stroke-width="1" fill="none" fill-rule="evenodd">
        <g id="画板" transform="translate(-339.000000, -346.000000)">
            <g id="编组-3" transform="translate(339.000000, 345.500000)">
                <path d="M9.72972973,3.5 C5.47297297,3.5 1.37837838,6.19594595 1.47437618e-13,9.98648649 C1.37837838,13.777027 5.47297297,16.472973 9.72972973,16.472973 C13.9662162,16.472973 18.1013514,13.777027 19.4797297,9.98648649 C18.0810811,6.19594595 13.9662162,3.5 9.72972973,3.5 Z M9.72972973,14.0405405 C7.5,14.0405405 5.67567568,12.2162162 5.67567568,9.98648649 C5.67567568,7.75675676 7.5,5.93243243 9.72972973,5.93243243 C11.9594595,5.93243243 13.7837838,7.75675676 13.7837838,9.98648649 C13.7837838,12.2162162 11.9594595,14.0405405 9.72972973,14.0405405 Z M12.1621622,9.98648649 C12.1621622,11.3243243 11.0675676,12.4189189 9.72972973,12.4189189 C8.39189189,12.4189189 7.2972973,11.3243243 7.2972973,9.98648649 C7.2972973,8.64864865 8.39189189,7.55405405 9.72972973,7.55405405 C11.0675676,7.55405405 12.1621622,8.64864865 12.1621622,9.98648649 Z" id="形状" fill="#999999" fill-rule="nonzero"></path>
                <line x1="15.5" y1="1" x2="4.5" y2="19" id="直线-3" stroke="#999999" stroke-width="1.6" stroke-linecap="square"></line>
                <line x1="14" y1="0.5" x2="3" y2="18.5" id="直线-3备份" stroke="#FFFFFF" stroke-width="1.6" stroke-linecap="square"></line>
            </g>
        </g>
    </g>
</svg>