<?xml version="1.0" encoding="UTF-8"?>
<svg width="44px" height="44px" viewBox="0 0 44 44" version="1.1" xmlns="http://www.w3.org/2000/svg" xmlns:xlink="http://www.w3.org/1999/xlink">
    <title>编组_32备份_slice</title>
    <g id="医生端" stroke="none" stroke-width="1" fill="none" fill-rule="evenodd">
        <g id="画板" transform="translate(-166.000000, -721.000000)" fill-rule="nonzero">
            <g id="编组-32备份" transform="translate(166.000000, 721.000000)">
                <path d="M22.0002193,3.55271368e-15 C9.84996411,3.55271368e-15 0,9.84949946 0,21.9996711 C0,34.1498428 9.84996411,44 22.0002193,44 C34.1506936,44 44,34.1496235 44,21.9996711 C44,9.84971873 34.1504744,3.55271368e-15 22.0002193,3.55271368e-15 Z" id="路径" fill="#D94A49"></path>
                <g id="编组-9" transform="translate(9.000000, 9.000000)" fill="#FFFFFF" stroke="#D94A49">
                    <path d="M10.8128413,1.80206554 C10.8128413,1.31402101 10.9863686,0.891740101 11.3337806,0.535044081 C11.6811926,0.178348027 12.0984801,-6.33853123e-13 12.5865368,-6.33853123e-13 C13.0937155,-6.33853123e-13 13.5208321,0.178348027 13.8677079,0.535044046 C14.2152987,0.891740066 14.3888259,1.31402101 14.3888259,1.80206551 L14.3888259,12.5018742 C14.3888259,12.9899188 14.2152987,13.407732 13.8677079,13.7551354 C13.5204746,14.10236 13.093358,14.275883 12.5865368,14.275883 C12.0984801,14.275883 11.6808352,14.10236 11.3337806,13.7551354 C10.9863686,13.407732 10.8128413,12.9900974 10.8128413,12.5018742 L10.8128413,1.80206554 Z" id="路径"></path>
                    <path d="M24.2016067,19.1050398 C23.535555,20.634937 22.6341424,21.967722 21.4984411,23.103395 C20.3627398,24.239068 19.0297428,25.1402795 17.4999862,25.8064933 C15.9702297,26.4727071 14.3325323,26.805814 12.5865368,26.805814 C10.859842,26.805814 9.23108012,26.4727071 7.70132356,25.8061359 C6.17138829,25.1401008 4.83392355,24.2387106 3.68875062,23.1030376 C2.54375642,21.9673646 1.64270122,20.6344008 0.985584979,19.1046824 C0.328468741,17.5749639 -3.18519157e-15,15.93695 -3.18519157e-15,14.1911766 C-3.18519157e-15,13.1965023 0.117233679,12.2200558 0.352058447,11.2629095 C0.586704528,10.3055846 0.919641041,9.39525912 1.35176153,8.5319332 C1.7835246,7.66824988 2.31840326,6.86103745 2.95675497,6.11047466 C3.59492796,5.35955447 4.30833778,4.68369055 5.09662707,4.08288289 C5.50998304,3.78265776 5.95550677,3.67007334 6.43427054,3.74512964 C6.9130343,3.82018591 7.30226443,4.05500486 7.602497,4.44905031 C7.9029083,4.84327448 8.01585296,5.28449817 7.94079479,5.7725427 C7.86555794,6.26058722 7.63091185,6.65499011 7.23667786,6.95503652 C6.05379717,7.81836244 5.14827419,8.87897913 4.51939412,10.1367079 C3.89051404,11.3944367 3.57580596,12.7459859 3.57580596,14.1913554 C3.57580596,15.4304988 3.81063073,16.5986962 4.27992289,17.696841 C4.74921502,18.7949859 5.39221319,19.7524895 6.20873862,20.5688159 C7.02544277,21.385321 7.98261289,22.0331282 9.08078509,22.5115226 C10.1789573,22.9904532 11.3471838,23.2297397 12.5861794,23.2297397 C13.8253537,23.2297397 14.9939376,22.9904532 16.0917524,22.5115226 C17.1899246,22.0327708 18.1474521,21.385321 18.9637989,20.5688159 C19.780503,19.7523109 20.4281476,18.7949859 20.906554,17.696841 C21.3854965,16.5986962 21.624789,15.4304988 21.624789,14.1913554 C21.624789,12.7270431 21.2868486,11.3427908 20.6111465,10.0382412 C19.9354445,8.73369163 18.9873886,7.65895719 17.7673362,6.81421664 C17.3539803,6.53275561 17.1053948,6.14782409 17.0210438,5.65995828 C16.936514,5.17173507 17.0351618,4.72121866 17.3166299,4.30823043 C17.5982767,3.91400626 17.9830391,3.67471969 18.4710957,3.59019202 C18.9596885,3.50548563 19.4102161,3.60430973 19.8232146,3.8857708 C20.6677976,4.48639974 21.4189152,5.16691001 22.0758527,5.9273016 C22.7327902,6.6876932 23.2960838,7.50884462 23.7653759,8.39111332 C24.234668,9.27356073 24.5911942,10.2072966 24.8351332,11.1926783 C25.0792509,12.1782387 25.2013098,13.1777382 25.2013098,14.1913554 C25.2013098,15.9371287 24.8681946,17.5749639 24.2016067,19.1050398 Z" id="路径"></path>
                </g>
            </g>
        </g>
    </g>
</svg>