<?xml version="1.0" encoding="UTF-8"?>
<svg width="22px" height="10px" viewBox="0 0 22 10" version="1.1" xmlns="http://www.w3.org/2000/svg" xmlns:xlink="http://www.w3.org/1999/xlink">
    <title>路径_slice</title>
    <g id="医生端/药师端" stroke="none" stroke-width="1" fill="none" fill-rule="evenodd">
        <g id="画板" transform="translate(-337.000000, -137.000000)" fill="#999999" fill-rule="nonzero">
            <path d="M358.418765,137.274358 C358.71504,137.610135 358.683038,138.122516 358.347262,138.418792 C357.363268,139.287017 356.349578,140.023258 355.307053,140.626754 L356.678082,144.282874 C356.835329,144.702164 356.622897,145.16952 356.203607,145.326767 C355.808995,145.47474 355.371766,145.295272 355.190601,144.924073 L355.159714,144.852265 L353.854816,141.37313 C352.17948,142.127969 350.434211,142.555874 348.622102,142.653855 L348.62162,146.18919 C348.62162,146.636985 348.258605,147 347.81081,147 C347.389341,147 347.042998,146.678463 347.003699,146.267281 L347,146.18919 L347.000051,142.653881 C345.187763,142.55595 343.442292,142.128045 341.766829,141.37313 L340.461906,144.852265 C340.30466,145.271556 339.837304,145.483988 339.418014,145.326767 C339.023402,145.178794 338.812009,144.756083 338.919593,144.357291 L338.943512,144.282874 L340.314567,140.626754 C339.272042,140.023258 338.258353,139.287017 337.274358,138.418817 C336.938582,138.122516 336.90658,137.610135 337.202855,137.274358 C337.499105,136.938582 338.011486,136.90658 338.347263,137.202855 C339.394348,138.126723 340.470394,138.883259 341.576745,139.473681 C341.587387,139.476215 341.598231,139.480015 341.609025,139.484069 C341.682718,139.511627 341.752008,139.549764 341.814718,139.597279 C343.721489,140.570656 345.718033,141.054051 347.81081,141.054051 C349.903587,141.054051 351.900131,140.570656 353.807105,139.59776 C353.86958,139.549875 353.938836,139.511558 354.012595,139.484069 L354.044343,139.47396 C355.150871,138.883512 356.22712,138.126875 357.274357,137.202855 C357.610134,136.90658 358.122515,136.938582 358.418765,137.274358 L358.418765,137.274358 Z" id="路径"></path>
        </g>
    </g>
</svg>