<?xml version="1.0" encoding="UTF-8"?>
<svg width="42px" height="42px" viewBox="0 0 42 42" version="1.1" xmlns="http://www.w3.org/2000/svg" xmlns:xlink="http://www.w3.org/1999/xlink">
    <!-- Generator: Sketch 60.1 (88133) - https://sketch.com -->
    <title>编组_7_slice</title>
    <desc>Created with Sketch.</desc>
    <g id="医生端/药师端" stroke="none" stroke-width="1" fill="none" fill-rule="evenodd">
        <g id="画板" transform="translate(-292.000000, -66.000000)" fill="#06B48D">
            <g id="编组-7" transform="translate(292.000000, 66.000000)">
                <rect id="矩形备份-18" opacity="0.112002418" x="0" y="0" width="42" height="42" rx="8"></rect>
                <path d="M21.5,33 C15.149,33 10,27.851 10,21.5 C10,15.149 15.149,10 21.5,10 C27.851,10 33,15.149 33,21.5 C33,27.851 27.851,33 21.5,33 Z M21.019,22.048 L21.019,23.088 L16.95,23.088 L16.95,26.702 L17.873,26.702 L17.873,23.946 L21.019,23.946 L21.019,27.326 L21.981,27.326 L21.981,23.946 L25.192,23.946 L25.192,25.246 C25.192,25.584 24.997,25.766 24.633,25.766 L23.645,25.727 L23.892,26.624 L24.932,26.624 C25.712,26.624 26.115,26.234 26.115,25.454 L26.115,23.088 L21.981,23.088 L21.981,22.048 L24.867,22.048 L24.867,19.188 L18.159,19.188 L18.159,22.048 L21.019,22.048 Z M21.019,15.314 L21.019,17.303 L19.134,17.303 C18.8906015,16.6986913 18.5810494,16.1231859 18.211,15.587 L17.327,15.912 C17.665,16.341 17.964,16.809 18.211,17.303 L16.092,17.303 L16.092,19.942 L17.054,19.942 L17.054,18.187 L25.946,18.187 L25.946,19.929 L26.908,19.929 L26.908,17.303 L24.62,17.303 C24.932,16.887 25.244,16.393 25.543,15.821 L24.672,15.496 C24.3841317,16.1303157 24.0358581,16.735441 23.632,17.303 L21.981,17.303 L21.981,15.314 L21.019,15.314 Z M23.97,21.255 L19.069,21.255 L19.069,19.981 L23.97,19.981 L23.97,21.255 Z" id="形状" fill-rule="nonzero"></path>
            </g>
        </g>
    </g>
</svg>