<?xml version="1.0" encoding="UTF-8"?>
<svg width="18px" height="18px" viewBox="0 0 18 18" version="1.1" xmlns="http://www.w3.org/2000/svg" xmlns:xlink="http://www.w3.org/1999/xlink">
    <title>形状_2备份_slice</title>
    <g id="医生端" stroke="none" stroke-width="1" fill="none" fill-rule="evenodd">
        <g id="画板" transform="translate(-281.000000, -106.000000)" fill="#CCCCCC" fill-rule="nonzero">
            <g id="形状-2备份" transform="translate(281.000000, 106.000000)">
                <path d="M8.97606383,1.23812072e-12 C4.0212766,1.23812072e-12 -1.26121336e-13,4.0212766 -1.26121336e-13,8.97606383 C-1.26121336e-13,13.9308511 4.0212766,17.9521277 8.97606383,17.9521277 C13.9308511,17.9521277 17.9521277,13.9308511 17.9521277,8.97606383 C17.9521277,4.0212766 13.9308511,1.23812072e-12 8.97606383,1.23812072e-12 Z M12.9973404,12.9853723 C12.7579787,13.224734 12.375,13.224734 12.1476064,12.9853723 L8.94015957,9.75398936 L5.68484043,12.9734043 C5.44547872,13.212766 5.0625,13.212766 4.8231383,12.9734043 C4.5837766,12.7340426 4.5837766,12.3510638 4.8231383,12.1236702 L8.09042553,8.89228723 L5.00265957,5.80452128 C4.76329787,5.56515957 4.76329787,5.18218085 5.00265957,4.95478723 C5.24202128,4.71542553 5.625,4.71542553 5.85239362,4.95478723 L8.94015957,8.05452128 L12.0757979,4.95478723 C12.3151596,4.71542553 12.6981383,4.71542553 12.9375,4.95478723 C13.1768617,5.19414894 13.1768617,5.57712766 12.9375,5.80452128 L9.78989362,8.9162234 L12.9853723,12.1356383 C13.224734,12.3630319 13.224734,12.7460106 12.9973404,12.9853723 L12.9973404,12.9853723 Z" id="形状"></path>
            </g>
        </g>
    </g>
</svg>