<?xml version="1.0" encoding="UTF-8"?>
<svg width="80px" height="80px" viewBox="0 0 80 80" version="1.1" xmlns="http://www.w3.org/2000/svg" xmlns:xlink="http://www.w3.org/1999/xlink">
    <title>编组_4_slice</title>
    <g id="医生端" stroke="none" stroke-width="1" fill="none" fill-rule="evenodd">
        <g id="画板" transform="translate(-61.000000, -383.000000)" fill-rule="nonzero">
            <g id="编组-4" transform="translate(61.000000, 383.000000)">
                <path d="M0,40 C0,62.09139 17.90861,80 40,80 C62.09139,80 80,62.09139 80,40 C80,17.90861 62.09139,0 40,0 C17.90861,0 0,17.90861 0,40 Z" id="路径" fill="#FF3131" opacity="0.75"></path>
                <path d="M32.9706666,55.7351111 L49.6871111,56.1688889 L71.0097778,64.0693334 L71.1946666,65.0293334 C64.4835555,73.3813333 54.4906667,78.9742222 43.1733334,79.8631111 C42.1848889,79.9253333 41.1982222,79.9911111 40.1955555,79.9946666 C40.1315556,79.9946666 40.0675556,80 40.0017778,80 C27.7706666,80 16.8266666,74.5048889 9.49155555,65.8542222 C9.73897333,65.3062892 9.71598486,65.3567108 9.8679846,64.9702977 C9.8679846,64.9702977 13.6051689,63.4763762 21.0795374,60.4885331 L21.8145299,60.1947234 C22.3123027,59.9957411 22.8256308,59.7905406 23.3545143,59.579122 L24.1595061,59.2573303 C24.703945,59.0396935 25.2639394,58.8158384 25.8394891,58.5857652 L26.7144802,58.2359917 C27.3055853,57.9997003 27.9122458,57.7571906 28.5344617,57.5084628 L29.4794521,57.1307074 C30.1172234,56.8757614 30.7705501,56.6145972 31.4394322,56.3472147 L32.4544219,55.9414775 L32.4544219,55.9414775 L32.9706666,55.7351111 Z M52.9663057,68.0879396 L51.3581821,69.8740746 C50.9316129,70.3477433 50.7106843,70.9714687 50.744,71.6080324 C50.7773157,72.244596 51.0621466,72.8418515 51.5358305,73.2684038 L51.535397,73.2681114 C52.0090657,73.6946806 52.632791,73.9156092 53.2693547,73.8822935 C53.9059184,73.8489778 54.5031739,73.5641468 54.9297262,73.090463 L56.5378498,71.304328 L52.9663057,68.0879396 Z M56.7291396,64.9603692 C56.0925759,64.993685 55.4953204,65.2785159 55.0687681,65.7521998 L53.4610075,67.5382642 L57.0329146,70.754582 L58.6407458,68.9688805 C59.0673149,68.4952118 59.2882436,67.8714865 59.2549278,67.2349228 C59.2216121,66.5983591 58.9367812,66.0011036 58.4630973,65.5745513 C57.9894286,65.1479822 57.3657033,64.9270535 56.7291396,64.9603692 Z" id="形状结合" fill="#FFFFFF"></path>
                <path d="M32.9688889,48.8231111 C33.0506667,52.0088889 33.0933334,54.3111111 33.0933334,55.7315555 C33.9271112,57.6355555 35.7688889,59.7635555 38.6044445,62.112 C43.1253334,62.4462222 46.2577778,61.3315555 47.9982222,58.7626666 C48.6115555,57.8631111 49.1697777,56.9991111 49.6835555,56.1688889 L49.6835555,46.2595555 L32.9688889,48.8231111 L32.9688889,48.8231111 Z" id="路径" fill="#EEC4A2"></path>
                <path d="M33.0951111,55.7315555 C35.168,59.4364445 37.7386666,61.2906666 40.8035555,61.2906666 C43.8737777,61.2906666 46.8355555,59.5786666 49.6853334,56.1653334 L43.0506666,77.7973334 L38.3075555,77.7973334 L33.0951111,55.7315555 L33.0951111,55.7315555 Z" id="路径" fill="#5AA38B"></path>
                <path d="M25.2035555,30.7982222 C23.3848889,30.9084444 22.7786666,32.7182222 23.3848889,36.224 C24.2915555,41.4791111 24.9066667,41.2586666 26.1635555,41.2586666 C27.4275555,41.2586666 30.0622222,55.1448889 40.5422222,55.1448889 C46.1884444,55.1448889 50.7697777,50.512 54.2666666,41.2586666 C55.1075555,41.232 55.696,41.1128888 56.0337778,40.8853334 C57.0702223,40.2026667 57.2284445,38.6666667 57.6995555,36.6435555 C58.7537777,32.1102222 56.8871111,30.2951111 54.7928889,32.8 L56.0337778,24.6755555 L35.8115555,19.4364445 L28.7377778,20.5457778 L25.2035555,30.7982222 L25.2035555,30.7982222 Z" id="路径" fill="#FDD1AC"></path>
                <path d="M31.0311111,12.6951111 C26.1422222,14.2773333 23.6942222,18.7982222 23.6942222,26.2506666 C23.6942222,29.2764445 25.2497777,33.168 26.816,34.8195555 C27.824,35.8826666 26.4337778,31.1342222 26.4088889,30.512 C26.1831111,24.8515555 28.1848889,22.6097778 32.0426666,21.28 C38.4711111,19.0595555 53.0613333,23.2515555 53.8471111,26.5404445 C54.4586666,29.1075555 52.7324445,35.6871111 53.6142222,35.8791111 C54.0071111,35.9644445 54.9102222,33.312 55.1448889,32.8924445 C56.8995555,29.7813334 59.2071111,28.7697778 56.3946666,21.0364445 C54.1688888,14.9422223 45.7173333,12.1617778 31.0311111,12.6951111 L31.0311111,12.6951111 Z" id="路径" fill="#2E323A"></path>
                <path d="M30.4337778,13.936 C28.4053334,18.832 34.8888889,27.1128889 45.1306666,27.1128889 C51.9484445,27.1128889 56.4568888,22.9831111 58.6453334,14.7182222 C54.6311112,14.8533333 50.9688889,13.6284444 47.648,11.0524445 C41.1537778,6.00355555 32.0337778,10.0764445 30.4337778,13.936 Z" id="路径" fill="#424650"></path>
            </g>
        </g>
    </g>
</svg>