<?xml version="1.0" encoding="UTF-8"?>
<svg width="180px" height="105px" viewBox="0 0 180 105" version="1.1" xmlns="http://www.w3.org/2000/svg" xmlns:xlink="http://www.w3.org/1999/xlink">
    <title>暂无数据_(2)_slice</title>
    <defs>
        <linearGradient x1="49.9990463%" y1="99.998969%" x2="49.9990463%" y2="-0.000441852245%" id="linearGradient-1">
            <stop stop-color="#FFFFFF" stop-opacity="0.5" offset="16.26%"></stop>
            <stop stop-color="#C6C6C6" stop-opacity="0.8" offset="100%"></stop>
        </linearGradient>
        <linearGradient x1="50.0006463%" y1="100.000183%" x2="50.0006463%" y2="-0.00146386093%" id="linearGradient-2">
            <stop stop-color="#FFFFFF" stop-opacity="0.5" offset="16.26%"></stop>
            <stop stop-color="#C6C6C6" stop-opacity="0.8" offset="100%"></stop>
        </linearGradient>
        <linearGradient x1="49.9999866%" y1="99.9998974%" x2="49.9999866%" y2="-0.000102564103%" id="linearGradient-3">
            <stop stop-color="#FFFFFF" stop-opacity="0.5" offset="16.26%"></stop>
            <stop stop-color="#C6C6C6" stop-opacity="0.8" offset="100%"></stop>
        </linearGradient>
        <linearGradient x1="50.0001221%" y1="0.000265199231%" x2="50.0001221%" y2="99.9984088%" id="linearGradient-4">
            <stop stop-color="#F1F0F5" offset="16.26%"></stop>
            <stop stop-color="#C5C9D2" offset="100%"></stop>
        </linearGradient>
        <linearGradient x1="50.0007338%" y1="0.000397798846%" x2="50.0007338%" y2="99.9985414%" id="linearGradient-5">
            <stop stop-color="#F1F0F5" offset="16.26%"></stop>
            <stop stop-color="#C5C9D2" offset="100%"></stop>
        </linearGradient>
        <linearGradient x1="50.0011682%" y1="-0.00151960288%" x2="50.0011682%" y2="99.9994935%" id="linearGradient-6">
            <stop stop-color="#F1F0F5" offset="16.26%"></stop>
            <stop stop-color="#C5C9D2" offset="100%"></stop>
        </linearGradient>
        <linearGradient x1="49.9994959%" y1="99.9993577%" x2="49.9994959%" y2="-0.000570890303%" id="linearGradient-7">
            <stop stop-color="#FFFFFF" stop-opacity="0.5" offset="16.26%"></stop>
            <stop stop-color="#C6C6C6" stop-opacity="0.8" offset="100%"></stop>
        </linearGradient>
        <linearGradient x1="50.0001953%" y1="99.9991705%" x2="50.0001953%" y2="0.000331801516%" id="linearGradient-8">
            <stop stop-color="#FFFFFF" stop-opacity="0.5" offset="16.26%"></stop>
            <stop stop-color="#C6C6C6" stop-opacity="0.8" offset="100%"></stop>
        </linearGradient>
        <linearGradient x1="50%" y1="-0.000102390302%" x2="50%" y2="99.9996416%" id="linearGradient-9">
            <stop stop-color="#DDDDDD" offset="16.26%"></stop>
            <stop stop-color="#C6C6C6" offset="100%"></stop>
        </linearGradient>
        <linearGradient x1="50%" y1="-0.000102390302%" x2="50%" y2="99.9996416%" id="linearGradient-10">
            <stop stop-color="#DDDDDD" offset="16.26%"></stop>
            <stop stop-color="#C6C6C6" offset="100%"></stop>
        </linearGradient>
        <linearGradient x1="50%" y1="-0.000169491525%" x2="50%" y2="99.9994068%" id="linearGradient-11">
            <stop stop-color="#DDDDDD" offset="16.26%"></stop>
            <stop stop-color="#C6C6C6" offset="100%"></stop>
        </linearGradient>
    </defs>
    <g id="医生端/药师端" stroke="none" stroke-width="1" fill="none" fill-rule="evenodd">
        <g id="暂无数据-(2)">
            <path d="M176.27722,57.8474131 L174.10749,57.8474131 C174.10749,53.5042471 170.586718,49.9832432 166.24332,49.9832432 C161.899923,49.9832432 158.378919,53.5042471 158.378919,57.8474131 L156.794363,57.8474131 C154.796062,57.8474131 153.176293,59.6080309 153.176293,61.7800772 C153.176293,63.9514286 154.796062,65.7120463 156.794363,65.7120463 L176.277452,65.7120463 C178.275753,65.7120463 179.895521,63.9514286 179.895521,61.7800772 C179.895521,59.6080309 178.275521,57.8474131 176.27722,57.8474131 Z" id="路径" fill="url(#linearGradient-1)" fill-rule="nonzero"></path>
            <path d="M25.4219305,56.3135907 L23.675444,56.3135907 C23.675444,52.8176062 20.8413127,49.9834749 17.3453282,49.9834749 C13.8493436,49.9834749 11.0152124,52.8176062 11.0152124,56.3135907 L9.7392278,56.3135907 C8.13104247,56.3135907 6.82725869,57.7306564 6.82725869,59.4787645 C6.82725869,61.2266409 8.13104247,62.6437066 9.7392278,62.6437066 L25.4219305,62.6437066 C27.0303475,62.6437066 28.3341313,61.2266409 28.3341313,59.4787645 C28.3343629,57.7306564 27.0305792,56.3135907 25.4219305,56.3135907 Z" id="路径" fill="url(#linearGradient-2)" fill-rule="nonzero"></path>
            <path d="M86.4875676,59.9057143 C38.7650965,59.9057143 0.0783011583,80.1308108 0.0783011583,105.079459 L172.896834,105.079459 C172.896834,80.1305792 134.210039,59.9057143 86.4875676,59.9057143 Z" id="路径" fill="url(#linearGradient-3)" fill-rule="nonzero"></path>
            <path d="M39.2242471,60.6634749 C39.4345946,60.0189961 39.5494981,59.3316602 39.5494981,58.6169884 C39.5494981,54.9759846 36.5981467,52.0246332 32.9573745,52.0246332 C29.4215444,52.0246332 26.5364479,54.8082625 26.3728958,58.3035521 C23.7206178,58.5553668 21.6451737,60.8117375 21.6451737,63.5592278 C21.6451737,66.4749035 23.9830888,68.8389961 26.867027,68.8389961 C28.4821622,68.8389961 29.9256371,68.0969884 30.8835521,66.9324324 C31.7965251,68.4678764 33.4600772,69.4952896 35.3610811,69.4952896 C38.2447876,69.4952896 40.5827028,67.1316602 40.5827028,64.2155212 C40.5829344,62.8475676 40.0681853,61.6012355 39.2242471,60.6634749 Z" id="路径" fill="url(#linearGradient-4)" fill-rule="nonzero"></path>
            <polygon id="路径" fill="#7F7F7F" fill-rule="nonzero" points="34.5305792 64.427027 33.9296525 63.8267954 31.5294208 66.227027 31.5294208 62.5651737 30.2937452 62.5651737 30.2937452 66.4016988 28.9348263 65.0427799 28.3343629 65.6432432 30.2937452 67.6028571 30.2937452 79.8623166 31.5294208 79.8623166 31.5294208 67.4281853"></polygon>
            <path d="M158.750965,64.2150579 C158.961081,63.5705792 159.076448,62.8832432 159.076448,62.1685714 C159.076448,58.5275676 156.124865,55.5762162 152.484093,55.5762162 C148.948031,55.5762162 146.063166,58.3598456 145.899382,61.8551351 C143.247568,62.1069498 141.17166,64.3633205 141.17166,67.1108108 C141.17166,70.0264865 143.509575,72.3905792 146.393514,72.3905792 C148.00888,72.3905792 149.452124,71.6485714 150.410039,70.4840154 C151.323475,72.0194595 152.986795,73.0468726 154.887799,73.0468726 C157.771506,73.0468726 160.109421,70.6832432 160.109421,67.7671042 C160.109653,66.3991506 159.595135,65.1528185 158.750965,64.2150579 Z" id="路径" fill="url(#linearGradient-5)" fill-rule="nonzero"></path>
            <polygon id="路径" fill="#7F7F7F" fill-rule="nonzero" points="154.057066 67.97861 153.456602 67.3783784 151.056139 69.77861 151.056139 66.1167568 149.820695 66.1167568 149.820695 69.9532819 148.461544 68.5943629 147.861081 69.1948263 149.820695 71.1544402 149.820695 83.4138996 151.056139 83.4138996 151.056139 70.9797683"></polygon>
            <path d="M19.5071815,72.7237066 C19.6174517,72.3861776 19.6774517,72.0264093 19.6774517,71.6520463 C19.6774517,69.7457143 18.132278,68.2007722 16.2261776,68.2007722 C14.374749,68.2007722 12.8643243,69.6581467 12.7783784,71.4880309 C11.3900386,71.6198456 10.3030888,72.8013127 10.3030888,74.2399228 C10.3030888,75.766332 11.5271815,77.0040927 13.0371429,77.0040927 C13.8827027,77.0040927 14.63861,76.6155985 15.1401544,76.0056371 C15.6180695,76.8097297 16.4888803,77.3476448 17.4843243,77.3476448 C18.9942857,77.3476448 20.2183784,76.1098842 20.2183784,74.5830116 C20.2183784,73.8669498 19.9489575,73.2145946 19.5071815,72.7237066 Z" id="路径" fill="url(#linearGradient-6)" fill-rule="nonzero"></path>
            <polygon id="路径" fill="#7F7F7F" fill-rule="nonzero" points="17.0497297 74.6942085 16.7351351 74.3796139 15.4781467 75.6363707 15.4781467 73.7193822 14.8311197 73.7193822 14.8311197 75.7278764 14.1199228 75.0164479 13.8055598 75.3308108 14.8311197 76.356834 14.8311197 82.775444 15.4781467 82.775444 15.4781467 76.2655598"></polygon>
            <path d="M129.306718,16.2581467 L124.828494,16.2581467 C124.828494,7.29382239 117.561544,0.0268725869 108.59722,0.0268725869 C99.6328958,0.0268725869 92.3657143,7.29405405 92.3657143,16.2581467 L89.0946718,16.2581467 C84.9706564,16.2581467 81.6275676,19.8919691 81.6275676,24.3741313 C81.6275676,28.8562934 84.970888,32.4898842 89.0946718,32.4898842 L129.30695,32.4898842 C133.431429,32.4898842 136.774286,28.8562934 136.774286,24.3741313 C136.774286,19.8919691 133.431197,16.2581467 129.306718,16.2581467 Z" id="路径" fill="url(#linearGradient-7)" fill-rule="nonzero"></path>
            <path d="M78.4151351,23.2399228 L76.4888803,23.2399228 C76.4888803,19.3839382 73.3630888,16.2581467 69.5071042,16.2581467 C65.650888,16.2581467 62.5250965,19.3839382 62.5250965,23.2399228 L61.1179923,23.2399228 C59.3441699,23.2399228 57.9060232,24.8029344 57.9060232,26.7310425 C57.9060232,28.6591506 59.3441699,30.2219305 61.1179923,30.2219305 L78.4151351,30.2219305 C80.1891892,30.2219305 81.6271042,28.6591506 81.6271042,26.7310425 C81.6271042,24.8029344 80.1891892,23.2399228 78.4151351,23.2399228 Z" id="路径" fill="url(#linearGradient-8)" fill-rule="nonzero"></path>
            <path d="M42.4394595,28.632973 C41.9110425,30.409112 39.9502703,31.392973 39.9502703,31.392973 C39.9502703,31.392973 38.8457143,29.4972973 39.3741313,27.7211583 C39.9023166,25.9450193 41.8630888,24.9611583 41.8630888,24.9611583 C41.8630888,24.9611583 42.9676448,26.856834 42.4394595,28.632973 Z" id="路径" fill="#D6D6D6" fill-rule="nonzero"></path>
            <path d="M139.288031,44.0022394 C138.760077,45.7783784 136.799073,46.7622394 136.799073,46.7622394 C136.799073,46.7622394 135.694517,44.8665637 136.222934,43.0904247 C136.75112,41.3142857 138.712124,40.3304247 138.712124,40.3304247 C138.712124,40.3304247 139.816448,42.2261004 139.288031,44.0022394 Z" id="路径" fill="#D6D6D6" fill-rule="nonzero"></path>
            <path d="M130.811351,84.0553668 C129.181853,84.9379923 127.099691,84.2471815 127.099691,84.2471815 C127.099691,84.2471815 127.659151,82.1258687 129.288417,81.2430116 C130.917915,80.3608494 133.000077,81.0516602 133.000077,81.0516602 C133.000077,81.0516602 132.440618,83.172973 130.811351,84.0553668 Z" id="路径" fill="#D6D6D6" fill-rule="nonzero"></path>
            <path d="M32.0629344,34.7629344 C31.7358301,35.8626255 30.5216988,36.4716602 30.5216988,36.4716602 C30.5216988,36.4716602 29.8380695,35.2980695 30.1651737,34.1983784 C30.492278,33.0986873 31.7061776,32.4896525 31.7061776,32.4896525 C31.7061776,32.4896525 32.3898069,33.6632432 32.0629344,34.7629344 Z" id="路径" fill="#D6D6D6" fill-rule="nonzero"></path>
            <path d="M70.9971429,46.5171429 L92.7822394,46.5171429 C94.102471,46.5171429 94.762471,47.1773745 94.762471,48.4978378 C94.762471,49.8180695 94.102471,50.4783012 92.7822394,50.4783012 L70.9971429,50.4783012 C69.6769112,50.4783012 69.0166795,49.8180695 69.0166795,48.4978378 C69.0166795,47.1773745 69.6766795,46.5171429 70.9971429,46.5171429 L70.9971429,46.5171429 Z" id="路径" fill="#FFFFFF" fill-rule="nonzero"></path>
            <path d="M70.9971429,56.4196911 L86.8410811,56.4196911 C88.1608494,56.4196911 88.8215444,57.0799228 88.8215444,58.3999228 C88.8215444,59.7201544 88.1608494,60.3806178 86.8410811,60.3806178 L70.9971429,60.3806178 C69.6769112,60.3806178 69.0166795,59.7201544 69.0166795,58.3999228 C69.0166795,57.0799228 69.6766795,56.4196911 70.9971429,56.4196911 L70.9971429,56.4196911 Z" id="路径" fill="#FFFFFF" fill-rule="nonzero"></path>
            <g id="编组" transform="translate(108.880309, 24.555985)" fill="#EAEAEA" fill-rule="nonzero">
                <polygon id="路径" points="5.41482625 9.87498069 4.6007722 6.77003861 7.13698842 7.74185328"></polygon>
                <g>
                    <path d="M0.0111196911,4.68301158 L12.3437838,0.131351351 L2.72710425,5.6627027 L0.0111196911,4.68301158 Z M2.82138996,5.79891892 L12.4392278,0.268030888 L4.26926641,6.23745174 L5.06200772,9.34656371 L2.82138996,5.79891892 Z" id="形状"></path>
                    <polygon id="路径" points="8.93953668 8.17436293 7.0030888 7.41312741 4.46640927 6.44131274 12.6366023 0.472123552"></polygon>
                </g>
            </g>
            <rect id="矩形" fill="#EAEAEA" fill-rule="nonzero" x="75.7241699" y="32.0872587" width="33.6196911" height="12.1135135"></rect>
            <polygon id="路径" fill="url(#linearGradient-9)" fill-rule="nonzero" points="75.7241699 44.2007722 60.1943629 77.3376834 60.1160618 53.3513514 75.7241699 32.0872587"></polygon>
            <polygon id="路径" fill="url(#linearGradient-10)" fill-rule="nonzero" points="109.343861 44.2007722 124.555135 77.3376834 124.633436 53.3513514 109.343861 32.0872587"></polygon>
            <polygon id="路径" fill="#F4F4F4" fill-rule="nonzero" points="124.555135 77.3376834 60.1943629 77.3376834 75.7241699 44.2007722 109.343861 44.2007722"></polygon>
            <path d="M124.633436,76.7490347 C124.633436,78.0284942 123.596293,79.0656371 122.316834,79.0656371 L62.4326641,79.0656371 C61.1532046,79.0656371 60.1160618,78.0284942 60.1160618,76.7490347 L60.1160618,54.046332 C60.1160618,52.7668726 61.1532046,51.7297297 62.4326641,51.7297297 L122.316834,51.7297297 C123.596293,51.7297297 124.633436,52.7668726 124.633436,54.046332 L124.633436,76.7490347 Z" id="路径" fill="url(#linearGradient-11)" fill-rule="nonzero"></path>
            <g id="编组" transform="translate(101.003861, 34.285714)" stroke="#C1C1C1" stroke-linecap="round" stroke-linejoin="round">
                <path d="M1.29335907,12.9039382 C1.29335907,12.9039382 1.42054054,12.7783784 1.59405405,12.552278" id="路径"></path>
                <path d="M2.07405405,11.7989189 C2.46579151,11.0446332 2.77621622,9.96671815 2.35320463,8.76416988 C2.35320463,8.76416988 0.763088803,6.49227799 0.157297297,9.11745174 C0.157297297,9.11745174 1.45413127,11.4648649 4.52872587,9.26895753 C4.52872587,9.26895753 6.13969112,7.24795367 6.39220077,4.42169884 C6.39220077,4.42169884 7.08671815,1.54494208 8.17853282,1.11590734 C8.17853282,1.11590734 9.11490347,0.526795367 10.3100386,0.270810811" id="路径" stroke-dasharray="3.861,3.861"></path>
                <path d="M10.7513514,0.194362934 C10.9033205,0.174671815 11.0576062,0.161467181 11.2132819,0.156370656" id="路径"></path>
            </g>
        </g>
    </g>
</svg>