<?xml version="1.0" encoding="UTF-8"?>
<svg width="145px" height="89px" viewBox="0 0 145 89" version="1.1" xmlns="http://www.w3.org/2000/svg" xmlns:xlink="http://www.w3.org/1999/xlink">
    <title>编组_31_slice</title>
    <defs>
        <rect id="path-1" x="0" y="0" width="145" height="89"></rect>
    </defs>
    <g id="医生端" stroke="none" stroke-width="1" fill="none" fill-rule="evenodd">
        <g id="画板" transform="translate(-206.000000, -328.000000)">
            <g id="编组-31" transform="translate(206.000000, 328.000000)">
                <rect id="矩形-copy-5" stroke="#CCCCCC" stroke-width="0.5" fill-opacity="0.3" fill="#FFFFFF" fill-rule="nonzero" x="0" y="0" width="145" height="89"></rect>
                <rect id="矩形" stroke="#7FB1FD" fill="#FFFCF6" fill-rule="nonzero" x="6.5" y="4.5" width="132" height="80" rx="4"></rect>
                <path d="M31.935,18.2786885 C36.2588329,18.2786885 40.176162,19.8989606 43.0106742,22.5275889 C45.8168589,25.1299472 47.56,28.7229459 47.56,32.6961367 C47.56,35.468545 46.7883589,39.9552201 43.0756536,43.5283862 C42.930626,43.667963 42.7843774,43.803002 42.6376698,43.9336436 C42.6905368,44.0959991 42.7403078,44.2640503 42.8007432,44.4985095 C42.8939623,44.8601532 42.9330152,45.0712226 42.9814006,45.3511669 C43.0616718,45.815594 43.1650345,46.4548019 43.2915443,47.2687813 L43.2915443,47.2687813 L38.1802549,49.1777161 L37.8240101,48.1253535 C36.2040687,47.8553696 36.2103194,49.040766 35.8834375,49.040766 L35.8834375,49.040766 L28.7941966,49.040766 C28.4105837,48.7379142 28.6995778,48.6326471 27.9832048,47.0265629 L27.9832048,47.0265629 L26.312817,49.2847392 L21.2799643,47.4935678 C21.6104846,46.354928 21.8229921,45.3069846 21.9205389,44.3503457 C21.9389216,44.1700664 21.9539602,43.9857873 21.9654865,43.7970951 C21.828662,43.6924015 21.6934295,43.5852532 21.5598553,43.4756997 C18.3462282,40.8399819 16.31,36.9905462 16.31,32.6961367 C16.31,28.7229459 18.0531411,25.1299472 20.8593258,22.5275889 C23.693838,19.8989606 27.6111671,18.2786885 31.935,18.2786885 Z" id="椭圆形" stroke="#FCC4C0" stroke-width="2" fill="#FF593E" fill-rule="nonzero"></path>
                <polygon id="星形" fill="#FCC4C0" fill-rule="nonzero" points="31.935 27.5696721 29.980614 28.5955072 30.3538685 26.4227536 28.7727371 24.884001 30.957807 24.5670005 31.935 22.5901639 32.912193 24.5670005 35.0972629 24.884001 33.5161315 26.4227536 33.889386 28.5955072"></polygon>
                <polygon id="星形-copy" fill="#FCC4C0" fill-rule="nonzero" points="25.95 29.8934426 25.1682456 30.3037767 25.3175474 29.4346752 24.6850948 28.8191742 25.5591228 28.692374 25.95 27.9016393 26.3408772 28.692374 27.2149052 28.8191742 26.5824526 29.4346752 26.7317544 30.3037767"></polygon>
                <polygon id="星形-copy-2" fill="#FCC4C0" fill-rule="nonzero" points="29.94 31.2213115 29.1582456 31.6316455 29.3075474 30.7625441 28.6750948 30.147043 29.5491228 30.0202428 29.94 29.2295082 30.3308772 30.0202428 31.2049052 30.147043 30.5724526 30.7625441 30.7217544 31.6316455"></polygon>
                <polygon id="星形-copy-3" fill="#FCC4C0" fill-rule="nonzero" points="33.93 31.2213115 33.1482456 31.6316455 33.2975474 30.7625441 32.6650948 30.147043 33.5391228 30.0202428 33.93 29.2295082 34.3208772 30.0202428 35.1949052 30.147043 34.5624526 30.7625441 34.7117544 31.6316455"></polygon>
                <polygon id="星形-copy-4" fill="#FCC4C0" fill-rule="nonzero" points="37.92 29.8934426 37.1382456 30.3037767 37.2875474 29.4346752 36.6550948 28.8191742 37.5291228 28.692374 37.92 27.9016393 38.3108772 28.692374 39.1849052 28.8191742 38.5524526 29.4346752 38.7017544 30.3037767"></polygon>
                <polygon id="路径-2" fill="#FCC4C0" fill-rule="nonzero" points="20.234315 38.3968431 26.6670823 38.3968431 26.6670823 36.6215455 25.9197332 36.6215455 27.2254384 34.5409836 37.1098933 34.5409836 38.4022756 36.6215455 37.5330611 36.6215455 37.5330611 38.3968431 44.57 38.3968431 43.8509964 41.1803279 22.0772817 41.1803279 19.3 39.6501887"></polygon>
                <rect id="矩形" fill="#CAE3FF" fill-rule="nonzero" x="57.4266667" y="21.4705882" width="67.3866667" height="6.35294118"></rect>
                <rect id="矩形-copy" fill="#CAE3FF" fill-rule="nonzero" x="57.4266667" y="45.2941176" width="67.3866667" height="6.35294118"></rect>
                <rect id="矩形-copy-6" fill="#CAE3FF" fill-rule="nonzero" x="25.5066667" y="69.1176471" width="99.3066667" height="6.35294118"></rect>
                <mask id="mask-2" fill="white">
                    <use xlink:href="#path-1"></use>
                </mask>
                <use id="Mask" fill-opacity="0.243826486" fill="#000000" fill-rule="nonzero" xlink:href="#path-1"></use>
                <path d="M72.5,28 C63.3863281,28 56,35.3863281 56,44.5 C56,53.6136719 63.3863281,61 72.5,61 C81.6136719,61 89,53.6136719 89,44.5 C89,35.3863281 81.6136719,28 72.5,28 Z M82.5256836,54.5256836 C81.2237305,55.8276367 79.7058594,56.8524414 78.0171875,57.5646484 C76.2705078,58.3058594 74.4142578,58.6796875 72.5,58.6796875 C70.5857422,58.6796875 68.7294922,58.3058594 66.9828125,57.5678711 C65.2941406,56.8524414 63.7794922,55.8308594 62.4743164,54.5289063 C61.1723633,53.2269531 60.1475586,51.709082 59.4353516,50.0204102 C58.6941406,48.2705078 58.3203125,46.4142578 58.3203125,44.5 C58.3203125,42.5857422 58.6941406,40.7294922 59.4321289,38.9828125 C60.1475586,37.2941406 61.1691406,35.7794922 62.4710938,34.4743164 C63.7730469,33.1723633 65.290918,32.1475586 66.9795898,31.4353516 C68.7294922,30.6941406 70.5857422,30.3203125 72.5,30.3203125 C74.4142578,30.3203125 76.2705078,30.6941406 78.0171875,31.4321289 C79.7058594,32.1475586 81.2205078,33.1691406 82.5256836,34.4710938 C83.8276367,35.7730469 84.8524414,37.290918 85.5646484,38.9795898 C86.3058594,40.7294922 86.6796875,42.5857422 86.6796875,44.5 C86.6796875,46.4142578 86.3058594,48.2705078 85.5678711,50.0171875 C84.8524414,51.7058594 83.8308594,53.2237305 82.5256836,54.5256836 Z M79.5898438,43.355957 L73.6762695,43.355957 L73.6762695,37.4423828 C73.6762695,36.8010742 73.1574219,36.2822266 72.5161133,36.2822266 L72.5161133,36.2822266 C71.8748047,36.2822266 71.355957,36.8010742 71.355957,37.4423828 L71.355957,43.355957 L65.4101563,43.355957 C64.7688477,43.355957 64.25,43.8748047 64.25,44.5161133 L64.25,44.5161133 C64.25,45.1574219 64.7688477,45.6762695 65.4101563,45.6762695 L71.355957,45.6762695 L71.355957,51.5576172 C71.355957,52.1989258 71.8748047,52.7177734 72.5161133,52.7177734 L72.5161133,52.7177734 C73.1574219,52.7177734 73.6762695,52.1989258 73.6762695,51.5576172 L73.6762695,45.6762695 L79.5898438,45.6762695 C80.2311523,45.6762695 80.75,45.1574219 80.75,44.5161133 L80.75,44.5161133 C80.75,43.8748047 80.2311523,43.355957 79.5898438,43.355957 Z" id="Shape" fill="#FFFFFF" fill-rule="nonzero"></path>
            </g>
        </g>
    </g>
</svg>