<?xml version="1.0" encoding="UTF-8"?>
<svg width="10px" height="10px" viewBox="0 0 10 10" version="1.1" xmlns="http://www.w3.org/2000/svg" xmlns:xlink="http://www.w3.org/1999/xlink">
    <title>编组_8_slice</title>
    <g id="医生端" stroke="none" stroke-width="1" fill="none" fill-rule="evenodd">
        <g id="画板" transform="translate(-285.000000, -305.000000)" fill="#06B48D" fill-rule="nonzero">
            <g id="编组-8" transform="translate(285.000000, 305.000000)">
                <path d="M9.3655303,5.54924242 L0.577651515,5.54924242 C0.259232955,5.54924242 1.95399252e-13,5.28882576 1.95399252e-13,4.97159091 C1.95399252e-13,4.65317235 0.260416667,4.39393939 0.577651515,4.39393939 L9.36434659,4.39393939 C9.68276515,4.39393939 9.94200213,4.65435606 9.94200213,4.97159091 C9.94318182,5.29000947 9.68276515,5.54924242 9.3655303,5.54924242 L9.3655303,5.54924242 Z" id="路径"></path>
                <path d="M4.39393939,9.3655303 L4.39393939,0.577651515 C4.39393939,0.259232955 4.65435606,1.95399252e-13 4.97159091,1.95399252e-13 C5.29000947,1.95399252e-13 5.54924242,0.260416667 5.54924242,0.577651515 L5.54924242,9.36434659 C5.54924242,9.68276515 5.28882576,9.94200213 4.97159091,9.94200213 C4.65317235,9.94318182 4.39393939,9.68276515 4.39393939,9.3655303 L4.39393939,9.3655303 Z" id="路径"></path>
            </g>
        </g>
    </g>
</svg>