<?xml version="1.0" encoding="UTF-8"?>
<svg width="16px" height="16px" viewBox="0 0 16 16" version="1.1" xmlns="http://www.w3.org/2000/svg" xmlns:xlink="http://www.w3.org/1999/xlink">
    <!-- Generator: Sketch 60.1 (88133) - https://sketch.com -->
    <title>add_slice</title>
    <desc>Created with Sketch.</desc>
    <g id="医生端/药师端" stroke="none" stroke-width="1" fill="none" fill-rule="evenodd">
        <g id="画板" transform="translate(-111.000000, -12.000000)" fill="#FFFFFF" fill-rule="nonzero">
            <g id="add" transform="translate(111.000000, 12.000000)">
                <path d="M14.6014593,6.91796651 L8.44904306,6.91796651 L8.44904306,0.765550239 C8.44904306,0.342751196 8.10629187,-1.70530257e-13 7.68349282,-1.70530257e-13 C7.26069378,-1.70530257e-13 6.91794258,0.342751196 6.91794258,0.765550239 L6.91794258,6.91796651 L0.765550239,6.91796651 C0.342751196,6.91796651 2.09423122e-14,7.2607177 2.09423122e-14,7.68351675 C2.09423122e-14,8.10631579 0.342751196,8.44906699 0.765550239,8.44906699 L6.91794258,8.44906699 L6.91794258,14.6014593 C6.91794258,15.0242584 7.26069378,15.3670096 7.68349282,15.3670096 C8.10629187,15.3670096 8.44904306,15.0242584 8.44904306,14.6014593 L8.44904306,8.44906699 L14.6014593,8.44906699 C15.0242584,8.44906699 15.3670096,8.10631579 15.3670096,7.68351675 C15.3670096,7.2607177 15.0242584,6.91796651 14.6014593,6.91796651 Z" id="路径"></path>
            </g>
        </g>
    </g>
</svg>