<?xml version="1.0" encoding="UTF-8"?>
<svg width="20px" height="22px" viewBox="0 0 20 22" version="1.1" xmlns="http://www.w3.org/2000/svg" xmlns:xlink="http://www.w3.org/1999/xlink">
    <title>编组_10_slice</title>
    <g id="医生端" stroke="none" stroke-width="1" fill="none" fill-rule="evenodd">
        <g id="画板" transform="translate(-28.000000, -721.000000)" fill="#FFFFFF" fill-rule="nonzero">
            <g id="编组-10" transform="translate(28.000000, 721.000000)">
                <path d="M12.7242325,4.26502272e-06 L1.80940313,4.26502272e-06 C1.33034587,-0.00102410307 0.870508872,0.183952544 0.531141522,0.51420935 C0.191774172,0.844466155 0.000703327569,1.29292329 6.91002811e-13,1.76083705 L6.91002811e-13,20.2404596 C6.91002811e-13,21.2129348 0.809784222,22.0000043 1.80940313,22.0000043 L18.0953588,22.0000043 C18.5741864,22.0010242 19.0338225,21.8162255 19.3731517,21.486249 C19.7124808,21.1562725 19.9037068,20.7081485 19.9047619,20.2404596 L19.9047619,7.38563375 C19.9047619,6.94218504 19.7321849,6.51429594 19.4202189,6.1888409 L14.0504202,0.56274757 C13.7073533,0.203692862 13.2270538,4.26502272e-06 12.7242325,4.26502272e-06 L12.7242325,4.26502272e-06 Z M1.80940313,1.76083705 L12.7242325,1.76083705 L18.0953588,7.38563375 L18.0953588,20.2404596 L1.80940313,20.2404596 L1.80940313,1.76083705 Z" id="形状"></path>
                <path d="M12.0460715,2.37698386e-05 C12.5021793,-0.0013314773 12.8820462,0.361116673 12.9169232,0.830967061 L12.9182039,0.89844614 L12.9182039,7.18326227 L19.0282536,7.18326227 C19.4984862,7.18004959 19.8862585,7.56310541 19.9042281,8.04858221 C19.9205205,8.53333669 19.5619473,8.94417877 19.0935675,8.9774119 L19.0295343,8.98005975 L12.9169232,8.98005975 C11.9889556,8.98132889 11.2229819,8.23069477 11.1752197,7.27323438 L11.1713767,7.18458539 L11.1713767,0.89844614 C11.1710298,0.659147187 11.2632379,0.429623175 11.4274989,0.260910745 C11.5917599,0.0921983145 11.8144569,-0.00171681087 12.0460715,2.37698386e-05 Z M9.42711283,9.87845605 L9.42711283,13.4694015 L12.9182039,13.4694015 L12.9182039,15.2661974 L9.42711283,15.2661974 L9.42711283,18.8571429 L7.68156728,18.8571429 L7.68156728,15.2661974 L4.19047619,15.2661974 L4.19047619,13.4694015 L7.68156728,13.4694015 L7.68156728,9.87845605 L9.42711283,9.87845605 Z" id="形状"></path>
            </g>
        </g>
    </g>
</svg>