<?xml version="1.0" encoding="UTF-8"?>
<svg width="21px" height="20px" viewBox="0 0 21 20" version="1.1" xmlns="http://www.w3.org/2000/svg" xmlns:xlink="http://www.w3.org/1999/xlink">
    <title>编组_11_slice</title>
    <g id="医生端" stroke="none" stroke-width="1" fill="none" fill-rule="evenodd">
        <g id="画板" transform="translate(-327.000000, -722.000000)" fill="#FFFFFF">
            <g id="编组-11" transform="translate(327.000000, 722.000000)">
                <rect id="矩形" x="0" y="1.43606918" width="13" height="2" rx="1"></rect>
                <rect id="矩形备份-19" x="0" y="9.43606918" width="21" height="2" rx="1"></rect>
                <rect id="矩形备份-22" x="0" y="17.4360692" width="21" height="2" rx="1"></rect>
                <path d="M17.6154927,0.610437611 L15.307075,4.69021057 C15.1982849,4.88248034 15.2659585,5.12653759 15.4582283,5.2353277 C15.5183131,5.26932488 15.5861741,5.28719248 15.6552102,5.28719248 L20.3087055,5.28719248 C20.5296194,5.28719248 20.7087055,5.10810638 20.7087055,4.88719248 C20.7087055,4.81723693 20.690359,4.74850462 20.6554971,4.68785462 L18.3104195,0.608081661 C18.2003282,0.416553947 17.9558177,0.350536657 17.76429,0.460627918 C17.7021682,0.496335886 17.6507786,0.548075144 17.6154927,0.610437611 Z" id="路径-7"></path>
            </g>
        </g>
    </g>
</svg>