<?xml version="1.0" encoding="UTF-8"?>
<svg width="15px" height="18px" viewBox="0 0 15 18" version="1.1" xmlns="http://www.w3.org/2000/svg" xmlns:xlink="http://www.w3.org/1999/xlink">
    <title>编组_52_slice</title>
    <g id="医生端/药师端" stroke="none" stroke-width="1" fill="none" fill-rule="evenodd">
        <g id="画板" transform="translate(0.000000, -2.000000)" fill="#06B48D" fill-rule="nonzero">
            <g id="编组-52" transform="translate(0.000000, 2.000000)">
                <path d="M8.90117924,0.00644899119 C9.25365566,0.00644899119 9.59209905,0.133571639 9.85294811,0.359750891 L9.94622641,0.449727293 L14.1775943,4.88251031 C14.392217,5.10703861 14.523467,5.39265182 14.5523585,5.69559994 L14.5589623,5.82602446 L14.5589623,15.9545622 C14.5589623,16.6801518 13.9860849,17.2753169 13.2563679,17.3364018 L13.1325472,17.3413547 L1.42641509,17.3413547 C0.681014151,17.3413547 0.0685141445,16.7841613 0.00660376714,16.0742556 L1.95399252e-14,15.9545622 L1.95399252e-14,1.39324144 C1.95399252e-14,0.667651821 0.572877365,0.0724867399 1.30259434,0.0114018214 L1.42641509,0.00644899119 L8.90117924,0.00644899119 Z M8.90117924,1.24465654 L1.42558962,1.24465654 C1.33313678,1.24465654 1.26462264,1.29666126 1.24398586,1.35609522 L1.23820755,1.39324144 L1.23820755,15.9545622 C1.23820755,16.0164726 1.29103774,16.078383 1.3735849,16.0973688 L1.42558962,16.1031471 L13.1333726,16.1031471 C13.2258255,16.1031471 13.2943396,16.0511424 13.3149764,15.9917084 L13.3207547,15.9545622 L13.3207547,5.82602446 C13.3207547,5.80482518 13.3150234,5.78401997 13.3042453,5.76576504 L13.2819575,5.737699 L9.05058962,1.30491598 C9.025477,1.27922728 8.99377595,1.26094919 8.95896226,1.25208578 L8.90117924,1.24465654 Z" id="形状结合"></path>
                <path d="M8.61556604,0.00644899119 C8.96083215,0.00677132097 9.24757217,0.273004224 9.27346698,0.617298061 L9.2759434,0.666826363 L9.2759434,5.28946787 L13.896934,5.28946787 C14.2531512,5.28787372 14.546436,5.56909097 14.5598016,5.92506092 C14.5731672,6.28103087 14.3017961,6.58344922 13.9464623,6.60857163 L13.896934,6.61022259 L9.2759434,6.61022259 C8.57249791,6.60978348 7.99283723,6.05807137 7.95766509,5.35550559 L7.95518867,5.28946787 L7.95518867,0.666826363 C7.95518867,0.491683393 8.02476394,0.323713821 8.14860872,0.199869039 C8.2724535,0.0760242577 8.44042307,0.00644899119 8.61556604,0.00644899119 Z" id="路径"></path>
                <path d="M3.99410377,10.7375811 L9.3596698,10.7375811 C9.77240565,10.7375811 9.97877358,10.943949 9.97877358,11.3566848 L9.97877358,11.3566848 C9.97877358,11.7694207 9.77240565,11.9757886 9.3596698,11.9757886 L3.99410377,11.9757886 C3.58136792,11.9757886 3.375,11.7694207 3.375,11.3566848 L3.375,11.3566848 C3.375,10.943949 3.58136792,10.7375811 3.99410377,10.7375811 Z" id="路径"></path>
                <path d="M7.29599057,8.67390182 L7.29599057,14.0394679 C7.29599057,14.4522037 7.08962265,14.6585716 6.6768868,14.6585716 L6.6768868,14.6585716 C6.26415095,14.6585716 6.05778303,14.4522037 6.05778303,14.0394679 L6.05778303,8.67390182 C6.05778303,8.26116597 6.26415095,8.05479805 6.6768868,8.05479805 L6.6768868,8.05479805 C7.08962265,8.05479805 7.29599057,8.26116597 7.29599057,8.67390182 Z" id="路径"></path>
            </g>
        </g>
    </g>
</svg>