<?xml version="1.0" encoding="UTF-8"?>
<svg width="80px" height="80px" viewBox="0 0 80 80" version="1.1" xmlns="http://www.w3.org/2000/svg" xmlns:xlink="http://www.w3.org/1999/xlink">
    <title>编组_6_slice</title>
    <g id="医生端" stroke="none" stroke-width="1" fill="none" fill-rule="evenodd">
        <g id="画板" transform="translate(-224.000000, -383.000000)" fill-rule="nonzero">
            <g id="编组-6" transform="translate(224.000000, 383.000000)">
                <g id="编组-5">
                    <path d="M0,39.6039604 C0,61.4766238 17.90861,79.2079208 40,79.2079208 C62.09139,79.2079208 80,61.4766238 80,39.6039604 C80,17.731297 62.09139,2.27373675e-13 40,2.27373675e-13 C17.90861,2.27373675e-13 0,17.731297 0,39.6039604 Z" id="路径" fill="#68B1FF" opacity="0.76"></path>
                    <path d="M40.3933375,79.4215224 C40.249222,79.4176527 40.1051035,79.4138976 39.960982,79.410257 L40.3933375,79.4215224 L40.3933375,79.4215224 Z" id="路径" fill="#E2FDFF"></path>
                    <path d="M32.2595555,54.7027503 C40.6648888,50.6877888 46.5084444,50.6877888 49.7902222,54.7027503 C52.736,58.3128713 60.8817778,62.6675467 70.4337778,65.290209 C63.5146666,73.3183718 53.4204445,78.5830583 42.0711111,79.1568757 C41.3585974,79.1865789 40.6455824,79.2030101 39.9324445,79.2061606 C27.7617778,79.1850384 16.8711111,73.7760176 9.54844445,65.2655665 C10.5746323,64.5804321 11.7005072,64.0545276 12.8871111,63.7060506 C23.6231111,60.460286 30.0817777,57.4539054 32.2595555,54.7027503 Z M58,67 L50,67 L50,69 L58,69 L58,67 Z" id="形状结合" fill="#FFFFFF"></path>
                    <path d="M32.9973334,48.529813 C33.0808889,51.6558856 33.1235555,53.910671 33.1235555,55.3029703 C33.9537777,57.1775578 35.7724445,59.2616061 38.5831111,61.5621563 C43.056,61.8913092 46.1564445,60.8017602 47.8826666,58.2794279 C48.4871111,57.4011001 49.0435555,56.550935 49.5502222,55.739494 L49.5502222,46.019802 L32.9973334,48.529813 L32.9973334,48.529813 Z" id="路径" fill="#ECC4A3"></path>
                    <path d="M35.3404445,16.3432343 C30.4835555,19.3214521 28.0586666,23.940154 28.0586666,30.2046204 L25.9057778,27.3812981 L23.0453334,30.7872387 L25.0435555,41.1212321 L28.0568889,41.7883388 L32.9991111,48.5315732 C35.7866666,51.5133113 38.288,53.0024203 40.5084445,53.0024203 C45.3653334,53.0024203 50.4177778,47.4578658 51.9288889,46.5284929 C52.9297778,45.9071508 55.2462223,43.2545655 58.8711111,38.5724972 L59.8257778,29.120352 L38.2915555,15.6972497 L35.3404445,16.3432343 L35.3404445,16.3432343 Z" id="路径" fill="#FFE1C8"></path>
                    <path d="M37.7546666,9.40698626 C37.344,9.40698626 27.8311111,6.29262933 22.128,25.4380638 C19.6472973,33.7573006 20.6913136,35.9338506 19.5485428,45.0572791 C19.327985,46.8181252 19.2703665,48.2546313 19.4631111,49.9981449 C25.9947466,49.9917685 28.5631508,49.9787235 33.1395555,50.0265437 L33.1395555,48.649505 C31.0328889,46.019802 29.5217777,43.2915292 28.6062222,40.4594059 C26.9351111,41.2338834 25.7546666,40.3467546 25.0684445,37.8085808 C24.0373334,34.0013201 23.5537778,31.0671067 25.0684445,29.9634763 C26.5795555,28.859846 27.6835555,31.7236524 28.144,31.3364137 C28.6062222,30.949175 28.144,27.5837184 30.9955555,22.3911991 C32.4906666,19.6558856 34.1386666,17.6035203 35.9324445,16.2341034 C37.4186666,11.7157316 38.0266666,9.40698626 37.7546666,9.40698626 Z" id="路径" fill="#2E323A"></path>
                    <path d="M35.3617778,16.5174917 C38.928,20.8739274 43.1857778,23.6215621 48.1315555,24.7568757 C53.0115555,25.8833884 52.736,31.6761276 53.7635555,33.2233223 C54.8497777,34.8620462 54.1297777,31.9436744 55.0222222,30.6763476 C55.9146666,29.4107811 57.648,30.220462 58.2204445,31.5317932 C58.7946666,32.8413641 58.8248889,36.9513752 55.7955555,40.5174917 C55.2817777,41.1177117 54.6666666,41.2937293 53.9555555,41.0367437 C52.8888889,40.6565456 53.7546666,43.8319032 49.5484445,48.4611662 L49.5484445,49.9970057 C51.687583,50.0428537 56.0678066,50.0188657 62.82506,49.9253631 C63.3957266,43.9530858 62.6453334,44.9073707 60.7484445,28.3810781 C58.4124445,8.10737075 39.6728889,6.75555554 37.0328889,9.94147416 C35.7724445,11.4587459 35.216,13.6484049 35.3617778,16.5174917 Z" id="路径" fill="#424650"></path>
                    <path d="M33.1235555,55.3047305 C35.1751111,58.9359736 37.7191111,60.759516 40.7591111,60.7595159 C43.8008889,60.7595159 46.7288889,59.0855886 49.5502222,55.7377338 L42.9813334,76.9390539 L38.2844445,76.9390539 L33.1271111,55.3082509 L33.1271111,55.3047305 L33.1235555,55.3047305 Z" id="路径" fill="#5AA38B"></path>
                </g>
                <path d="M40.5,7 C44.1148829,7 48.0261902,7.80943149 52.233922,9.42829446 C52.6797939,9.59983713 52.9420569,10.0627994 52.8599743,10.5334278 L52.8599743,10.5334278 L51.2109715,19.9872806 C51.2099438,19.993173 51.2088631,19.999056 51.2077298,20.0049289 C51.1030817,20.5472145 50.5786382,20.9019898 50.0363546,20.7973312 C46.8598366,20.1843392 43.6833186,19.8778432 40.5068005,19.8778432 C37.3298927,19.8778432 34.1529848,20.1844145 30.976077,20.7975569 C30.9705799,20.7986178 30.965074,20.7996326 30.9595599,20.800601 C30.4155988,20.8961388 29.8971826,20.5326199 29.8016492,19.9886581 L29.8016492,19.9886581 L28.1411374,10.534241 C28.058419,10.0632693 28.3207059,9.59964335 28.7669962,9.42794121 C32.9743788,7.80931374 36.8853801,7 40.5,7 Z M41.5,10.5 L39.5,10.5 L39.5,13 L37,13 L37,15 L39.5,15 L39.5,17.5 L41.5,17.5 L41.5,15 L44,15 L44,13 L41.5,13 L41.5,10.5 Z" id="形状结合" fill="#FFFFFF"></path>
            </g>
        </g>
    </g>
</svg>