<?xml version="1.0" encoding="UTF-8"?>
<svg width="19px" height="13px" viewBox="0 0 19 13" version="1.1" xmlns="http://www.w3.org/2000/svg" xmlns:xlink="http://www.w3.org/1999/xlink">
    <title>形状_slice</title>
    <g id="医生端" stroke="none" stroke-width="1" fill="none" fill-rule="evenodd">
        <g id="画板" transform="translate(-340.000000, -99.000000)" fill="#999999" fill-rule="nonzero">
            <path d="M349.72973,99 C345.472973,99 341.378378,101.695946 340,105.486486 C341.378378,109.277027 345.472973,111.972973 349.72973,111.972973 C353.966216,111.972973 358.101351,109.277027 359.47973,105.486486 C358.081081,101.695946 353.966216,99 349.72973,99 Z M349.72973,109.540541 C347.5,109.540541 345.675676,107.716216 345.675676,105.486486 C345.675676,103.256757 347.5,101.432432 349.72973,101.432432 C351.959459,101.432432 353.783784,103.256757 353.783784,105.486486 C353.783784,107.716216 351.959459,109.540541 349.72973,109.540541 Z M352.162162,105.486486 C352.162162,106.824324 351.067568,107.918919 349.72973,107.918919 C348.391892,107.918919 347.297297,106.824324 347.297297,105.486486 C347.297297,104.148649 348.391892,103.054054 349.72973,103.054054 C351.067568,103.054054 352.162162,104.148649 352.162162,105.486486 Z" id="形状"></path>
        </g>
    </g>
</svg>