<?xml version="1.0" encoding="UTF-8"?>
<svg width="19px" height="13px" viewBox="0 0 19 13" version="1.1" xmlns="http://www.w3.org/2000/svg" xmlns:xlink="http://www.w3.org/1999/xlink">
    <title>形状_slice</title>
    <g id="医生端/药师端" stroke="none" stroke-width="1" fill="none" fill-rule="evenodd">
        <g id="画板" transform="translate(-340.000000, -301.000000)" fill="#999999" fill-rule="nonzero">
            <path d="M349.72973,301 C345.472973,301 341.378378,303.695946 340,307.486486 C341.378378,311.277027 345.472973,313.972973 349.72973,313.972973 C353.966216,313.972973 358.101351,311.277027 359.47973,307.486486 C358.081081,303.695946 353.966216,301 349.72973,301 Z M349.72973,311.540541 C347.5,311.540541 345.675676,309.716216 345.675676,307.486486 C345.675676,305.256757 347.5,303.432432 349.72973,303.432432 C351.959459,303.432432 353.783784,305.256757 353.783784,307.486486 C353.783784,309.716216 351.959459,311.540541 349.72973,311.540541 Z M352.162162,307.486486 C352.162162,308.824324 351.067568,309.918919 349.72973,309.918919 C348.391892,309.918919 347.297297,308.824324 347.297297,307.486486 C347.297297,306.148649 348.391892,305.054054 349.72973,305.054054 C351.067568,305.054054 352.162162,306.148649 352.162162,307.486486 Z" id="形状"></path>
        </g>
    </g>
</svg>