<?xml version="1.0" encoding="UTF-8"?>
<svg width="16px" height="19px" viewBox="0 0 16 19" version="1.1" xmlns="http://www.w3.org/2000/svg" xmlns:xlink="http://www.w3.org/1999/xlink">
    <title>编组_4_slice</title>
    <g id="医生端" stroke="none" stroke-width="1" fill="none" fill-rule="evenodd">
        <g id="画板" transform="translate(-16.000000, -347.000000)" fill="#666666" fill-rule="nonzero">
            <g id="编组-4" transform="translate(16.000000, 347.000000)">
                <path d="M14.4,7.2 L13.8,7.2 L13.8,6 C13.8,2.68714286 11.1128571,0 7.8,0 C4.48714286,0 1.8,2.68714286 1.8,6 L1.8,7.2 L1.2,7.2 C0.537857143,7.2 0,7.73785714 0,8.4 L0,18 C0,18.6621429 0.537857143,19.2 1.2,19.2 L14.4,19.2 C15.0621429,19.2 15.6,18.6621429 15.6,18 L15.6,8.4 C15.6,7.73785714 15.0621429,7.2 14.4,7.2 Z M3,6 C3,3.35357143 5.15357143,1.2 7.8,1.2 C10.4464286,1.2 12.6,3.35357143 12.6,6 L12.6,7.2 L3,7.2 L3,6 Z M14.4,18 L1.2,18 L1.2,8.4 L14.4,8.4 L14.4,18 Z" id="形状"></path>
                <path d="M7.8,10.8 C7.46785714,10.8 7.2,11.0678571 7.2,11.4 L7.2,15 C7.2,15.3321429 7.46785714,15.6 7.8,15.6 C8.13214286,15.6 8.4,15.3321429 8.4,15 L8.4,11.4 C8.4,11.0678571 8.13214286,10.8 7.8,10.8 Z" id="路径"></path>
            </g>
        </g>
    </g>
</svg>