<?xml version="1.0" encoding="UTF-8"?>
<svg width="15px" height="12px" viewBox="0 0 15 12" version="1.1" xmlns="http://www.w3.org/2000/svg" xmlns:xlink="http://www.w3.org/1999/xlink">
    <title>编组_5_slice</title>
    <g id="医生端/药师端" stroke="none" stroke-width="1" fill="none" fill-rule="evenodd">
        <g id="画板" transform="translate(-287.000000, -414.000000)" fill-rule="nonzero">
            <g id="编组-5" transform="translate(287.000000, 414.000000)">
                <path d="M13.2347359,3.68594044e-13 L0.910738442,3.68594044e-13 C0.409943095,3.68594044e-13 -8.34887715e-14,0.389818176 -8.34887715e-14,0.91490908 L-8.34887715e-14,10.6841212 C-8.34887715e-14,11.2077576 0.409943095,11.6363636 0.910738442,11.6363636 L13.3087472,11.6363636 C13.8108721,11.6363636 14.1818182,11.2077576 14.1818182,10.6841212 L14.1818182,0.91345454 C14.1831448,0.389818176 13.7355312,3.68594044e-13 13.2347359,3.68594044e-13 Z" id="路径" fill="#09BB8F" opacity="0.8"></path>
                <path d="M4.44909596,1.63636372 C5.25241924,1.63649769 5.90353288,2.28782841 5.90339902,3.09115168 C5.90326511,3.89447495 5.25193439,4.5455886 4.44861112,4.54545474 C3.64528785,4.54518693 2.99428276,3.89374768 2.99455045,3.09042441 C2.99481831,2.28710114 3.64625755,1.63609604 4.44958082,1.63636372 L4.44909596,1.63636372 Z" id="路径" fill="#FFFFFF"></path>
                <path d="M2.99600505,9.87878805 C2.87904405,9.87863025 2.76633849,9.83489635 2.67988384,9.75612139 C2.47461096,9.56555937 2.45133712,9.24882345 2.62655052,9.0303032 L4.89176263,5.99612139 C4.96862426,5.89774408 5.08154735,5.83408374 5.20550592,5.81924876 C5.32946449,5.80441377 5.45422076,5.83962937 5.55212626,5.91709107 L6.88400505,7.44000017 L10.1630354,3.24509108 C10.3298232,3.02303047 11.1947929,1.9752729 11.7169747,3.16266685 C11.7184293,3.16121231 11.7184293,4.50569715 11.7198838,6.10812139 C11.7213384,7.78230322 11.7213384,9.87733351 11.7213384,9.87733351 L2.99600505,9.87878805 Z" id="路径" fill="#FFFFFF"></path>
            </g>
        </g>
    </g>
</svg>