<?xml version="1.0" encoding="UTF-8"?>
<svg width="42px" height="42px" viewBox="0 0 42 42" version="1.1" xmlns="http://www.w3.org/2000/svg" xmlns:xlink="http://www.w3.org/1999/xlink">
    <title>编组_11_slice</title>
    <g id="医生端" stroke="none" stroke-width="1" fill="none" fill-rule="evenodd">
        <g id="画板" transform="translate(-28.000000, -66.000000)" fill="#06B48D">
            <g id="编组-11" transform="translate(28.000000, 66.000000)">
                <rect id="矩形备份-17" opacity="0.112002418" x="0" y="0" width="42" height="42" rx="8"></rect>
                <path d="M29.5125,11 L11.7,11 C10.7625,11 10,11.6958333 10,12.6333333 L10,29 C10,29.9375 10.7666667,30.7041667 11.7,30.7041667 L29.6541667,30.7041667 C30.5875,30.7041667 31.2833333,29.9375 31.2833333,29 L31.2833333,12.6333333 C31.2833333,11.6958333 30.4458333,11 29.5125,11 Z M16.8541667,13.4208333 C18.2958333,13.4208333 19.4625,14.5875 19.4625,16.0291667 C19.4625,17.4666667 18.2916667,18.6333333 16.8541667,18.6333333 C15.4166667,18.6333333 14.2458333,17.4666667 14.2458333,16.0291667 C14.2458333,14.5916667 15.4166667,13.4208333 16.8541667,13.4208333 Z M12.8541667,28.2666667 C12.6708333,28.2666667 12.4833333,28.2041667 12.3333333,28.075 C11.9958333,27.7875 11.9583333,27.2791667 12.2458333,26.9416667 L15.9291667,21.3875 C16.2041667,21.0666667 16.675,21.0166667 17.0166667,21.2666667 L20.2666667,23.6833333 L26.0958333,17.0625 C26.3708333,16.7166667 27.8333333,15.0875 28.6916667,16.9333333 C28.6916667,16.9291667 28.6958333,19.3791667 28.6958333,21.8791667 L28.6958333,28.2666667 C28.6833333,28.2583333 12.8625,28.2666667 12.8541667,28.2666667 Z" id="形状" fill-rule="nonzero"></path>
            </g>
        </g>
    </g>
</svg>