<?xml version="1.0" encoding="UTF-8"?>
<svg width="42px" height="42px" viewBox="0 0 42 42" version="1.1" xmlns="http://www.w3.org/2000/svg" xmlns:xlink="http://www.w3.org/1999/xlink">
    <title>prescription</title>
    <g id="医生端/药师端" stroke="none" stroke-width="1" fill="none" fill-rule="evenodd">
        <g id="5-1开处方" transform="translate(-28.000000, -699.000000)" fill="#06B48D">
            <g id="编组-90" transform="translate(28.000000, 699.000000)">
                <rect id="矩形备份-19" opacity="0.112002418" x="0" y="0" width="42" height="42" rx="8"></rect>
                <path d="M28.6071429,10 C30.25,10 31.0714286,10.8214286 31.0714286,12.4642857 L31.0714286,30.5357143 C31.0714286,32.1785714 30.25,33 28.6071429,33 L12.4642857,33 C10.8214286,33 10,32.1785714 10,30.5357143 L10,12.4642857 C10,10.8214286 10.8214286,10 12.4642857,10 L28.6071429,10 Z M27.8883929,23.7743304 C27.6189518,23.7692145 27.3741272,23.9303907 27.2723214,24.1799107 L27.2723214,24.1799107 L27.015625,24.8370536 C26.8898438,25.1168527 26.7691964,25.4274554 26.6331473,25.809933 L26.6331473,25.809933 L26.5997768,25.809933 C26.4252232,25.4274554 26.296875,25.1168527 26.1685268,24.8370536 L26.1685268,24.8370536 L25.8733259,24.1799107 C25.7623684,23.9333977 25.5173199,23.7747188 25.2469866,23.7743304 C25.0056416,23.7748104 24.7821981,23.9017259 24.6581815,24.1087706 C24.5341648,24.3158153 24.5277142,24.5727062 24.641183,24.7857143 L24.641183,24.7857143 L25.6422991,26.6570312 L24.5359375,28.761942 C24.4266174,28.9657638 24.4324955,29.2120483 24.5514149,29.4104228 C24.6703344,29.6087972 24.8847835,29.7300498 25.1160714,29.7296883 C25.3764157,29.7293161 25.6119933,29.5752845 25.7167411,29.336942 L25.7167411,29.336942 L26.0555804,28.5668527 C26.2044643,28.25625 26.3174107,27.9430804 26.4611607,27.5760045 L26.4611607,27.5760045 L26.4945313,27.5760045 C26.653683,27.9430804 26.7897321,28.25625 26.9334821,28.5668527 L26.9334821,28.5668527 L27.2979911,29.336942 C27.4112864,29.5757915 27.6522727,29.7277829 27.9166295,29.7271205 C28.1630364,29.7310461 28.3924397,29.6018904 28.5168772,29.3891767 C28.6413147,29.1764631 28.6414759,28.9132007 28.5172991,28.7003348 L28.5172991,28.7003348 L27.4366071,26.7212054 L28.4633929,24.7241071 C28.5683293,24.5229155 28.5606479,24.2815435 28.4431313,24.0874312 C28.3256146,23.8933189 28.1153062,23.7746183 27.8883929,23.7743304 Z M21.2142857,23.7743252 L19.6741071,23.7743252 C19.5041433,23.7736478 19.3409066,23.8406877 19.2204825,23.9606301 C19.1000583,24.0805726 19.0323661,24.2435393 19.0323661,24.4135045 L19.0323661,24.4135045 L19.0323661,29.0006696 C19.0337741,29.3942042 19.3524476,29.7128777 19.7459821,29.7143233 C20.1405188,29.7143233 20.4607511,29.3952038 20.4621652,29.0006696 L20.4621652,29.0006696 L20.4621652,27.6222098 L21.1475446,27.6222098 L22.0485491,29.3446429 C22.1690134,29.5742272 22.4079321,29.7169836 22.6671875,29.7143233 C22.9122601,29.714983 23.1391989,29.5852523 23.2629473,29.3737165 C23.3866958,29.1621807 23.388566,28.9007849 23.2678571,28.6875 L23.2678571,28.6875 L22.4977679,27.3603795 C23.1635849,27.0568763 23.5723317,26.3732473 23.5245536,25.6430804 C23.5245536,24.2055804 22.484933,23.7743252 21.2142857,23.7743252 L21.2142857,23.7743252 Z M21.0987723,24.9012277 C21.7790179,24.9012277 22.1383929,25.0834821 22.1383929,25.6430804 C22.1383929,26.2026786 21.7790179,26.4978795 21.0987723,26.4978795 L21.0987723,26.4978795 L20.4621652,26.4978795 L20.4621652,24.9012277 Z M20.8571429,17.3928571 L14.2857143,17.3928571 C13.8320518,17.3928571 13.4642857,17.7606232 13.4642857,18.2142857 C13.4642857,18.6679482 13.8320518,19.0357143 14.2857143,19.0357143 L20.8571429,19.0357143 C21.3108053,19.0357143 21.6785714,18.6679482 21.6785714,18.2142857 C21.6785714,17.7606232 21.3108053,17.3928571 20.8571429,17.3928571 Z M25.7857143,13.2857143 L14.2857143,13.2857143 C13.8320518,13.2857143 13.4642857,13.6534804 13.4642857,14.1071429 C13.4642857,14.5608053 13.8320518,14.9285714 14.2857143,14.9285714 L25.7857143,14.9285714 C26.2393768,14.9285714 26.6071429,14.5608053 26.6071429,14.1071429 C26.6071429,13.6534804 26.2393768,13.2857143 25.7857143,13.2857143 Z" id="形状结合" fill-rule="nonzero"></path>
            </g>
        </g>
    </g>
</svg>