<?xml version="1.0" encoding="UTF-8"?>
<svg width="145px" height="89px" viewBox="0 0 145 89" version="1.1" xmlns="http://www.w3.org/2000/svg" xmlns:xlink="http://www.w3.org/1999/xlink">
    <title>编组_2_slice</title>
    <defs>
        <rect id="path-1" x="0" y="0" width="145" height="89"></rect>
        <polygon id="path-3" points="6.83055086 3.19834798 6.02057993 2.6967622 6.02744898 0.014472892 0.822265952 0 0.815339177 2.68228931 0 3.04579311 0.197239927 10.6532496 0.794847467 10.6548711 0.791903587 11.82117 5.99708662 11.8356429 6.00008822 10.669404 6.59417465 10.6710254"></polygon>
        <polygon id="path-5" points="6.83055086 3.19834798 6.02057993 2.6967622 6.02744898 0.014472892 0.822265952 0 0.815339177 2.68228931 0 3.04579311 0.197239927 10.6532496 0.794847467 10.6548711 0.791903587 11.82117 5.99708662 11.8356429 6.00008822 10.669404 6.59417465 10.6710254"></polygon>
        <rect id="path-7" x="0" y="0" width="145" height="89"></rect>
    </defs>
    <g id="医生端" stroke="none" stroke-width="1" fill="none" fill-rule="evenodd">
        <g id="画板" transform="translate(-206.000000, -455.000000)">
            <g id="编组-2" transform="translate(206.000000, 455.000000)">
                <mask id="mask-2" fill="white">
                    <use xlink:href="#path-1"></use>
                </mask>
                <use id="Mask备份" stroke="#CCCCCC" stroke-width="0.5" fill="#FFFCF6" fill-rule="nonzero" opacity="0.3" xlink:href="#path-1"></use>
                <rect id="矩形备份-4" fill="#ACACAC" fill-rule="nonzero" mask="url(#mask-2)" x="22" y="28" width="34" height="43"></rect>
                <rect id="矩形备份-6" fill="#FFFCF6" fill-rule="nonzero" mask="url(#mask-2)" x="6" y="4" width="133" height="81"></rect>
                <g id="编组-28" mask="url(#mask-2)">
                    <g transform="translate(24.000000, 12.000000)">
                        <g id="分组" stroke="none" stroke-width="1" fill="none" fill-rule="evenodd" transform="translate(0.000000, 0.000000)">
                            <polygon id="Fill-1" fill="#7588C3" points="11.1850878 18.9370286 18.0078159 18.955401 17.9999931 21.8959393 11.177265 21.8776297"></polygon>
                            <g id="路径-3" transform="translate(11.177265, 15.386336)">
                                <mask id="mask-4" fill="white">
                                    <use xlink:href="#path-3"></use>
                                </mask>
                                <use id="Mask" fill="#F0C8B5" xlink:href="#path-3"></use>
                                <path d="M0.620959169,4.20076672e-14 C1.60620408,1.06098729 2.53257735,1.61545231 3.40007897,1.66339507 C4.26758059,1.71133784 5.19395386,1.25926546 6.17919877,0.307177938 L6.17919877,1.23641839 C5.2528255,2.14166349 4.32645224,2.59428604 3.40007897,2.59428604 C2.4737057,2.59428604 1.54733244,2.14166349 0.620959169,1.23641839 L0.620959169,4.20076672e-14 Z" fill="#E2BDAB" fill-rule="nonzero" mask="url(#mask-4)"></path>
                            </g>
                            <g>
                                <path d="M21.2938651,32.0078659 C21.4095801,28.1475162 21.2057012,20.4972277 17.8746384,19.3018701 L17.6674534,20.0314964 C17.3097775,20.9938724 16.3951389,22.5669769 14.2342062,22.561467 C11.7962309,22.5553191 10.8717963,20.5470487 10.5857536,19.677529 L10.4760386,19.2831364 C7.13830223,20.4616163 7.01817899,28.1110929 7.17736371,31.9721385 L21.2938651,32.0078659 Z" id="Fill-3" fill="#8FA0D1"></path>
                                <polygon id="Fill-5" fill="#42404C" points="15.5769906 21.6132467 15.044334 22.5734187 13.4315479 22.5693588 12.9194628 21.6065188 14.2511655 20.5809821"></polygon>
                                <path d="M14.2514472,20.5809937 L12.5487829,22.270096 L9.65566108,19.0420146 C9.6592123,19.0405008 10.6366454,18.6447889 11.177265,18.4338185 C11.7178847,18.2228481 11.5833277,18.2676258 11.5833277,18.2676258 L12.1488618,18.7306543 L14.2514472,20.5809937 Z" id="Fill-7" fill="#7588C3"></path>
                                <polygon id="Fill-9" fill="#7588C3" points="17.2238021 18.0843612 14.2514472 20.5806051 15.9446216 22.2796832 18.8562939 19.0039626"></polygon>
                                <polygon id="Fill-11" fill="#42404C" points="15.3056357 31.982149 15.0480626 22.8035079 13.435154 22.7991737 13.1355806 31.9762668"></polygon>
                                <path d="M1.28812279,23.70484 L1.22449788e-05,31.9434115 L13.9324104,31.9786749 C12.9882,28.4683487 10.4645711,19.0874886 10.4645711,19.0874886 L4.46465397,20.4289454 C2.797745,20.8016464 1.53908363,22.0997201 1.28812279,23.70484" id="Fill-13" fill="#FEFEFE"></path>
                                <g transform="translate(14.632750, 19.081642)" fill="#FEFEFE" id="Fill-15">
                                    <path d="M9.42140914,1.39012954 L3.54969691,0.0253571246 C3.54969691,0.0253571246 0.973230915,9.3933415 0.0091837341,12.8988538 L13.8084177,12.9337691 L12.5653687,4.67872589 C12.3242038,3.07737591 11.0796854,1.77570631 9.42140914,1.39012954"></path>
                                </g>
                                <polygon id="Fill-17" fill="#E5E6E7" points="9.95691268 23.0982352 8.92790588 24.4231623 13.4075477 31.9773467 13.8922652 31.9785647 10.9977097 18.4945467 8.50232715 19.4859704 8.6424142 22.0681745"></polygon>
                                <polygon id="Fill-19" fill="#E5E6E7" points="15.0336809 31.9814704 19.5558128 24.4500796 18.5343367 23.1199326 19.8547127 22.0965417 19.9561051 19.526802 17.6785758 18.3452464 14.5489634 31.9802525"></polygon>
                                <path d="M20.4953272,6.36281077 C20.5037762,3.45908667 17.4741235,1.09865659 14.2995516,1.09085864 C11.1227143,1.08315469 8.08167377,3.42875443 8.07322473,6.33247853 L8.25334837,8.55137683 C8.0756125,8.59015956 7.9150196,8.66425528 7.78075341,8.76879517 C7.53169054,8.96158956 7.37452624,9.24722745 7.37354664,9.56901779 L7.37035862,10.6624334 C7.36864865,11.2405367 7.87650915,11.7107424 8.51037047,11.7160029 C8.89832966,14.3128719 12.0992513,17.066341 14.252837,17.0716137 C16.4064226,17.0768621 19.0909408,15.3753731 20.0265894,11.7442645 C20.6580017,11.74197 21.1700867,11.2746745 21.171801,10.6965152 L21.1749887,9.60309958 C21.1763929,9.10922137 20.8037169,8.69699395 20.3019789,8.58282833 L20.4953272,6.36281077 Z" id="Fill-21" fill="#F0C8B5"></path>
                                <path d="M10.6062027,5.07679562 C10.6062027,5.07679562 10.6539581,7.74225165 9.01527381,8.98644433 C9.01527381,8.98644433 7.36942621,8.0064947 7.38450556,5.52686719 C7.39661006,3.55067023 8.03622653,2.58394436 9.12798884,2.20492146 C9.12798884,2.20492146 9.87615704,0.510193235 12.2724382,0.181919389 C14.6685356,-0.146354456 17.8584138,-0.0429423949 19.741263,2.01706299 C21.6241122,4.07718436 21.8538892,7.54923127 19.5978131,10.5038699 C19.5978131,10.5038699 19.4749959,9.21583003 19.0188092,8.35437218 C19.0188092,8.35437218 16.0481162,7.70159441 14.6746581,6.64056231 C14.6746581,6.64056231 15.2305801,7.58269664 15.1694777,8.02627233 C15.1694777,8.02627233 11.7136386,7.37970045 10.6062027,5.07679562" id="Fill-37" fill="#2B2E2B"></path>
                            </g>
                        </g>
                        <rect id="矩形" stroke="none" fill="#D8D8D8" fill-rule="nonzero" x="3.87096774" y="21.6302521" width="18.3870968" height="9.83193277"></rect>
                        <line x1="12.0967742" y1="22.1218487" x2="15" y2="22.1218487" id="直线" stroke="#FFFCF6" stroke-width="1" fill="none" stroke-linecap="square" fill-rule="nonzero"></line>
                        <path d="M12.0967742,21.6302521 L12.0967742,18.6806723 L12.0967742,21.6302521 Z" id="直线-copy" stroke="#FFFCF6" stroke-width="1" fill="none" stroke-linecap="square" fill-rule="nonzero"></path>
                        <rect id="矩形" stroke="none" fill="#ACACAC" fill-rule="nonzero" x="9.67741935" y="28.512605" width="3.87096774" height="2.94957983"></rect>
                        <rect id="矩形" stroke="none" fill="#7FB1FD" fill-rule="nonzero" x="2.66453526e-14" y="3.84877315e-14" width="28.0645161" height="31.4621849"></rect>
                        <g id="分组-5" stroke="none" stroke-width="1" fill="none" fill-rule="evenodd" transform="translate(0.000000, 0.000000)">
                            <g id="分组">
                                <polygon id="Fill-1" fill="#7588C3" points="11.1850878 18.9370286 18.0078159 18.955401 17.9999931 21.8959393 11.177265 21.8776297"></polygon>
                                <g id="路径-3" transform="translate(11.177265, 15.386336)">
                                    <mask id="mask-6" fill="white">
                                        <use xlink:href="#path-5"></use>
                                    </mask>
                                    <use id="Mask" fill="#F0C8B5" xlink:href="#path-5"></use>
                                    <path d="M0.620959169,4.20076672e-14 C1.60620408,1.06098729 2.53257735,1.61545231 3.40007897,1.66339507 C4.26758059,1.71133784 5.19395386,1.25926546 6.17919877,0.307177938 L6.17919877,1.23641839 C5.2528255,2.14166349 4.32645224,2.59428604 3.40007897,2.59428604 C2.4737057,2.59428604 1.54733244,2.14166349 0.620959169,1.23641839 L0.620959169,4.20076672e-14 Z" fill="#E2BDAB" fill-rule="nonzero" mask="url(#mask-6)"></path>
                                </g>
                                <g>
                                    <path d="M21.2938651,32.0078659 C21.4095801,28.1475162 21.2057012,20.4972277 17.8746384,19.3018701 L17.6674534,20.0314964 C17.3097775,20.9938724 16.5463245,21.3144052 14.3853919,21.3088953 C11.9474166,21.3027474 10.8717963,20.5470487 10.5857536,19.677529 L10.4760386,19.2831364 C7.13830223,20.4616163 7.01817899,28.1110929 7.17736371,31.9721385 L21.2938651,32.0078659 Z" id="Fill-3" fill="#8FA0D1"></path>
                                    <polygon id="Fill-5" fill="#42404C" points="15.5769906 21.6132467 15.044334 22.5734187 13.4315479 22.5693588 12.9194628 21.6065188 14.2511655 20.5809821"></polygon>
                                    <path d="M14.2514472,20.5809937 L12.5487829,22.270096 L9.65566108,19.0420146 C9.6592123,19.0405008 10.6366454,18.6447889 11.177265,18.4338185 C11.7178847,18.2228481 11.5833277,18.2676258 11.5833277,18.2676258 L12.1488618,18.7306543 L14.2514472,20.5809937 Z" id="Fill-7" fill="#7588C3"></path>
                                    <polygon id="Fill-9" fill="#7588C3" points="17.2238021 18.0843612 14.2514472 20.5806051 15.9446216 22.2796832 18.8562939 19.0039626"></polygon>
                                    <polygon id="Fill-11" fill="#42404C" points="15.3056357 31.982149 15.0480626 22.8035079 13.435154 22.7991737 13.1355806 31.9762668"></polygon>
                                    <path d="M1.22449788e-05,32.0154114 L13.8922652,32.0154114 C12.9480549,28.5050852 10.4645711,19.0874886 10.4645711,19.0874886 L4.46465397,20.4289454 C2.797745,20.8016464 1.53908363,22.0997201 1.28812279,23.70484 L1.22449788e-05,32.0154114 Z" id="Fill-13" fill="#FEFEFE"></path>
                                    <g transform="translate(14.632750, 19.081642)" fill="#FEFEFE" id="Fill-15">
                                        <path d="M3.54969691,0.0253571246 C3.54969691,0.0253571246 0.973230915,9.42825684 0.0091837341,12.9337691 L13.8084177,12.8969224 L12.5653687,4.67872589 C12.3242038,3.07737591 11.0796854,1.77570631 9.42140914,1.39012954 L3.54969691,0.0253571246 Z"></path>
                                    </g>
                                    <polygon id="Fill-17" fill="#E5E6E7" points="9.95691268 23.0982352 8.92790588 24.4231623 13.4075477 31.9773467 13.8922652 31.9785647 10.9977097 18.4945467 8.50232715 19.4859704 8.6424142 22.0681745"></polygon>
                                    <polygon id="Fill-19" fill="#E5E6E7" points="15.0336809 31.9814704 19.5558128 24.4500796 18.5343367 23.1199326 19.8547127 22.0965417 19.9561051 19.526802 17.6785758 18.3452464 14.5489634 31.9802525"></polygon>
                                    <path d="M20.4953272,6.36281077 C20.5037762,3.45908667 17.4741235,1.09865659 14.2995516,1.09085864 C11.1227143,1.08315469 8.08167377,3.42875443 8.07322473,6.33247853 L8.25334837,8.55137683 C8.0756125,8.59015956 7.9150196,8.66425528 7.78075341,8.76879517 C7.53169054,8.96158956 7.37452624,9.24722745 7.37354664,9.56901779 L7.37035862,10.6624334 C7.36864865,11.2405367 7.87650915,11.7107424 8.51037047,11.7160029 C8.89832966,14.3128719 12.0992513,17.066341 14.252837,17.0716137 C16.4064226,17.0768621 19.0909408,15.3753731 20.0265894,11.7442645 C20.6580017,11.74197 21.1700867,11.2746745 21.171801,10.6965152 L21.1749887,9.60309958 C21.1763929,9.10922137 20.8037169,8.69699395 20.3019789,8.58282833 L20.4953272,6.36281077 Z" id="Fill-21" fill="#F0C8B5"></path>
                                    <path d="M10.6062027,5.07679562 C10.6062027,5.07679562 10.6539581,7.74225165 9.01527381,8.98644433 C9.01527381,8.98644433 7.36942621,8.0064947 7.38450556,5.52686719 C7.39661006,3.55067023 8.03622653,2.58394436 9.12798884,2.20492146 C9.12798884,2.20492146 9.87615704,0.510193235 12.2724382,0.181919389 C14.6685356,-0.146354456 17.8584138,-0.0429423949 19.741263,2.01706299 C21.6241122,4.07718436 21.8538892,7.54923127 19.5978131,10.5038699 C19.5978131,10.5038699 19.4749959,9.21583003 19.0188092,8.35437218 C19.0188092,8.35437218 16.0481162,7.70159441 14.6746581,6.64056231 C14.6746581,6.64056231 15.2305801,7.58269664 15.1694777,8.02627233 C15.1694777,8.02627233 11.7136386,7.37970045 10.6062027,5.07679562" id="Fill-37" fill="#2B2E2B"></path>
                                </g>
                            </g>
                        </g>
                    </g>
                </g>
                <line x1="73.5" y1="4.5" x2="73.5" y2="84.5" id="直线-4备份" stroke="#F3F3F3" stroke-width="0.5" opacity="0.3" stroke-linecap="square" mask="url(#mask-2)"></line>
                <g id="编组-2备份" transform="translate(22.000000, 20.000000)" fill="#CAE3FF" fill-rule="nonzero">
                    <rect id="矩形备份-13" x="71" y="0" width="37.7777778" height="7"></rect>
                    <rect id="矩形备份-14" x="71" y="24" width="37.7777778" height="7"></rect>
                    <rect id="矩形备份-15" x="-2.09610107e-13" y="48" width="37.7777778" height="7"></rect>
                    <rect id="矩形备份-16" x="60" y="48" width="49" height="7"></rect>
                </g>
                <g id="编组-27备份-2" transform="translate(104.000000, 45.000000)">
                    <circle id="椭圆形" stroke="#F66F46" stroke-width="0.8" cx="15" cy="15" r="14.6"></circle>
                    <path d="M7,10 C10.2824715,5.14365422 14.3875968,3.82492259 19.3153757,6.04380511 C21.2248542,7.29029499 22.4530623,8.60902662 23,10" id="路径-12" stroke="#F66F46" stroke-linecap="round"></path>
                    <path d="M7,25 C10.2824715,20.1436542 14.3875968,18.8249226 19.3153757,21.0438051 C21.2248542,22.290295 22.4530623,23.6090266 23,25" id="路径-12备份" stroke="#F66F46" stroke-linecap="round" transform="translate(15.000000, 22.500000) scale(1, -1) translate(-15.000000, -22.500000) "></path>
                    <polygon id="星形" fill="#F66F46" points="15.5 18.25 12.2671811 19.9495935 12.8845946 16.3497967 10.2691892 13.8004065 13.8835906 13.2752033 15.5 10 17.1164094 13.2752033 20.7308108 13.8004065 18.1154054 16.3497967 18.7328189 19.9495935"></polygon>
                </g>
                <g id="编组-30">
                    <mask id="mask-8" fill="white">
                        <use xlink:href="#path-7"></use>
                    </mask>
                    <use id="Mask备份-2" fill-opacity="0.243826486" fill="#000000" fill-rule="nonzero" xlink:href="#path-7"></use>
                    <g id="分组-3备份" mask="url(#mask-8)" fill="#FFFFFF" fill-rule="nonzero">
                        <g transform="translate(56.000000, 28.000000)" id="Shape">
                            <path d="M16.5,0 C7.38632813,0 0,7.38632812 0,16.5 C0,25.6136719 7.38632813,33 16.5,33 C25.6136719,33 33,25.6136719 33,16.5 C33,7.38632812 25.6136719,0 16.5,0 Z M26.5256836,26.5256836 C25.2237305,27.8276367 23.7058594,28.8524414 22.0171875,29.5646484 C20.2705078,30.3058594 18.4142578,30.6796875 16.5,30.6796875 C14.5857422,30.6796875 12.7294922,30.3058594 10.9828125,29.5678711 C9.29414063,28.8524414 7.77949219,27.8308594 6.47431641,26.5289063 C5.17236328,25.2269531 4.14755859,23.709082 3.43535156,22.0204102 C2.69414063,20.2705078 2.3203125,18.4142578 2.3203125,16.5 C2.3203125,14.5857422 2.69414063,12.7294922 3.43212891,10.9828125 C4.14755859,9.29414063 5.16914063,7.77949219 6.47109375,6.47431641 C7.77304688,5.17236328 9.29091797,4.14755859 10.9795898,3.43535156 C12.7294922,2.69414063 14.5857422,2.3203125 16.5,2.3203125 C18.4142578,2.3203125 20.2705078,2.69414063 22.0171875,3.43212891 C23.7058594,4.14755859 25.2205078,5.16914063 26.5256836,6.47109375 C27.8276367,7.77304688 28.8524414,9.29091797 29.5646484,10.9795898 C30.3058594,12.7294922 30.6796875,14.5857422 30.6796875,16.5 C30.6796875,18.4142578 30.3058594,20.2705078 29.5678711,22.0171875 C28.8524414,23.7058594 27.8308594,25.2237305 26.5256836,26.5256836 Z M23.5898438,15.355957 L17.6762695,15.355957 L17.6762695,9.44238281 C17.6762695,8.80107422 17.1574219,8.28222656 16.5161133,8.28222656 L16.5161133,8.28222656 C15.8748047,8.28222656 15.355957,8.80107422 15.355957,9.44238281 L15.355957,15.355957 L9.41015625,15.355957 C8.76884766,15.355957 8.25,15.8748047 8.25,16.5161133 L8.25,16.5161133 C8.25,17.1574219 8.76884766,17.6762695 9.41015625,17.6762695 L15.355957,17.6762695 L15.355957,23.5576172 C15.355957,24.1989258 15.8748047,24.7177734 16.5161133,24.7177734 L16.5161133,24.7177734 C17.1574219,24.7177734 17.6762695,24.1989258 17.6762695,23.5576172 L17.6762695,17.6762695 L23.5898438,17.6762695 C24.2311523,17.6762695 24.75,17.1574219 24.75,16.5161133 L24.75,16.5161133 C24.75,15.8748047 24.2311523,15.355957 23.5898438,15.355957 Z"></path>
                        </g>
                    </g>
                </g>
            </g>
        </g>
    </g>
</svg>