<?xml version="1.0" encoding="UTF-8"?>
<svg width="12px" height="14px" viewBox="0 0 12 14" version="1.1" xmlns="http://www.w3.org/2000/svg" xmlns:xlink="http://www.w3.org/1999/xlink">
    <title>编组_50_slice</title>
    <g id="医生端" stroke="none" stroke-width="1" fill="none" fill-rule="evenodd">
        <g id="画板" transform="translate(-10.000000, -10.000000)" fill-rule="nonzero">
            <g id="编组-50" transform="translate(10.000000, 10.000000)">
                <path d="M5.23810909,13.5963152 C5.55757836,13.7054545 5.90423981,13.7054545 6.22370908,13.5963152 C8.39854544,12.8515879 9.1845818,12.2412606 9.18458182,12.2412606 C11.4443636,10.7006061 11.4653091,8.675297 11.4653091,8.675297 L11.4653091,2.37187883 C11.4653091,2.05827882 11.2093091,1.79064246 10.8974545,1.77842428 C9.29338181,1.72256973 6.92945455,0.543224274 6.06487272,0.083006087 C5.85722021,-0.0276686957 5.60808887,-0.0276686957 5.40043636,0.083006087 C4.53585455,0.542642445 2.17134545,1.72256972 0.56785454,1.77900609 C0.255999989,1.78889701 -7.07312996e-14,2.05827882 -7.07312996e-14,2.37246064 L-7.07312996e-14,8.675297 C-7.07312996e-14,8.675297 0.0209454545,10.7000243 2.28072726,12.2418425 C2.27723635,12.2418425 3.06327271,12.8515879 5.23810909,13.5963152 Z" id="路径备份-6" fill="#CA8D4C"></path>
                <path d="M5.22647272,8.45595154 C5.09160906,8.45595154 4.96227035,8.40237085 4.86690909,8.30700609 L3.072,6.51035155 C2.97635396,6.41514024 2.92258387,6.28574479 2.92258387,6.15078792 C2.92258387,6.01583104 2.97635396,5.88643559 3.072,5.79122428 C3.16721131,5.69557824 3.29660676,5.64180815 3.43156364,5.64180815 C3.56652051,5.64180815 3.69591596,5.69557824 3.79112727,5.79122428 L5.22647272,7.22656973 L8.12741818,4.32562427 C8.22262949,4.22997823 8.35202493,4.17620815 8.48698181,4.17620815 C8.62193869,4.17620815 8.75133414,4.22997823 8.84654545,4.32562427 C8.94219149,4.42083558 8.99596158,4.55023103 8.99596158,4.68518791 C8.99596158,4.82014479 8.94219149,4.94954024 8.84654545,5.04475155 L5.58603636,8.30526064 C5.49138731,8.40182466 5.36168622,8.45595154 5.22647272,8.45536973 L5.22647272,8.45595154 Z" id="路径备份-11" fill="#FFFFFF"></path>
            </g>
        </g>
    </g>
</svg>