<?xml version="1.0" encoding="UTF-8"?>
<svg width="42px" height="42px" viewBox="0 0 42 42" version="1.1" xmlns="http://www.w3.org/2000/svg" xmlns:xlink="http://www.w3.org/1999/xlink">
    <title>编组_13_slice</title>
    <g id="医生端" stroke="none" stroke-width="1" fill="none" fill-rule="evenodd">
        <g id="画板" transform="translate(-160.000000, -66.000000)" fill="#06B48D">
            <g id="编组-13" transform="translate(160.000000, 66.000000)">
                <rect id="矩形备份-17" opacity="0.112002418" x="0" y="0" width="42" height="42" rx="8"></rect>
                <path d="M28.078019,10 L14.2930286,10 C13.0191238,10 12,11.0325333 12,12.2930286 L12,29.1488 C12,30.4227048 13.0325333,31.4418286 14.2930286,31.4418286 L28.0914286,31.4418286 C29.3653333,31.4418286 30.3844571,30.4092952 30.3844571,29.1488 L30.3844571,12.2930286 C30.3844571,11.0325333 29.3519238,10 28.078019,10 L28.078019,10 Z M20.7161905,14.478781 L22.2985143,14.478781 L23.1701333,15.8331429 L24.081981,14.478781 L25.6106667,14.478781 L23.9478857,16.7986286 L25.7581714,19.3732571 L24.1624381,19.3732571 L23.1701333,17.857981 L22.164419,19.3732571 L20.6491429,19.3732571 L22.4192,16.8522667 L20.7161905,14.478781 Z M14.4539429,12.6148571 L17.323581,12.6148571 C18.0476952,12.6148571 18.5706667,12.6819048 18.9059048,12.8025905 C19.2277333,12.9232762 19.4959238,13.1378286 19.6970667,13.4462476 C19.8982095,13.7546667 19.9920762,14.1167238 19.9920762,14.5190095 C19.9920762,15.0285714 19.8445714,15.4442667 19.5495619,15.7795048 C19.2545524,16.1147429 18.7986286,16.3158857 18.2086095,16.4097524 C18.503619,16.5840762 18.7449905,16.7718095 18.9461333,16.9729524 C19.1338667,17.1740952 19.4020571,17.5495619 19.7238857,18.0725333 L20.5552762,19.3866667 L18.9059048,19.3866667 L17.9136,17.911619 C17.5649524,17.3886476 17.323581,17.0534095 17.1894857,16.9193143 C17.0553905,16.785219 16.9212952,16.6913524 16.7737905,16.6377143 C16.6262857,16.5840762 16.3983238,16.5572571 16.0899048,16.5572571 L15.8217143,16.5572571 L15.8217143,19.3866667 L14.4539429,19.3866667 L14.4539429,12.6148571 Z M23.4785524,28.7733333 L15.0573714,28.7733333 C14.6282667,28.7733333 14.2930286,28.4246857 14.2930286,28.0089905 C14.2930286,27.5798857 14.6416762,27.2446476 15.0573714,27.2446476 L23.4919619,27.2446476 C23.9210667,27.2446476 24.2563048,27.5932952 24.2563048,28.0089905 C24.2563048,28.4246857 23.9076571,28.7733333 23.4785524,28.7733333 Z M26.5493333,24.9382095 L15.0573714,24.9382095 C14.6282667,24.9382095 14.2930286,24.5895619 14.2930286,24.1738667 C14.2930286,23.7447619 14.6416762,23.4095238 15.0573714,23.4095238 L26.5493333,23.4095238 C26.9784381,23.4095238 27.3136762,23.7581714 27.3136762,24.1738667 C27.3136762,24.6029714 26.9784381,24.9382095 26.5493333,24.9382095 Z" id="形状" fill-rule="nonzero"></path>
            </g>
        </g>
    </g>
</svg>