<?xml version="1.0" encoding="UTF-8"?>
<svg width="20px" height="20px" viewBox="0 0 20 20" version="1.1" xmlns="http://www.w3.org/2000/svg" xmlns:xlink="http://www.w3.org/1999/xlink">
    <!-- Generator: Sketch 60.1 (88133) - https://sketch.com -->
    <title>形状_3备份_slice</title>
    <desc>Created with Sketch.</desc>
    <g id="医生端/药师端" stroke="none" stroke-width="1" fill="none" fill-rule="evenodd">
        <g id="画板" transform="translate(-323.000000, -81.000000)" fill="#06B48D" fill-rule="nonzero">
            <g id="形状-3备份" transform="translate(323.000000, 81.000000)">
                <path d="M1.49134097,1.89082502 L1.49134097,4.95490434 C1.49332869,5.50530561 1.35001366,5.96128991 0.800009941,5.96317825 L0.99421075,5.96317825 C0.441026665,5.96258192 0.00154048933,5.50620009 3.47880823e-05,4.95251905 L3.47880823e-05,0.978061338 C-0.00138656166,0.71835578 0.101105005,0.46886286 0.28469136,0.285164493 C0.468277715,0.101466126 0.717708074,-0.00117759953 0.97741446,8.84473434e-05 L4.96151265,8.84473434e-05 C5.51449797,0.000795947171 5.96253137,0.250553689 5.96322789,0.803936549 C5.96392279,1.3544372 5.51857282,1.49268353 4.9685691,1.49337924 L1.88888613,1.49337924 C1.669328,1.49337924 1.49134097,1.67136628 1.49134097,1.89092441 L1.49134097,1.89082502 Z M17.9884712,1.49327985 L14.9087882,1.49327985 C14.3587845,1.49268353 13.9135339,1.3544372 13.9141296,0.803936549 C13.9148259,0.250454302 14.3628593,0.000795947171 14.9158447,4.24185944e-07 L18.9038189,4.24185944e-07 C19.1628545,-0.000241326861 19.4112849,0.102859436 19.5940305,0.286444635 C19.7767762,0.470029834 19.8787371,0.718930199 19.8773225,0.977961951 L19.8773225,4.95251905 C19.8758169,5.50610068 19.6351032,5.9625819 19.0820185,5.96327763 L19.0773474,5.96327763 C18.5273437,5.96128991 18.384128,5.50530561 18.3860164,4.95490434 L18.3860164,1.89082502 C18.3860164,1.67126689 18.2080293,1.49327985 17.9884712,1.49327985 L17.9884712,1.49327985 Z M1.88888613,18.3807994 L4.9685691,18.3807994 C5.51857282,18.3813958 5.96392279,18.5197415 5.96322789,19.0701427 C5.96253137,19.623625 5.51449799,19.8732833 4.96151265,19.8740789 L0.973538408,19.8740789 C0.714502824,19.8743206 0.466072424,19.7712199 0.28332679,19.5876347 C0.100581156,19.4040495 -0.00137981294,19.1551491 3.48510729e-05,18.8961173 L3.48510729e-05,14.9216596 C0.00154046594,14.3679786 0.24225407,13.9114974 0.795438178,13.910901 L0.800009941,13.910901 C1.35001366,13.9128888 1.49322932,14.3687737 1.49134097,14.919175 L1.49134097,17.9832543 C1.49134097,18.2028124 1.669328,18.3807994 1.88888613,18.3807994 Z M18.3860164,17.9864346 L18.3860164,14.9224547 C18.3840286,14.371954 18.5273437,13.9160691 19.0773474,13.9140814 L19.0820185,13.9140814 C19.6351032,13.9147771 19.8758168,14.3712583 19.8773225,14.92484 L19.8773225,18.8992977 C19.8787439,19.1590033 19.7762523,19.4084962 19.592666,19.5921945 C19.4090796,19.7758929 19.1596492,19.8785366 18.8999429,19.8772706 L14.9158447,19.8772706 C14.3628594,19.8765631 13.9148259,19.6268054 13.9141296,19.0734225 C13.9135339,18.5229218 14.3587845,18.3846755 14.9087882,18.3839798 L17.9884712,18.3839798 C18.0939067,18.3839798 18.1950239,18.3420957 18.2695781,18.2675415 C18.3441322,18.1929873 18.3860164,18.0918702 18.3860164,17.9864346 L18.3860164,17.9864346 Z M0.749720481,9.10169787 L19.1276368,9.10169787 C19.541696,9.10169787 19.8773573,9.43735916 19.8773573,9.85141835 C19.8773573,10.2654775 19.541696,10.6011388 19.1276368,10.6011388 L0.749720481,10.6011388 C0.335661293,10.6011388 -2.18491891e-13,10.2654775 -2.18491891e-13,9.85141835 C-2.18491891e-13,9.43735916 0.335661293,9.10169787 0.749720481,9.10169787 Z" id="形状"></path>
            </g>
        </g>
    </g>
</svg>