<?xml version="1.0" encoding="UTF-8"?>
<svg width="15px" height="15px" viewBox="0 0 15 15" version="1.1" xmlns="http://www.w3.org/2000/svg" xmlns:xlink="http://www.w3.org/1999/xlink">
    <title>形状_slice</title>
    <g id="医生端" stroke="none" stroke-width="1" fill="none" fill-rule="evenodd">
        <g id="画板" transform="translate(-32.000000, -107.000000)" fill="#999999" fill-rule="nonzero">
            <path d="M46.8310328,121.03026 L44.2014048,118.400632 C45.2266021,117.193414 45.8462204,115.631099 45.8462204,113.92311 C45.8462204,110.099534 42.7466863,107 38.9231102,107 C35.0995341,107 32,110.099534 32,113.92311 C32,117.746686 35.0995341,120.84622 38.9231102,120.84622 C40.6233107,120.84622 42.1795682,120.232371 43.3844778,119.215251 L46.0152597,121.846033 C46.2405492,122.071322 46.6057433,122.071322 46.8310328,121.846033 C47.0563224,121.620743 47.0563224,121.255549 46.8310328,121.03026 Z M38.9231102,119.692369 C35.7367487,119.692369 33.1538517,117.109472 33.1538517,113.92311 C33.1538517,110.736749 35.7367487,108.153852 38.9231102,108.153852 C42.1094717,108.153852 44.6923687,110.736749 44.6923687,113.92311 C44.6923687,117.109472 42.1094717,119.692369 38.9231102,119.692369 Z" id="形状"></path>
        </g>
    </g>
</svg>