<?xml version="1.0" encoding="UTF-8"?>
<svg width="14px" height="15px" viewBox="0 0 14 15" version="1.1" xmlns="http://www.w3.org/2000/svg" xmlns:xlink="http://www.w3.org/1999/xlink">
    <title>编组_2_slice</title>
    <g id="医生端/药师端" stroke="none" stroke-width="1" fill="none" fill-rule="evenodd">
        <g id="画板" transform="translate(-104.000000, -104.000000)" fill-rule="nonzero">
            <g id="编组-2" transform="translate(104.000000, 104.000000)">
                <path d="M4.49828068,14.0729167 C4.13734318,14.0729167 3.84203068,13.7776042 3.84203068,13.4166667 L3.84203068,0.65625 C3.84203068,0.2953125 4.13734318,6.06625861e-13 4.49828068,6.06625861e-13 C4.85921818,6.06625861e-13 5.15453068,0.2953125 5.15453068,0.65625 L5.15453068,13.4166667 C5.15453068,13.7776042 4.85921818,14.0729167 4.49828068,14.0729167 Z" id="路径" fill="#06B48D"></path>
                <path d="M4.92119735,13.9197917 C4.64411402,14.1513021 4.22848902,14.1148437 3.9969786,13.8395833 L0.152447348,9.25859375 C-0.0790630683,8.98151042 -0.0426047349,8.56588542 0.232655682,8.334375 C0.509739015,8.10286458 0.925364015,8.13932292 1.15687443,8.41458333 L4.99958277,12.9955729 C5.2329161,13.2726562 5.19645777,13.6882812 4.92119735,13.9197917 L4.92119735,13.9197917 Z" id="路径" fill="#06B48D"></path>
                <path d="M9.49307235,6.07514039e-13 C9.85400985,6.07514039e-13 10.1493223,0.2953125 10.1493223,0.65625 L10.1493223,13.4166667 C10.1493223,13.7776042 9.85400985,14.0729167 9.49307235,14.0729167 C9.13213485,14.0729167 8.83682235,13.7776042 8.83682235,13.4166667 L8.83682235,0.65625 C8.83682235,0.2953125 9.13213485,6.07514039e-13 9.49307235,6.07514039e-13 Z" id="路径" fill="#999999"></path>
                <path d="M9.07015568,0.153125 C9.34723902,-0.0783854167 9.76286402,-0.0419270833 9.99437443,0.233333333 L13.8370828,4.81432292 C14.0685932,5.09140625 14.0321348,5.50703125 13.7568744,5.73854167 C13.4797911,5.97005208 13.0641661,5.93359375 12.8326557,5.65833333 L8.98994735,1.07734375 C8.75843693,0.800260417 8.79489527,0.384635417 9.07015568,0.153125 Z" id="路径" fill="#999999"></path>
            </g>
        </g>
    </g>
</svg>