<?xml version="1.0" encoding="UTF-8"?>
<svg width="25px" height="24px" viewBox="0 0 25 24" version="1.1" xmlns="http://www.w3.org/2000/svg" xmlns:xlink="http://www.w3.org/1999/xlink">
    <title>编组_slice</title>
    <g id="医生端/药师端" stroke="none" stroke-width="1" fill="none" fill-rule="evenodd">
        <g id="画板" transform="translate(-260.000000, -638.000000)" fill="#FFFFFF" fill-rule="nonzero">
            <g id="编组" transform="translate(259.906256, 638.000000)">
                <path d="M1.87936507,0.35068329 C1.4222222,-0.0556659059 0.761904737,-0.106459576 0.304761897,0.35068329 C-0.101587299,0.757032487 -0.101587299,1.46814362 0.304761897,1.87449282 L4.82539681,6.4459214 L2.28571426,6.4459214 C1.26984125,6.4459214 0.406349183,7.25861982 0.406349183,8.27449281 L0.406349183,14.7252865 C0.406349183,15.7411595 1.26984125,16.6046515 2.28571426,16.5538579 L5.48571427,16.5538579 L12.2412698,22.1411595 C12.8,22.5983023 13.6126984,22.6998896 14.2730159,22.3951277 C14.9333333,22.0903658 15.3904762,21.4300484 15.3904762,20.6681436 L15.3904762,17.0617944 L21.2825397,23.0046515 C21.4857143,23.2078261 21.7904762,23.3094135 22.0952381,23.3094135 C22.4,23.3094135 22.6539682,23.2078261 22.8571428,23.0046515 C23.3142857,22.5983023 23.3142857,21.8871912 22.8571428,21.480842 L1.87936507,0.35068329 Z M13.7650793,20.7697309 C13.7650793,20.8713182 13.7142857,20.9729055 13.6126984,20.9729055 C13.5111111,21.0236992 13.4095238,21.0236992 13.3587301,20.9221119 L6.04444442,14.8268738 L5.63809523,14.9284611 L2.28571426,14.9284611 C2.13333331,14.9284611 2.03174602,14.8268738 2.03174602,14.6744928 L2.03174602,8.37608012 C2.03174602,8.22369917 2.13333333,8.12211188 2.28571426,8.12211188 L5.63809523,8.12211188 L6.04444442,8.22369917 L6.29841269,8.02052457 L13.7142857,15.4871912 L13.7142857,20.7697309 L13.7650793,20.7697309 Z M13.3587301,1.72211186 C13.4603175,1.67131822 13.5619047,1.62052455 13.6634921,1.67131822 L13.7142857,1.72211186 L13.7142857,1.77290553 C13.7142857,1.82369917 13.7650793,1.82369917 13.7650793,1.87449282 L13.7650793,9.3411595 L15.4412698,11.01735 L15.4412698,1.87449282 C15.4412698,1.41734995 15.2888889,0.960207112 14.9333333,0.604651558 C14.2222222,-0.157253192 13.0031746,-0.208046861 12.2412698,0.503064246 L8.43174601,3.9570325 L9.59999999,5.12528647 L13.3587301,1.72211186 L13.3587301,1.72211186 Z M20.9777778,2.38242933 C20.8253968,2.23004837 20.6222222,2.12846109 20.368254,2.17925473 C20.1650794,2.17925473 19.9619048,2.28084204 19.8095238,2.43322297 C19.5047619,2.73798488 19.5047619,3.29671503 19.8603175,3.60147694 C21.9428571,5.43004838 23.1619047,8.02052457 23.3142857,10.7633817 C23.3650793,12.9983023 22.6539682,15.233223 21.3333333,17.0617944 L22.5015873,18.280842 C24.1777778,16.1475087 25.0412698,13.4554452 24.9904762,10.7633817 C24.7873016,7.51258806 23.3650794,4.464969 20.9777778,2.38242933 L20.9777778,2.38242933 Z" id="形状"></path>
                <path d="M17.2698413,6.69988964 C18.4888889,7.7665563 19.2507937,9.23957218 19.4031746,10.864969 C19.5047619,12.0840166 19.2,13.2522706 18.5904762,14.3189373 L19.8095238,15.5379849 C20.7746032,14.1157627 21.1809524,12.4395722 21.0793651,10.7633817 C20.9269841,8.73163567 19.9619047,6.85227059 18.4380952,5.48084202 C18.2857143,5.32846107 18.031746,5.27766742 17.8285714,5.27766742 C17.6253968,5.27766742 17.4222222,5.37925474 17.2698413,5.53163567 C16.9142857,5.83639758 16.9650794,6.39512773 17.2698413,6.69988964 L17.2698413,6.69988964 Z" id="路径"></path>
            </g>
        </g>
    </g>
</svg>