<?xml version="1.0" encoding="UTF-8"?>
<svg width="22px" height="22px" viewBox="0 0 22 22" version="1.1" xmlns="http://www.w3.org/2000/svg" xmlns:xlink="http://www.w3.org/1999/xlink">
    <title>编组_7_slice</title>
    <g id="医生端" stroke="none" stroke-width="1" fill="none" fill-rule="evenodd">
        <g id="画板" transform="translate(-304.000000, -14.000000)" fill="#333333" fill-rule="nonzero">
            <g id="编组-7" transform="translate(304.000000, 14.000000)">
                <path d="M10.989,-4.26325641e-13 C4.92245625,0.00606351654 0.00606351654,4.92245625 -4.22772928e-13,10.989 C0.00606351654,17.0555438 4.92245625,21.9719365 10.989,21.978 C17.0555438,21.9719365 21.9719365,17.0555438 21.978,10.989 C21.9719365,4.92245625 17.0555438,0.00606351654 10.989,-4.26325641e-13 L10.989,-4.26325641e-13 Z M10.989,20.4065714 C5.79033178,20.4005098 1.57749015,16.1876682 1.57142857,10.989 C1.57749015,5.79033178 5.79033178,1.57749015 10.989,1.57142857 C16.1876682,1.57749015 20.4005098,5.79033178 20.4065714,10.989 C20.4005098,16.1876682 16.1876682,20.4005098 10.989,20.4065714 Z" id="形状"></path>
                <path d="M6.347,8.28928571 C6.347,8.71034874 6.57163443,9.09942702 6.9362857,9.30995854 C7.30093698,9.52049006 7.75020588,9.52049006 8.11485715,9.30995854 C8.47950843,9.09942702 8.70414286,8.71034874 8.70414286,8.28928571 C8.70414286,7.63837869 8.17647846,7.11071429 7.52557143,7.11071429 C6.8746644,7.11071429 6.347,7.63837869 6.347,8.28928571 L6.347,8.28928571 Z" id="路径"></path>
                <path d="M12.9281429,8.28928571 C12.9281429,8.94019274 13.4558073,9.46785714 14.1067143,9.46785714 C14.7576213,9.46785714 15.2852857,8.94019274 15.2852857,8.28928571 C15.2852857,7.63837869 14.7576213,7.11071429 14.1067143,7.11071429 C13.4558073,7.11071429 12.9281429,7.63837869 12.9281429,8.28928571 L12.9281429,8.28928571 Z" id="路径"></path>
                <path d="M14.9348571,13.4105714 C14.7596588,13.298063 14.5469074,13.2598526 14.3435081,13.3043647 C14.1401087,13.3488767 13.9627634,13.472456 13.8505714,13.6478571 C13.3398571,14.4445714 12.1817143,14.96 10.9025714,14.96 C9.62342857,14.96 8.46685714,14.4461429 7.95614286,13.6494286 C7.80799572,13.4060056 7.53966351,13.2618745 7.25491171,13.2727717 C6.97015991,13.2836689 6.71362787,13.4478859 6.58451788,13.7019193 C6.4554079,13.9559526 6.47396001,14.2599785 6.633,14.4964286 C7.43757143,15.752 9.07342857,16.5314286 10.9025714,16.5314286 C12.7332857,16.5314286 14.3691429,15.752 15.1737143,14.4948571 C15.4068052,14.1294161 15.2999267,13.6442438 14.9348571,13.4105714 L14.9348571,13.4105714 Z" id="路径"></path>
            </g>
        </g>
    </g>
</svg>