<?xml version="1.0" encoding="UTF-8"?>
<svg width="62px" height="62px" viewBox="0 0 62 62" version="1.1" xmlns="http://www.w3.org/2000/svg" xmlns:xlink="http://www.w3.org/1999/xlink">
    <title>success_slice</title>
    <g id="医生端" stroke="none" stroke-width="1" fill="none" fill-rule="evenodd">
        <g id="画板" transform="translate(-157.000000, -140.000000)" fill-rule="nonzero">
            <g id="编组-3" transform="translate(157.000000, 140.071955)">
                <path d="M30.711637,61.9280447 C13.7737039,61.9280447 -1.95399252e-13,48.0411499 -1.95399252e-13,30.9640224 C-1.95399252e-13,13.8868949 13.7737039,1.42108547e-14 30.711637,1.42108547e-14 C47.6495701,1.42108547e-14 61.423274,13.8868949 61.423274,30.9640224 C61.423274,48.0411499 47.6495701,61.9280447 30.711637,61.9280447 Z" id="路径" fill="#06B48D"></path>
                <path d="M30.711637,4.01593987 C15.9700512,4.01593987 3.98320625,16.1012916 3.98320625,30.9640224 C3.98320625,45.8267531 15.9700512,57.9121049 30.711637,57.9121049 C45.4532228,57.9121049 57.4400678,45.8267531 57.4400678,30.9640224 C57.4400678,16.1012916 45.4532228,4.01593987 30.711637,4.01593987 Z" id="路径" fill="#06B48D"></path>
                <path d="M3,29.9280447 C3,45.3920177 15.536027,57.9280447 31,57.9280447 C46.463973,57.9280447 59,45.3920177 59,29.9280447 C59,14.4640717 46.463973,1.92804474 31,1.92804474 C15.536027,1.92804474 3,14.4640717 3,29.9280447 Z" id="路径" fill="#06B48D"></path>
                <path d="M26.4716294,44.9280447 L14.5903175,33.2164995 C13.8032275,32.4406558 13.8032275,31.1845279 14.5903175,30.4086842 C15.3774076,29.6328405 16.6517439,29.6328405 17.4388339,30.4086842 L26.4716294,39.3124142 L46.5611661,19.5099275 C47.3482561,18.7340838 48.6225924,18.7340838 49.4096825,19.5099275 C50.1967725,20.2857712 50.1967725,21.5418991 49.4096825,22.3177428 L26.4716294,44.9280447 L26.4716294,44.9280447 Z" id="路径" fill="#FFFFFF"></path>
            </g>
        </g>
    </g>
</svg>