<?xml version="1.0" encoding="UTF-8"?>
<svg width="47px" height="37px" viewBox="0 0 47 37" version="1.1" xmlns="http://www.w3.org/2000/svg" xmlns:xlink="http://www.w3.org/1999/xlink">
    <title>编组_44_slice</title>
    <g id="医生端/药师端" stroke="none" stroke-width="1" fill="none" fill-rule="evenodd">
        <g id="画板" transform="translate(-310.000000, -150.000000)" fill="#999999">
            <g id="编组-44" transform="translate(310.000000, 150.000000)">
                <path d="M28.000037,3.58446632 L28.389441,4.25032663 L27.6289148,4.15784603 L27.1225068,4.7404738 L26.9762517,3.97843365 L26.2723994,3.67139807 L26.9415162,3.29407724 L27.0146437,2.52278904 L27.5758974,3.04992848 L28.3236262,2.88161378 L28.000037,3.58446632 L28.000037,3.58446632 Z M38.1117441,23.2106987 L37.4535965,23.6046661 L37.5450059,22.8352275 L36.9709549,22.322885 L37.7223401,22.1730664 L38.0258192,21.4628154 L38.3987696,22.1397734 L39.1611239,22.2119083 L38.6400904,22.7797391 L38.8064555,23.5362304 L38.1117441,23.2106987 L38.1117441,23.2106987 Z" id="形状" fill-rule="nonzero"></path>
                <path d="M38.1117441,23.2106987 L37.4535965,23.6046661 L37.5450059,22.8352275 L36.9709549,22.322885 L37.7223401,22.1730664 L38.0258192,21.4628154 L38.3987696,22.1397734 L39.1611239,22.2119083 L38.6400904,22.7797391 L38.8064555,23.5362304 L38.1117441,23.2106987 L38.1117441,23.2106987 Z M20.4240264,3.6140601 L19.8024425,3.16090517 L20.5355459,2.93710214 L20.7677257,2.19910697 L21.2046626,2.83537346 L21.9706734,2.82982465 L21.5081418,3.44759505 L21.7494626,4.18374058 L21.0255002,3.93034376 L20.4094009,4.38904751 L20.4240264,3.6140601 Z M35.406026,28.3415223 L34.6491562,28.4672959 L35.0111375,27.7847891 L34.6601254,27.0948838 L35.4133388,27.2317551 L35.9526542,26.6805708 L36.0568609,27.4481597 L36.7406032,27.7958868 L36.0513764,28.1343657 L35.9362005,28.9001051 L35.406026,28.3415223 L35.406026,28.3415223 Z M15.2849903,5.66527976 L14.542746,5.47292012 L15.146048,4.99387061 L15.0985151,4.22073281 L15.7328963,4.6516924 L16.4458896,4.36685217 L16.235648,5.11224579 L16.7237741,5.70967044 L15.9595916,5.73926423 L15.5482493,6.39217725 L15.2849903,5.66527976 L15.2849903,5.66527976 Z M30.5064825,32.3903229 L29.7660664,32.1979632 L30.3675402,31.7189137 L30.3200074,30.9457759 L30.9562167,31.3785851 L31.6673818,31.0918953 L31.4589684,31.8372889 L31.9470946,32.4347135 L31.1810839,32.4643073 L30.7697416,33.1172203 L30.5064825,32.3903229 L30.5064825,32.3903229 Z M20.0858116,33.3724668 L20.4752157,34.0383271 L19.7146895,33.9458465 L19.2082815,34.5266247 L19.0601982,33.7664342 L18.3581741,33.4593985 L19.0272909,33.0820777 L19.0985902,32.3107895 L19.6598439,32.8379289 L20.4075727,32.6696142 L20.0858116,33.3724668 L20.0858116,33.3724668 Z M8.67060657,15.201879 L8.01063071,15.5976959 L8.10204014,14.8282574 L7.52798914,14.3140652 L8.27937435,14.1660963 L8.58285353,13.4539957 L8.95580385,14.1309537 L9.71815821,14.2049382 L9.19712467,14.772769 L9.36531796,15.5292603 L8.67060657,15.201879 L8.67060657,15.201879 Z" id="形状" fill-rule="nonzero"></path>
                <path d="M8.67060657,15.201879 L8.01063071,15.5976959 L8.10204014,14.8282574 L7.52798914,14.3140652 L8.27937435,14.1660963 L8.58285353,13.4539957 L8.95580385,14.1309537 L9.71815821,14.2049382 L9.19712467,14.772769 L9.36531796,15.5292603 L8.67060657,15.201879 L8.67060657,15.201879 Z M25.0274035,34.1049131 L24.4058196,33.6536078 L25.1370947,33.4279552 L25.3711028,32.68996 L25.8080397,33.3262265 L26.5740504,33.3225273 L26.1115189,33.9402977 L26.3528397,34.6745936 L25.6288773,34.4211968 L25.0109498,34.8799005 L25.0274035,34.1049131 Z M10.8406656,10.0747547 L10.0837958,10.1986786 L10.445777,9.51617183 L10.0947649,8.82811618 L10.8479783,8.96498749 L11.3872937,8.41380312 L11.4915004,9.18139208 L12.1752427,9.52911912 L11.4860159,9.86574848 L11.37084,10.6333375 L10.8406656,10.0747547 L10.8406656,10.0747547 Z" id="形状" fill-rule="nonzero"></path>
                <path d="M14.5573715,3.2737315 C20.1731427,0.00931639134 27.1168434,0.17325375 32.5759912,3.69914226 L33.4699751,3.1775517 C27.6774849,-0.788005867 20.1563607,-1.06253029 14.0964757,2.47041024 C8.03659071,6.00335077 4.50006173,12.7245373 4.98680799,19.7833678 L5.88079185,19.2636268 C5.60156797,12.7142305 8.94578225,6.55124476 14.5573715,3.2737315 Z M31.8995617,33.7238931 C26.2848048,36.9899852 19.3411197,36.8281866 13.880942,33.3040311 L12.9887863,33.8237721 C18.7809557,37.7879522 26.3008449,38.0619931 32.35991,34.5296973 C38.418975,30.9974016 41.9555695,24.2776846 41.4701252,17.2198056 L40.5852823,17.7395466 C40.859333,24.2886433 37.511953,30.4488323 31.8995617,33.7238931 L31.8995617,33.7238931 Z" id="形状" fill-rule="nonzero"></path>
                <path d="M29.0676987,28.7558354 C26.2726773,30.3863315 22.9349574,30.7726954 19.8481472,29.8230614 L18.7841419,30.4445311 C22.3150934,31.7882229 26.2551324,31.4625624 29.5236941,29.5568628 C32.7922557,27.6511631 35.0462291,24.3654714 35.6674569,20.6008963 L34.6034516,21.2205163 C33.8667523,24.3983267 31.8629253,27.1259549 29.0676987,28.7558354 L29.0676987,28.7558354 Z M17.3874064,8.24178922 C20.1824277,6.61129312 23.5201476,6.22492921 26.6069578,7.17456309 L27.6709631,6.5530935 C24.1397966,5.20872566 20.1992309,5.53404331 16.9302028,7.43980858 C13.6611746,9.34557385 11.406926,12.6316848 10.7858199,16.3967283 L11.8516535,15.7771083 C12.5869316,12.5986304 14.5911382,9.87048543 17.3874064,8.24178922 Z M46.0095157,13.5390778 C45.8647769,13.7128012 45.6908695,13.859318 45.4957949,13.971887 L8.20076228,35.721474 C7.28182408,36.2557436 6.10882263,35.9362983 5.57914085,35.0075237 L0.257285958,25.6780811 C0.0025283715,25.2320316 -0.0664354891,24.7017912 0.0655971931,24.2042493 C0.197629875,23.7067074 0.519818662,23.2827143 0.96113828,23.0257375 L38.2653119,1.27615061 C39.18425,0.741881005 40.3572515,1.06132629 40.8869333,1.9901008 L46.2014754,11.3195435 C46.6028336,12.0271427 46.5262403,12.9127523 46.0095157,13.5390778 Z M1.14944164,24.0541218 C0.877646066,24.3813148 0.837449311,24.8456673 1.04889132,25.2156781 L6.36343346,34.5451208 C6.64190147,35.0304515 7.25623421,35.1959727 7.73640253,34.9150431 L45.0405761,13.1710051 C45.5202853,12.8892737 45.6838892,12.2677418 45.4062137,11.7819465 L40.0934997,2.45065418 C39.8157464,1.96555648 39.2019768,1.79996656 38.7223589,2.0807318 L1.41818524,23.8266195 C1.31568222,23.8852991 1.22461207,23.9623936 1.14944164,24.0541218 Z" id="形状" fill-rule="nonzero"></path>
                <text id="已失效" transform="translate(22.500000, 18.500000) rotate(-30.000000) translate(-22.500000, -18.500000) " font-family="PingFangSC-Regular, PingFang SC" font-size="9" font-weight="normal">
                    <tspan x="9" y="22">已失效</tspan>
                </text>
            </g>
        </g>
    </g>
</svg>