<?xml version="1.0" encoding="UTF-8"?>
<svg width="12px" height="12px" viewBox="0 0 12 12" version="1.1" xmlns="http://www.w3.org/2000/svg" xmlns:xlink="http://www.w3.org/1999/xlink">
    <title>提示_(1) (1)备份 2_slice</title>
    <g id="医生端" stroke="none" stroke-width="1" fill="none" fill-rule="evenodd">
        <g id="画板" transform="translate(-17.000000, -597.000000)" fill="#06B48D" fill-rule="nonzero">
            <g id="提示-(1)-(1)备份-2" transform="translate(17.000000, 597.000000)">
                <path d="M10.8661651,8.634375 L10.0419699,8.025 C9.90148214,7.921875 9.81718946,7.7625 9.81718946,7.59375 L9.81718946,4.809375 C9.81718946,4.321875 9.71416507,3.84375 9.51748214,3.403125 C9.32079922,2.971875 9.04918946,2.5875 8.70265287,2.25 C8.35611629,1.921875 7.94401873,1.659375 7.4850919,1.471875 C7.32587239,1.40625 7.15728702,1.35 6.98870165,1.3125 L6.98870165,0.9375 C6.98870165,0.421875 6.53914068,-2.84217094e-14 5.99592117,-2.84217094e-14 C5.4433358,-2.84217094e-14 5.00314068,0.421875 5.00314068,0.9375 L5.00314068,1.3125 C4.83455531,1.359375 4.66596995,1.40625 4.50675044,1.471875 C4.04782361,1.65 3.6450919,1.9125 3.28918946,2.25 C2.94265287,2.578125 2.66167726,2.971875 2.46499434,3.403125 C2.26831141,3.853125 2.16528702,4.321875 2.16528702,4.809375 L2.16528702,7.603125 C2.16528702,7.771875 2.08099434,7.93125 1.94050653,8.034375 L1.12567726,8.634375 C0.966457752,8.75625 0.844701655,8.915625 0.797872387,9.103125 C0.751043118,9.271875 0.760408972,9.45 0.816604094,9.61875 C0.872799216,9.7875 0.98518946,9.928125 1.13504312,10.040625 C1.29426263,10.153125 1.49094556,10.21875 1.69699434,10.21875 L10.294848,10.21875 C10.5008968,10.21875 10.6975797,10.153125 10.8567992,10.040625 C11.0066529,9.9375 11.1190431,9.7875 11.1752382,9.61875 C11.2314334,9.45 11.2407992,9.271875 11.1939699,9.103125 C11.1471407,8.915625 11.0347504,8.75625 10.8661651,8.634375 Z M9.60177483,8.578125 L10.4259699,9.1875 C10.5102626,9.253125 10.5196285,9.3375 10.4915309,9.403125 C10.4727992,9.46875 10.4072382,9.534375 10.3042139,9.534375 L1.69699434,9.534375 C1.59396995,9.534375 1.52840897,9.46875 1.50967726,9.403125 C1.49094556,9.3375 1.49094556,9.253125 1.57523824,9.1875 L2.39943336,8.578125 C2.71787239,8.34375 2.90518946,7.9875 2.90518946,7.603125 L2.90518946,4.809375 C2.90518946,3.196875 4.2913358,1.884375 6.00528702,1.884375 C7.70987239,1.884375 9.10538458,3.196875 9.10538458,4.809375 L9.10538458,7.603125 C9.09601873,7.9875 9.27396995,8.34375 9.60177483,8.578125 Z M5.99592117,0.69375 C6.14577483,0.69375 6.25816507,0.80625 6.25816507,0.946875 L6.25816507,1.1625 L5.73367726,1.1625 L5.73367726,0.9375 C5.73367726,0.80625 5.84606751,0.69375 5.99592117,0.69375 Z M4.68470165,10.7625 C4.68470165,11.446875 5.27475044,12 5.99592117,12 C6.7170919,12 7.30714068,11.446875 7.30714068,10.7625 L7.30714068,10.715625 L4.68470165,10.715625 L4.68470165,10.7625 Z M2.66167726,1.509375 C2.73660409,1.453125 2.78343336,1.36875 2.79279922,1.275 C2.80216507,1.18125 2.77406751,1.096875 2.71787239,1.021875 C2.65231141,0.9375 2.53992117,0.890625 2.43689678,0.890625 C2.35260409,0.890625 2.26831141,0.91875 2.21211629,0.965625 C1.6033358,1.434375 1.10694556,1.9875 0.722945557,2.634375 C0.329579704,3.3 0.0954333622,4.021875 0.00177482565,4.771875 C-0.00759102801,4.865625 0.020506533,4.95 0.0767016549,5.025 C0.142262631,5.1 0.226555313,5.146875 0.32021385,5.15625 L0.357677265,5.15625 C0.544994338,5.15625 0.70421385,5.025 0.722945557,4.846875 C0.88216507,3.534375 1.57523824,2.34375 2.66167726,1.509375 Z M11.9900675,4.771875 C11.9057748,4.021875 11.6622626,3.3 11.2688968,2.64375 C10.8942626,1.996875 10.3885065,1.434375 9.77972605,0.975 C9.71416507,0.928125 9.62987239,0.9 9.5455797,0.9 C9.43318946,0.9 9.33016507,0.946875 9.26460409,1.03125 C9.19904312,1.10625 9.17094556,1.190625 9.18967726,1.284375 C9.19904312,1.378125 9.24587239,1.4625 9.32079922,1.51875 C10.4166041,2.353125 11.1003114,3.54375 11.2595309,4.85625 C11.2782626,5.034375 11.4374821,5.165625 11.6247992,5.165625 L11.6622626,5.165625 C11.7559212,5.15625 11.8495797,5.109375 11.9057748,5.034375 C11.9713358,4.95 11.9994334,4.865625 11.9900675,4.771875 Z" id="形状"></path>
            </g>
        </g>
    </g>
</svg>