<?xml version="1.0" encoding="UTF-8"?>
<svg width="28px" height="22px" viewBox="0 0 28 22" version="1.1" xmlns="http://www.w3.org/2000/svg" xmlns:xlink="http://www.w3.org/1999/xlink">
    <title>编组_6_slice</title>
    <g id="医生端" stroke="none" stroke-width="1" fill="none" fill-rule="evenodd">
        <g id="画板" transform="translate(-81.000000, -14.000000)" fill="#FFFFFF" fill-rule="nonzero" stroke="#FFFFFF" stroke-width="0.4">
            <g id="编组-6" transform="translate(81.128584, 13.726526)">
                <path d="M17.9013089,1.76821364e-05 C18.5836042,-0.00335895536 19.3792761,0.477302864 19.6861392,1.07405674 L20.7228209,3.0910712 C20.8755736,3.38775088 21.2747673,3.62672399 21.6162544,3.62672399 L24.6319321,3.62672399 C25.9924494,3.6280818 27.0963422,4.70617635 27.1024523,6.04021658 L27.1520436,19.3181597 C27.1588011,20.6413375 26.0691652,21.7194321 24.7195103,21.7255422 L24.6957487,21.7255422 L2.52216754,21.6739457 C1.1596135,21.6698723 0.055720675,20.589741 0.0482527554,19.2543431 L2.52962443e-05,6.04089548 C-0.00605930263,4.7136443 1.08629219,3.63283412 2.44069943,3.62672399 L6.21946166,3.62672399 C6.56162771,3.62672399 6.9642159,3.38231968 7.11764748,3.0822455 L8.12445747,1.11886419 C8.42724728,0.526862627 9.22563469,0.0407696071 9.90521445,0.0380540067 L17.9013089,1.76821364e-05 Z M17.907419,1.207794 L9.91200346,1.24581865 C9.69611299,1.24649756 9.3206808,1.47528715 9.22495578,1.66130598 L8.2188247,3.62468729 C7.85561273,4.33278089 7.02803259,4.83380975 6.21946166,4.83380972 L2.45359855,4.83380972 C1.77605549,4.83380972 1.22954028,5.3714992 1.2315713,6.03614317 L1.28113673,19.2495907 C1.28588903,19.9210237 1.84055104,20.4634655 2.52556202,20.46686 L24.6977854,20.5178191 C25.3671817,20.5232088 25.9143758,19.9950239 25.9191281,19.3385267 L25.9191281,19.3222331 L25.8709261,6.04428999 C25.8668527,5.37625154 25.3142274,4.83584644 24.6326109,4.83380972 L21.6162544,4.83380972 C20.811078,4.83380972 19.9855345,4.3395699 19.6230015,3.633513 L18.5863198,1.61717742 C18.489237,1.42844298 18.1205938,1.20644241 17.907419,1.207794 Z" id="形状结合"></path>
                <g id="编组-5" transform="translate(8.000000, 4.000000)">
                    <path d="M4.40946384,2.90922144 C1.85040693,3.76044331 0.47922684,6.48423354 1.34722158,8.99297193 C1.66843987,9.91668594 2.26408129,10.7202794 3.05445758,11.296243 C3.16959836,11.379317 3.24626111,11.5054137 3.26701922,11.6458694 C3.28777733,11.7863251 3.25086722,11.9292069 3.16467914,12.0420355 C2.98221449,12.2785436 2.64454494,12.3266303 2.40331177,12.15046 C0.889562515,11.0446503 -0.00179439255,9.30267052 7.9387477e-13,7.45226629 C7.9387477e-13,4.61585841 2.05587429,2.25028824 4.78565478,1.70876498 L3.96378538,0.902470361 C3.86379232,0.801802308 3.80882762,0.664931885 3.81142342,0.523065991 C3.81401921,0.381200098 3.87395423,0.246432056 3.97756308,0.149489416 C4.1896791,-0.0498298054 4.52022509,-0.0498298054 4.73234111,0.149489416 L6.74747861,2.1244919 L4.73234111,4.09949442 C4.51486456,4.30397016 4.17412372,4.29812736 3.96378538,4.08631573 C3.76064753,3.88131526 3.76064753,3.55091491 3.96378538,3.34591444 L4.40946384,2.90922144 L4.40946384,2.90922144 Z" id="路径"></path>
                    <path d="M6.20895048,12.2421116 C8.90758142,12.1187114 10.9934045,9.87414531 10.8676082,7.22882804 C10.7813478,5.4137666 9.65636914,3.80297447 7.96171279,3.0673654 C7.82994628,3.01379576 7.72534534,2.9093598 7.67156776,2.77767802 C7.61779019,2.64599624 7.6193792,2.49819332 7.6759754,2.36769816 C7.79778675,2.09557398 8.1151084,1.97114979 8.38942032,2.08795108 L8.40259901,2.09334235 C10.5644989,3.0332207 11.9578431,5.13401952 11.9572443,7.45226629 C11.9572443,10.6163437 9.39938522,13.1951686 6.19996504,13.3089843 L6.90682065,14.0014632 C7.00684764,14.1022343 7.06182567,14.2392027 7.05923016,14.3811657 C7.05663466,14.5231286 6.99668666,14.6579958 6.89304295,14.7550432 C6.68092693,14.9543624 6.35038094,14.9543624 6.13826492,14.7550432 L4.12312742,12.7800407 L6.13826492,10.8050382 C6.35574147,10.6005625 6.69648231,10.6064052 6.90682065,10.8182169 C7.1099585,11.0232174 7.1099585,11.3536177 6.90682065,11.5586182 L6.20895048,12.2421116 L6.20895048,12.2421116 Z" id="路径"></path>
                </g>
            </g>
        </g>
    </g>
</svg>