<?xml version="1.0" encoding="UTF-8"?>
<svg width="16px" height="18px" viewBox="0 0 16 18" version="1.1" xmlns="http://www.w3.org/2000/svg" xmlns:xlink="http://www.w3.org/1999/xlink">
    <title>编组_slice</title>
    <g id="医生端" stroke="none" stroke-width="1" fill="none" fill-rule="evenodd">
        <g id="画板" transform="translate(-16.000000, -49.000000)" fill="#666666" fill-rule="nonzero">
            <g id="编组" transform="translate(16.000000, 49.000000)">
                <path d="M7.64537038,1.23076923 C8.60075499,1.23076923 9.49902422,1.60288462 10.1746011,2.27846154 C10.8501781,2.95403846 11.2222935,3.85230769 11.2222935,4.80769231 C11.2222935,5.76307692 10.8501781,6.66134615 10.1746011,7.33692308 C9.49902422,8.0125 8.60075499,8.38461538 7.64537038,8.38461538 C6.68998576,8.38461538 5.79171653,8.0125 5.11613961,7.33692308 C4.44056268,6.66134615 4.0684473,5.76326923 4.0684473,4.80769231 C4.0684473,3.85211538 4.44056268,2.95403846 5.11613961,2.27846154 C5.79171653,1.60288462 6.68998576,1.23076923 7.64537038,1.23076923 M7.64537038,-2.13162821e-14 C4.99017807,-2.13162821e-14 2.83767807,2.1525 2.83767807,4.80769231 C2.83767807,7.46288462 4.99017807,9.61538462 7.64537038,9.61538462 C10.3005627,9.61538462 12.4530627,7.46288462 12.4530627,4.80769231 C12.4530627,2.1525 10.3005627,-2.13162821e-14 7.64537038,-2.13162821e-14 Z" id="形状"></path>
                <path d="M15.0340242,16.9394231 C14.7113319,16.9394231 14.4426781,16.6901923 14.4201781,16.3680769 C14.1561396,12.5959615 11.2988319,9.61596154 7.82479345,9.61596154 C4.35075499,9.61596154 1.49363961,12.5959615 1.22940884,16.3680769 C1.20690884,16.69 0.938447299,16.9394231 0.615562683,16.9394231 C0.257870376,16.9394231 -0.0232834705,16.6355769 0.00152422181,16.2788462 C0.065178068,15.3640385 0.261716529,14.475 0.588062683,13.6280769 C0.979793453,12.6111538 1.54133191,11.6973077 2.25690884,10.9115385 C2.97633191,10.1217308 3.81537038,9.50096154 4.7509473,9.06634615 C5.72421653,8.61442308 6.75825499,8.38519231 7.82460114,8.38519231 C8.8909473,8.38519231 9.92498576,8.61442308 10.898255,9.06634615 C11.8338319,9.50076923 12.6728704,10.1215385 13.3922935,10.9115385 C14.1078704,11.6973077 14.6694088,12.6113462 15.0611396,13.6280769 C15.3874858,14.475 15.5838319,15.3640385 15.6476781,16.2788462 C15.6728704,16.6355769 15.3917165,16.9394231 15.0340242,16.9394231 Z" id="路径"></path>
            </g>
        </g>
    </g>
</svg>