<?xml version="1.0" encoding="UTF-8"?>
<svg width="16px" height="16px" viewBox="0 0 16 16" version="1.1" xmlns="http://www.w3.org/2000/svg" xmlns:xlink="http://www.w3.org/1999/xlink">
    <title>video_interrogation_slice</title>
    <g id="医生端/药师端" stroke="none" stroke-width="1" fill="none" fill-rule="evenodd">
        <g id="画板" transform="translate(-287.000000, -596.000000)">
            <g id="Video-interrogation" transform="translate(287.000000, 596.000000)">
                <g id="形状-2" transform="translate(2.000000, 1.000000)" fill="#09BB8F" fill-rule="nonzero" opacity="0.8">
                    <path d="M5.77777778,8.70414851e-14 C8.96888889,8.70414851e-14 11.5555556,2.59866667 11.5555556,5.80355555 C11.5555556,9.00844444 8.96888889,11.6071111 5.77777778,11.6071111 C2.58666667,11.6071111 -1.75859327e-13,9.00844444 -1.75859327e-13,5.80355555 C-1.75859327e-13,2.59866667 2.58666667,8.70414851e-14 5.77777778,8.70414851e-14 Z M5.77777778,3.11111111 C4.30444445,3.11111111 3.11111111,4.30444444 3.11111111,5.77777778 C3.11111111,7.25111113 4.30444444,8.44444444 5.77777778,8.44444444 C7.25111112,8.44444444 8.44444445,7.25111111 8.44444445,5.77777778 C8.44444445,4.30444445 7.25111112,3.11111111 5.77777778,3.11111111 Z M8.83155556,12.0542222 C7.86504283,12.4609236 6.82681703,12.6697777 5.77822222,12.6684444 C4.72960955,12.6699583 3.69134826,12.461097 2.72488889,12.0542222 L2.03955556,12.7302222 C1.47955556,13.2804444 1.87777778,14.2222222 2.66933334,14.2222222 L8.88711111,14.2222222 C9.67866667,14.2222222 10.0746667,13.2804444 9.51688889,12.7302222 L8.83155556,12.0546667 L8.83155556,12.0542222 Z" id="形状"></path>
                </g>
                <rect id="矩形" x="0" y="0" width="16" height="16"></rect>
            </g>
        </g>
    </g>
</svg>