<?xml version="1.0" encoding="UTF-8"?>
<svg width="30px" height="21px" viewBox="0 0 30 21" version="1.1" xmlns="http://www.w3.org/2000/svg" xmlns:xlink="http://www.w3.org/1999/xlink">
    <title>形状备份_2_slice</title>
    <g id="医生端" stroke="none" stroke-width="1" fill="none" fill-rule="evenodd">
        <g id="画板" transform="translate(-98.000000, -722.000000)" fill="#FFFFFF" fill-rule="nonzero">
            <path d="M126.125,722.9375 L125.293437,722.9375 C124.80125,722.9375 124.32875,723.131562 123.977187,723.4775 L121.4375,725.9825 L121.4375,724.8125 C121.4375,723.259199 120.178301,722 118.625,722 L100.8125,722 C99.261875,722 98,723.260937 98,724.8125 L98,739.8125 C98,741.365801 99.2591991,742.625 100.8125,742.625 L118.625,742.625 C120.1775,742.625 121.4375,741.365 121.4375,739.8125 L121.4375,738.667812 L123.977187,741.172812 C124.32875,741.51875 124.80125,741.712813 125.293437,741.712813 L126.125,741.712813 C127.160534,741.712813 128,740.873346 128,739.837813 L128,724.8125 C128,723.776966 127.160534,722.9375 126.125,722.9375 Z M100.8125,740.75 C100.295,740.75 99.875,740.329062 99.875,739.8125 L99.875,724.8125 C99.875,724.294733 100.294733,723.875 100.8125,723.875 L118.625,723.875 C119.141562,723.875 119.5625,724.295 119.5625,724.8125 L119.5625,739.8125 C119.5625,740.329062 119.141562,740.75 118.625,740.75 L100.8125,740.75 Z M126.125,739.837813 L125.1875,739.837813 L121.4375,736.087813 L121.4375,736.0625 L120.5,735.125 L120.5,729.5 L125.1875,724.8125 L126.125,724.8125 L126.125,739.837813 Z" id="形状备份-2"></path>
        </g>
    </g>
</svg>