<?xml version="1.0" encoding="UTF-8"?>
<svg width="22px" height="22px" viewBox="0 0 22 22" version="1.1" xmlns="http://www.w3.org/2000/svg" xmlns:xlink="http://www.w3.org/1999/xlink">
    <title>编组_10_slice</title>
    <g id="医生端" stroke="none" stroke-width="1" fill="none" fill-rule="evenodd">
        <g id="画板" fill-rule="nonzero">
            <g id="编组-10">
                <path d="M10.9613281,3.64153152e-13 C4.90703125,3.64153152e-13 3.64153152e-13,4.91992188 3.64153152e-13,10.9828125 C3.64153152e-13,17.05 4.90703125,21.965625 10.9613281,21.965625 C17.015625,21.965625 21.9226563,17.05 21.9226563,10.9828125 C21.9183594,4.91992188 17.0113281,3.64153152e-13 10.9613281,3.64153152e-13 Z M10.9785156,21.4027344 C5.23789063,21.4027344 0.580078125,16.7363281 0.580078125,10.9828125 C0.580078125,5.22929688 5.23359375,0.562890625 10.9785156,0.562890625 C16.7191406,0.562890625 21.3769531,5.22929688 21.3769531,10.9828125 C21.3726563,16.7363281 16.7191406,21.4027344 10.9785156,21.4027344 Z" id="形状" stroke="#333333" stroke-width="0.8" fill="#000000"></path>
                <path d="M10.4757812,7.41640625 C10.209375,7.05117187 9.68085937,7.00820312 9.35429687,7.32617187 L9.33710937,7.3390625 C9.06640625,7.60117187 9.03203125,8.01796875 9.25546875,8.32304687 C9.85703125,9.13945312 10.209375,10.1449219 10.209375,11.2363281 C10.209375,12.2460937 9.90429687,13.1828125 9.384375,13.9648437 C9.17382812,14.2785156 9.23398437,14.7039062 9.521875,14.9488281 C9.86132812,15.2367187 10.3769531,15.1679687 10.6261719,14.7984375 C11.3136719,13.7757812 11.7132812,12.5425781 11.7132812,11.2191406 C11.7175781,9.79257812 11.2578125,8.48203125 10.4757812,7.41640625 L10.4757812,7.41640625 Z M6.05429687,11.1503906 C6.05429687,12.0785156 6.58710937,12.8347656 7.24453125,12.8347656 C7.90195312,12.8347656 8.43476562,12.0828125 8.43476562,11.1503906 C8.43476562,10.2222656 7.90195312,9.46601562 7.24453125,9.46601562 C6.58710937,9.46601562 6.05429687,10.2179687 6.05429687,11.1503906 Z" id="形状" fill="#333333"></path>
                <path d="M11.8421875,4.74375 L11.790625,4.80390625 C11.5285156,5.10898437 11.55,5.56445312 11.8335938,5.84804687 C13.1914063,7.21445312 14.0335938,9.10078125 14.0335938,11.1847656 C14.0335938,13.234375 13.2171875,15.0949219 11.89375,16.4570312 C11.61875,16.740625 11.5972656,17.1875 11.8550781,17.4925781 C12.1472656,17.840625 12.6757813,17.8621094 12.99375,17.5398437 C14.6136719,15.8898437 15.6148438,13.6253906 15.6148438,11.1289062 C15.6148438,8.62382812 14.609375,6.35507812 12.9765625,4.70078125 C12.6585938,4.37851562 12.134375,4.4 11.8421875,4.74375 L11.8421875,4.74375 Z" id="路径" fill="#333333"></path>
            </g>
        </g>
    </g>
</svg>