<?xml version="1.0" encoding="UTF-8"?>
<svg width="23px" height="25px" viewBox="0 0 23 25" version="1.1" xmlns="http://www.w3.org/2000/svg" xmlns:xlink="http://www.w3.org/1999/xlink">
    <title>形状备份_slice</title>
    <g id="医生端" stroke="none" stroke-width="1" fill="none" fill-rule="evenodd">
        <g id="画板" transform="translate(-251.000000, -718.000000)" fill="#FFFFFF" fill-rule="nonzero">
            <path d="M269.043279,735.263137 L273.730377,739.968244 C274.089695,740.328687 274.089901,740.913289 273.730837,741.273987 C273.371773,741.634686 272.789409,741.634892 272.430091,741.274449 L251.269644,720.032695 C251.037206,719.799529 250.946341,719.459594 251.031277,719.14094 C251.116213,718.822286 251.364046,718.573325 251.68142,718.487838 C251.998794,718.40235 252.337492,718.493324 252.56993,718.72649 L255.760871,721.930615 C256.403657,719.668988 258.56283,718.000923 261.119262,718.000923 L261.119262,718 C264.181462,718 266.669844,720.38717 266.669844,723.324516 L266.669844,730.05401 C266.669844,730.871888 266.476733,731.64638 266.13189,732.339638 L267.90392,734.118476 C268.698031,732.939068 269.134661,731.553925 269.160986,730.130628 L269.162825,726.099394 C269.162825,725.892616 269.247426,725.694147 269.398237,725.548295 C269.551773,725.401269 269.756191,725.31985 269.968377,725.321209 L269.968377,725.322132 C270.182639,725.322132 270.386785,725.40429 270.538516,725.550141 C270.687974,725.69449 270.772045,725.893968 270.77117,726.102163 L270.77025,730.158322 C270.734709,731.998179 270.131662,733.781696 269.044199,735.263137 L269.043279,735.263137 Z M257.176104,723.350363 L264.903332,731.107282 C265.004486,730.773115 265.05966,730.419563 265.05966,730.05401 L265.05966,730.054933 L265.05966,723.325439 C265.05966,721.248435 263.292228,719.559138 261.118342,719.559138 C258.943536,719.559138 257.176104,721.248435 257.176104,723.325439 L257.176104,723.350363 Z M266.955834,737.353988 C265.482201,738.432024 263.73981,739.079065 261.922055,739.223291 L261.922055,741.359375 L265.578303,741.359375 C266.021541,741.359375 266.382016,741.708312 266.382016,742.138482 C266.382016,742.56773 266.021541,742.916667 265.578303,742.916667 L256.655622,742.916667 C256.211465,742.916667 255.851909,742.56773 255.851909,742.138482 C255.851909,741.708312 256.211465,741.359375 256.655622,741.359375 L260.31279,741.359375 L260.31279,739.223291 C255.425225,738.832815 251.526207,734.898507 251.465515,730.118628 L251.465515,726.100317 C251.465515,725.670146 251.82507,725.321209 252.269227,725.321209 C252.713384,725.321209 253.073859,725.670146 253.073859,726.100317 L253.073859,730.100165 C253.127195,734.288329 256.735626,737.698309 261.117422,737.698309 C262.870141,737.698309 264.501476,737.150903 265.830268,736.22502 L266.955834,737.354911 L266.955834,737.353988 Z M264.133644,734.521877 C263.227943,735.084458 262.183408,735.381211 261.118342,735.378544 C258.057061,735.378544 255.568679,732.990432 255.568679,730.054933 L255.568679,725.923079 L257.176104,727.536681 L257.176104,730.054933 C257.176104,732.131937 258.945375,733.821234 261.118342,733.821234 C261.768078,733.82281 262.408766,733.668353 262.986928,733.370755 L264.133644,734.521877 L264.133644,734.521877 Z" id="形状备份"></path>
        </g>
    </g>
</svg>