<?xml version="1.0" encoding="UTF-8"?>
<svg width="23px" height="24px" viewBox="0 0 23 24" version="1.1" xmlns="http://www.w3.org/2000/svg" xmlns:xlink="http://www.w3.org/1999/xlink">
    <title>编组_91_slice</title>
    <g id="医生端/药师端" stroke="none" stroke-width="1" fill="none" fill-rule="evenodd">
        <g id="画板" transform="translate(-198.000000, -638.000000)" fill="#FFFFFF" fill-rule="nonzero">
            <g id="编组-91" transform="translate(197.906256, 638.000000)">
                <path d="M15.8083832,14.3712575 L15.8083832,15.3341317 C15.8083832,15.8658683 15.3772455,16.297006 14.845509,16.297006 L6.22275449,16.297006 C5.69101796,16.297006 5.25988024,15.8658683 5.25988024,15.3341317 L5.25988024,14.3712575 L15.8083832,14.3712575 Z" id="路径"></path>
                <path d="M13.4083832,1.00452979e-12 C13.9401198,1.00452979e-12 14.3712575,0.431137725 14.3712575,0.962874251 C14.3712575,1.46586826 13.9832335,1.88263473 13.4802395,1.91137725 L1.91137725,1.91137725 L1.91137725,22.0311377 L19.1568862,22.0311377 L19.1568862,7.80359281 C19.1568862,7.27185629 19.588024,6.84071856 20.1053892,6.84071856 C20.6083832,6.84071856 21.0251497,7.22874251 21.0682635,7.73173653 L21.0682635,22.0311377 C21.0682635,23.051497 20.2634731,23.8994012 19.2431138,23.942515 L1.91137725,23.942515 C0.891017964,23.942515 0.0431137725,23.1377246 -5.14255305e-13,22.1173653 L-5.14255305e-13,1.91137725 C-5.14255305e-13,0.891017964 0.804790419,0.0431137725 1.8251497,1.00452979e-12 L13.4083832,1.00452979e-12 Z" id="路径"></path>
                <path d="M19.2143713,0.732934132 C19.6023952,0.373652695 20.205988,0.388023952 20.5652695,0.761676647 C20.9101796,1.12095808 20.9245509,1.68143713 20.594012,2.05508982 L20.5365269,2.11257485 L10.7209581,11.4538922 C10.3329341,11.8131737 9.72934132,11.7988024 9.37005988,11.4107784 C9.03952096,11.051497 9.0251497,10.491018 9.34131737,10.1317365 L9.3988024,10.0742515 L19.2143713,0.732934132 Z" id="路径"></path>
            </g>
        </g>
    </g>
</svg>